<?xml version="1.0" standalone="no"?>
<!DOCTYPE svg PUBLIC "-//W3C//DTD SVG 1.1//EN" "http://www.w3.org/Graphics/SVG/1.1/DTD/svg11.dtd" >
<svg xmlns="http://www.w3.org/2000/svg">
<metadata></metadata>
<defs>
<font id="bellslimmedium" horiz-adv-x="1241" >
<font-face units-per-em="2048" ascent="1554" descent="-494" />
<missing-glyph horiz-adv-x="604" />
<glyph horiz-adv-x="2048" />
<glyph horiz-adv-x="2048" />
<glyph unicode="&#xd;" horiz-adv-x="2048" />
<glyph unicode=" "  horiz-adv-x="604" />
<glyph unicode="&#x09;" horiz-adv-x="604" />
<glyph unicode="&#xa0;" horiz-adv-x="604" />
<glyph unicode="!" horiz-adv-x="538" d="M184 74q0 38 23 61t63 23t62 -22t22 -62q0 -42 -22 -65t-62 -23q-41 0 -63.5 23.5t-22.5 64.5zM217 350v1110h105v-1110h-105z" />
<glyph unicode="&#x22;" horiz-adv-x="577" d="M133 1440h103l-9 -332h-86zM340 1440h100l-8 -332h-84z" />
<glyph unicode="#" horiz-adv-x="1419" d="M182 541l15 92h286l43 258h-286l14 92h287l51 307h92l-49 -307h252l49 307h94l-51 -307h285l-15 -92h-284l-43 -258h284l-14 -92h-285l-53 -324h-94l53 324h-252l-53 -324h-92l53 324h-287zM578 633h251l41 258h-252z" />
<glyph unicode="$" horiz-adv-x="1191" d="M90 225l96 58q53 -89 136 -132t208 -49v623q-200 68 -285 153t-85 234t96.5 239.5t273.5 100.5v129h103v-129q73 -3 138 -21t130.5 -65t106.5 -119l-86 -57q-55 87 -124.5 125t-164.5 43v-557q81 -26 136.5 -48.5t112.5 -57.5t90.5 -76.5t55 -103t21.5 -138.5 q0 -60 -11 -110t-40 -97.5t-75 -81.5t-119.5 -56.5t-170.5 -27.5v-125h-103v125q-148 5 -264 59t-176 162zM268 1118q0 -51 9 -85.5t36 -69t79.5 -64.5t137.5 -61v520q-50 -3 -93.5 -16.5t-83 -39.5t-62.5 -73t-23 -111zM633 102q165 9 234 72t69 184q0 77 -20.5 132.5 t-65 93t-92.5 60t-125 46.5v-588z" />
<glyph unicode="%" horiz-adv-x="1531" d="M141 1159q0 137 91.5 225.5t224.5 88.5q134 0 223.5 -87.5t89.5 -226.5q0 -140 -88.5 -226.5t-224.5 -86.5q-135 0 -225.5 86.5t-90.5 226.5zM215 -20l946 1464h113l-934 -1464h-125zM244 1159q0 -94 60 -156.5t153 -62.5t153 62.5t60 156.5q0 97 -59 156t-154 59 q-97 0 -155 -59t-58 -156zM754 289q0 136 89 224.5t224 88.5q131 0 223 -90t92 -223q0 -135 -91.5 -223.5t-223.5 -88.5q-133 0 -223 88.5t-90 223.5zM852 289q0 -93 61 -154t154 -61q94 0 153.5 60.5t59.5 154.5q0 97 -58.5 158t-154.5 61q-98 0 -156.5 -60t-58.5 -159z " />
<glyph unicode="&#x26;" horiz-adv-x="1286" d="M90 360q0 252 275 474q-59 72 -87 138t-28 146q0 138 92.5 226t232.5 88q115 0 199.5 -62.5t110.5 -171.5l-99 -37q-45 172 -211 172q-99 0 -157 -55t-58 -150q0 -74 28.5 -132.5t86.5 -123.5q185 -207 438 -469q62 113 97 218l98 -43q-46 -136 -117 -254 q249 -249 336 -324h-158q-136 125 -233 227q-178 -245 -440 -245q-189 0 -297.5 97t-108.5 281zM199 360q0 -133 84.5 -205.5t218.5 -72.5q108 0 200 61.5t156 161.5q-177 183 -422 449q-237 -176 -237 -394z" />
<glyph unicode="'" horiz-adv-x="362" d="M129 1440h102l-6 -338h-88z" />
<glyph unicode="(" horiz-adv-x="563" d="M127 657q0 483 207 977h108q-211 -481 -211 -972q0 -522 205 -945h-112q-197 442 -197 940z" />
<glyph unicode=")" horiz-adv-x="563" d="M119 1634h108q209 -494 209 -972q0 -503 -203 -945h-110q205 423 205 945q0 482 -209 972z" />
<glyph unicode="*" horiz-adv-x="956" d="M111 1071v98l315 -20l-168 262l86 51l135 -278l139 276l84 -49l-170 -262l314 18v-98l-309 14l170 -256l-84 -51l-144 279l-147 -277l-84 49l176 256z" />
<glyph unicode="+" horiz-adv-x="1114" d="M117 651v99h391v399h96v-399h393v-99h-393v-403h-96v403h-391z" />
<glyph unicode="," horiz-adv-x="413" d="M119 74q0 43 23.5 65.5t60.5 22.5q45 0 66.5 -28t21.5 -75q0 -62 -38.5 -144.5t-90.5 -154.5l-41 13q5 12 18 42t17.5 40.5t13 33t12 36t7.5 32t6 37.5q-38 7 -57 29t-19 51z" />
<glyph unicode="-" horiz-adv-x="989" d="M170 475v94h651v-94h-651z" />
<glyph unicode="." horiz-adv-x="446" d="M141 72q0 39 21.5 60.5t60.5 21.5q40 0 62 -21t22 -61q0 -86 -84 -86q-40 0 -61 22.5t-21 63.5z" />
<glyph unicode="/" horiz-adv-x="868" d="M80 -35l631 1503h110l-631 -1503h-110z" />
<glyph unicode="0" horiz-adv-x="1368" d="M160 723q0 81 5.5 152t21 147.5t40.5 138t66 118.5t95.5 95.5t131 61t170.5 22.5t170.5 -23t129.5 -61t92.5 -95.5t62.5 -118.5t37.5 -138.5t19 -147t4.5 -151.5q0 -735 -516 -735q-93 0 -169.5 22.5t-130.5 61.5t-95.5 95.5t-66.5 118.5t-40.5 138.5t-21.5 147.5t-6 151 zM276 725q0 -70 3.5 -128.5t14.5 -126.5t29 -121t49.5 -104t74 -84.5t104.5 -54t139 -20.5q75 0 136 20.5t102 54.5t71.5 85.5t47.5 104t27 121t13 126t3 127.5q0 71 -3 128t-12.5 125.5t-26.5 120.5t-47.5 103.5t-71.5 85t-102 54t-137 20.5q-78 0 -141 -20t-105.5 -53 t-74 -83.5t-49 -102.5t-28 -120.5t-13.5 -126.5t-3 -131z" />
<glyph unicode="1" horiz-adv-x="706" d="M113 1157v125q98 84 149 125q55 45 105 45q38 0 57.5 -23t19.5 -63v-1366h-108v1298q0 21 -17 21q-13 0 -32 -16z" />
<glyph unicode="2" horiz-adv-x="1126" d="M160 0q-3 157 7.5 243t51.5 169q43 87 127 163.5t250 192.5q49 34 77 55t68.5 57.5t62 68.5t38 76.5t16.5 92.5q0 85 -41 141.5t-101 79.5t-134 23q-157 0 -229.5 -74.5t-80.5 -224.5h-112q5 186 113 291.5t311 105.5q80 0 148 -19.5t123 -58.5t86.5 -106.5t31.5 -155.5 q0 -114 -68.5 -212.5t-242.5 -217.5q-55 -38 -83.5 -58t-75.5 -57t-75 -64.5t-58 -65.5t-48 -76q-48 -98 -48 -228v-39h707v-102h-821z" />
<glyph unicode="3" horiz-adv-x="1189" d="M82 358l108 31q37 -163 125.5 -233t237.5 -70q152 0 248 93t96 251q0 152 -108 238t-275 86h-72v106h58q134 0 212.5 74.5t78.5 189.5q0 106 -69.5 168t-176.5 62q-110 0 -175 -53t-100 -158l-102 39q91 272 381 272q155 0 254.5 -88t99.5 -240q0 -96 -46.5 -175 t-133.5 -128q137 -42 213 -143.5t76 -251.5q0 -135 -64 -237.5t-168 -154.5t-229 -52q-189 0 -307.5 89t-161.5 285z" />
<glyph unicode="4" horiz-adv-x="1200" d="M74 434v92l594 836q70 98 157 98q125 0 125 -145v-1315h-110v434h-766zM205 532h635v797q0 31 -25 31q-24 0 -51 -37z" />
<glyph unicode="5" horiz-adv-x="1196" d="M109 233q16 10 45.5 31t44.5 31q129 -213 364 -213q170 0 272.5 109t102.5 280q0 170 -102 267.5t-281 97.5q-198 0 -336 -76v540q0 60 36.5 101t106.5 41h599v-99h-568q-42 0 -54.5 -16.5t-12.5 -56.5v-363q112 33 237 33q226 0 358 -123t132 -344q0 -209 -134.5 -348 t-355.5 -139q-309 0 -454 247z" />
<glyph unicode="6" horiz-adv-x="1267" d="M168 463q0 85 18.5 172t54 170.5t60.5 133t64 118.5q41 74 113.5 181.5t148.5 203.5h131q-168 -210 -266 -373q-73 -122 -123 -227q60 46 136.5 71t153.5 25q216 0 342.5 -130t126.5 -343q0 -208 -137 -348t-346 -140q-210 0 -343.5 133t-133.5 353zM281 459 q0 -173 102 -277t268 -104q161 0 263 106t102 275q0 175 -97.5 278t-261.5 103q-170 0 -273 -104.5t-103 -276.5z" />
<glyph unicode="7" horiz-adv-x="1009" d="M39 1341v99h749q64 0 94.5 -29t30.5 -78q0 -54 -34 -129q-62 -142 -244 -564.5t-205 -475.5q-54 -124 -59 -164h-119q4 34 70 193q33 78 149 343.5t215.5 494.5t106.5 245q8 20 8 33q0 32 -41 32h-721z" />
<glyph unicode="8" horiz-adv-x="1249" d="M143 426q0 137 73 239.5t202 163.5q-182 92 -182 291q0 152 100 249t280 97t280.5 -93.5t100.5 -242.5q0 -187 -176 -294q134 -59 209.5 -163t75.5 -247q0 -200 -137 -325.5t-344 -125.5q-211 0 -346.5 124.5t-135.5 326.5zM256 422q0 -155 102.5 -251.5t266.5 -96.5 q159 0 263.5 98t104.5 250q0 153 -103.5 249.5t-264.5 96.5q-162 0 -265.5 -97t-103.5 -249zM346 1128q0 -118 72.5 -187t197.5 -69q122 0 195.5 69t73.5 187q0 117 -73 181.5t-196 64.5q-126 0 -198 -66t-72 -180z" />
<glyph unicode="9" horiz-adv-x="1253" d="M145 993q0 202 137.5 335.5t338.5 133.5q204 0 335 -126.5t131 -346.5q0 -167 -56.5 -309.5t-158.5 -304.5q-132 -205 -268 -375h-135q309 373 436 633q-56 -48 -136.5 -73t-160.5 -25q-211 0 -337 128.5t-126 329.5zM254 1004q0 -171 95.5 -271t258.5 -100 q176 0 273.5 92t97.5 268q0 169 -97.5 271t-260.5 102q-165 0 -266 -102t-101 -260z" />
<glyph unicode=":" horiz-adv-x="403" d="M121 72q0 39 21.5 60.5t60.5 21.5q82 0 82 -82q0 -86 -82 -86t-82 86zM121 707q0 81 82 81t82 -81q0 -86 -82 -86t-82 86z" />
<glyph unicode=";" horiz-adv-x="413" d="M125 707q0 39 22 60t62 21q82 0 82 -81q0 -86 -82 -86q-84 0 -84 86zM127 74q0 43 23.5 65.5t60.5 22.5q45 0 66.5 -28t21.5 -75q0 -62 -38.5 -144.5t-90.5 -154.5l-41 13q5 12 18 42t17.5 40.5t13 33t12 36t7.5 32t6 37.5q-38 7 -57 29t-19 51z" />
<glyph unicode="&#x3c;" horiz-adv-x="966" d="M82 688q0 47 51 76l764 444v-108l-702 -410l702 -409v-111l-764 444q-51 29 -51 74z" />
<glyph unicode="=" horiz-adv-x="1304" d="M145 475v94h1012v-94h-1012zM145 825v93h1012v-93h-1012z" />
<glyph unicode="&#x3e;" horiz-adv-x="966" d="M70 172v109l700 409l-700 410v110l764 -446q55 -34 55 -74q0 -42 -55 -76z" />
<glyph unicode="?" horiz-adv-x="933" d="M90 1257q95 201 389 201q175 0 268 -81t93 -224q0 -77 -37.5 -147.5t-112.5 -155.5q-86 -98 -113 -138q-77 -112 -77 -239v-121h-109v117q0 31 3.5 60.5t8 53t15.5 50t17.5 44t23.5 43.5t25 38.5t29.5 38.5t29.5 36t33 38t32 36q60 67 90.5 123t30.5 125q0 95 -62.5 149 t-191.5 54q-212 0 -289 -144q-16 6 -48 21.5t-48 21.5zM362 74q0 39 23.5 61.5t63.5 22.5t61.5 -22t21.5 -62q0 -86 -83 -86q-41 0 -64 22.5t-23 63.5z" />
<glyph unicode="@" horiz-adv-x="1714" d="M182 563q0 155 55.5 289.5t152.5 229.5t233 149.5t292 54.5q163 0 294.5 -64t210.5 -190t79 -293q0 -137 -52.5 -253t-152.5 -177q-61 -39 -133 -39q-100 0 -141 72q-116 -78 -244 -78q-136 0 -212.5 84.5t-76.5 220.5q0 113 52 211t146.5 157.5t209.5 59.5 q170 0 283 -127q-9 -56 -33.5 -160.5t-28.5 -123.5q-3 -15 -11.5 -49.5t-13 -61t-4.5 -49.5q0 -36 20 -56t56 -20q64 0 114.5 37.5t78.5 97.5t42.5 125t14.5 129q0 142 -65.5 248.5t-177 161.5t-252.5 55q-185 0 -333.5 -82.5t-232.5 -229t-84 -329.5q0 -250 159.5 -396.5 t412.5 -146.5q365 0 592 211l55 -61q-133 -125 -294 -178t-359 -53q-188 0 -335 74t-232 217t-85 333zM578 573q0 -105 53 -167t155 -62q50 0 106.5 20.5t96.5 53.5q3 12 23.5 103.5t31.5 140.5q5 27 19 87.5t20 92.5q-72 78 -188 78q-135 0 -226 -105t-91 -242z" />
<glyph unicode="A" horiz-adv-x="1298" d="M59 0l443 1317q21 59 55.5 92t91.5 33q61 0 93.5 -32.5t54.5 -92.5l442 -1317h-121l-194 594h-549l-197 -594h-119zM406 696h483l-195 586q-6 19 -10.5 29.5t-13 20t-19.5 9.5q-26 0 -45 -59z" />
<glyph unicode="B" horiz-adv-x="1271" d="M213 0v1163q0 112 63.5 184.5t169.5 90.5q34 6 99 6h73q51 0 109 -8q137 -19 222 -111.5t85 -232.5q0 -98 -50 -185t-142 -133q131 -43 203.5 -140.5t72.5 -236.5q0 -157 -92.5 -258.5t-243.5 -128.5q-55 -10 -139 -10h-430zM322 98h335q170 0 258.5 81t88.5 218 q0 146 -99 229t-276 83h-307v-611zM322 809h264q68 0 102 6q102 19 168 93t66 179q0 108 -60.5 174t-165.5 78q-54 7 -92 7h-84q-32 0 -63 -7q-63 -14 -99 -58t-36 -118v-354z" />
<glyph unicode="C" horiz-adv-x="1404" d="M139 719q0 211 81.5 376.5t236 261t358.5 95.5q297 0 496 -215l-74 -82q-183 195 -426 195q-169 0 -296.5 -83.5t-193 -225t-65.5 -320.5q0 -133 39.5 -248.5t111 -200.5t178 -133.5t234.5 -48.5q261 0 438 180l64 -88q-102 -99 -232 -147.5t-270 -48.5q-206 0 -361.5 94 t-237 259.5t-81.5 379.5z" />
<glyph unicode="D" horiz-adv-x="1441" d="M213 0v1165q0 101 54.5 171.5t148.5 95.5q56 16 131 16h82q133 0 245.5 -39t192.5 -107t136 -160.5t83 -200t27 -224.5q0 -148 -42 -276.5t-121.5 -227.5t-204.5 -156t-281 -57h-451zM324 100h315q60 0 106 4q210 25 331.5 189.5t121.5 423.5q0 97 -21 187t-66.5 171 t-110.5 141t-160 95t-209 35h-94q-97 0 -155 -45.5t-58 -141.5q0 -137 1 -319t1 -291q0 -46 -1 -193t-1 -256z" />
<glyph unicode="E" horiz-adv-x="1130" d="M213 0v1130q0 55 8 91q18 88 82 147.5t162 69.5q24 4 100 4h430v-103h-467q-46 0 -77 -8q-114 -29 -125 -160q-2 -23 -2 -53v-317h598v-105h-598v-596h710v-100h-821z" />
<glyph unicode="F" horiz-adv-x="1081" d="M213 0v1130q0 42 6 80q15 93 76 152t162 74q40 6 100 6h426v-105h-451q-35 0 -53 -2q-155 -16 -155 -188v-342h587v-105h-587v-700h-111z" />
<glyph unicode="G" horiz-adv-x="1507" d="M129 707q0 212 84 381.5t241 267.5t359 98q302 0 510 -188l-70 -88q-192 174 -438 174q-175 0 -306.5 -84t-199 -229t-67.5 -330q0 -186 65.5 -326t199.5 -221.5t322 -81.5q185 0 320 63q39 19 55.5 43t16.5 76v334h-334v109h448v-461q0 -73 -43.5 -124t-140.5 -87 q-136 -53 -322 -53q-168 0 -302 54.5t-220.5 152.5t-132 230t-45.5 290z" />
<glyph unicode="H" horiz-adv-x="1464" d="M215 0v1442h113v-633h809v633h112v-1442h-112v707h-809v-707h-113z" />
<glyph unicode="I" horiz-adv-x="563" d="M225 0v1442h113v-1442h-113z" />
<glyph unicode="J" horiz-adv-x="1024" d="M147 45v117q136 -72 275 -72q122 0 190.5 65t81.5 175q4 28 4 104v1008h113v-1034q0 -61 -4 -97q-19 -150 -122.5 -238.5t-268.5 -88.5q-158 0 -269 61z" />
<glyph unicode="K" horiz-adv-x="1271" d="M213 0v1442h111v-639h147q144 0 228.5 47.5t140.5 175.5l176 416h117q-158 -371 -193 -451q-74 -169 -199 -233q366 -574 482 -758h-131q-47 75 -172.5 273t-198.5 313q-44 70 -88.5 93t-128.5 23h-180v-702h-111z" />
<glyph unicode="L" horiz-adv-x="1095" d="M213 178v1264h109v-1258q0 -38 20 -61t59 -23h623v-100h-625q-83 0 -134.5 48.5t-51.5 129.5z" />
<glyph unicode="M" horiz-adv-x="1740" d="M213 0v1315q0 62 37 99.5t96 37.5q55 0 91.5 -30.5t62.5 -90.5l372 -856l369 856q56 121 158 121q61 0 95 -38.5t34 -102.5v-1311h-109v1311q0 41 -26 41q-27 0 -47 -52l-420 -960h-109l-420 960q-1 2 -4.5 8.5t-5 9.5t-5 8.5t-5.5 8t-5.5 7t-7 6t-7.5 3t-9 1.5 q-26 0 -26 -39v-1313h-109z" />
<glyph unicode="N" horiz-adv-x="1495" d="M213 0v1313q0 64 35.5 103.5t97.5 39.5q58 0 94.5 -32.5t71.5 -102.5q54 -108 129 -258.5t208.5 -419t256.5 -516.5q18 -37 41 -37q27 0 27 41v1311h108v-1311q0 -65 -35.5 -103t-95.5 -38q-53 0 -88 24.5t-62 77.5q-53 106 -195 392.5t-260 525t-134 268.5 q-21 40 -35 57t-29 17q-26 0 -26 -39v-1313h-109z" />
<glyph unicode="O" horiz-adv-x="1583" d="M141 719q0 155 40 287t118 234t205 160t291 58q156 0 281 -58t204.5 -159.5t121.5 -234.5t42 -287q0 -117 -26 -225.5t-80 -202.5t-130 -164t-181.5 -110t-229.5 -40q-162 0 -289 59t-206 161.5t-120 235t-41 286.5zM254 721q0 -133 32.5 -246.5t96.5 -202.5t170 -139.5 t244 -50.5q109 0 198 34t149.5 93.5t101.5 141t60 174t19 196.5q0 133 -33 246.5t-96.5 201t-166.5 137.5t-234 50q-110 0 -200.5 -33t-153 -91t-105 -138.5t-62.5 -173.5t-20 -199z" />
<glyph unicode="P" horiz-adv-x="1179" d="M213 0v1163q0 111 60 182.5t163 90.5q37 6 107 6h84q67 0 110 -6q158 -20 255.5 -133.5t97.5 -282.5q0 -176 -95 -290.5t-250 -151.5q-72 -17 -174 -17h-247v-561h-111zM324 659h243q89 0 133 9q126 24 202.5 116t76.5 234q0 123 -72 212.5t-186 106.5q-35 6 -94 6h-90 q-68 0 -95 -8q-118 -36 -118 -168v-508z" />
<glyph unicode="Q" horiz-adv-x="1570" d="M135 717q0 160 41.5 294.5t121.5 234.5t205 156t283 56q154 0 278.5 -57.5t204.5 -158.5t122.5 -235t42.5 -290q0 -157 -45 -294.5t-137.5 -244t-221.5 -158.5q34 -18 81.5 -51.5t80.5 -57t80 -42.5t92 -19h119v-102h-113q-72 0 -134.5 23.5t-109.5 57t-92.5 66.5 t-105 56.5t-127.5 23.5h-13q-157 0 -282 56.5t-205.5 157t-123 235t-42.5 293.5zM248 719q0 -137 33.5 -252.5t98.5 -203.5t169.5 -137.5t238.5 -49.5q131 0 234 50.5t167 139.5t97 204t33 249q0 133 -33.5 247.5t-98 202t-167.5 137.5t-234 50q-133 0 -237.5 -49t-169 -136 t-98 -201.5t-33.5 -250.5z" />
<glyph unicode="R" horiz-adv-x="1239" d="M213 0v1092q0 59 2 90q5 92 56 158.5t147 91.5q47 12 119 12h86q70 0 125 -10q149 -26 243 -125.5t94 -259.5q0 -151 -84 -250.5t-225 -139.5q27 -44 412 -659h-133q-128 203 -324 520q-44 71 -81 97t-101 26h-225v-643h-111zM324 743h305q151 0 245.5 77t94.5 227 q0 107 -60 181t-157 101q-47 12 -113 12h-121q-95 0 -144.5 -47.5t-49.5 -138.5v-412z" />
<glyph unicode="S" horiz-adv-x="1208" d="M115 209q35 26 96 63q56 -97 151 -137.5t240 -40.5q187 0 277 74t90 199q0 48 -12.5 88t-40.5 71.5t-58 55.5t-79 46.5t-89 37.5t-102 36q-102 34 -170 68t-125.5 82.5t-85 115t-27.5 154.5q0 149 107.5 238.5t322.5 89.5q65 0 117 -6.5t113.5 -26t113.5 -62t90 -106.5 q-52 -33 -94 -59q-55 90 -142.5 124t-203.5 34q-158 0 -233.5 -57.5t-75.5 -162.5q0 -55 13.5 -96t50 -82.5t106.5 -77t178 -69.5q81 -25 141 -49.5t119 -61t95.5 -79t59.5 -102.5t23 -134q0 -80 -26 -147t-81 -122t-153 -86.5t-231 -31.5q-105 0 -192.5 20t-164 70.5 t-118.5 128.5z" />
<glyph unicode="T" horiz-adv-x="1087" d="M51 1341v101h985v-101h-438v-1341h-111v1341h-436z" />
<glyph unicode="U" horiz-adv-x="1437" d="M213 481v961h111v-940q0 -102 12 -160q26 -122 127.5 -192t286.5 -70q78 0 186 19.5t168 43.5v1299h110v-1379q-268 -88 -469 -88q-205 0 -334.5 79t-174.5 222q-23 79 -23 205z" />
<glyph unicode="V" horiz-adv-x="1323" d="M63 1442h125l437 -1295q10 -30 21 -41.5t28 -11.5q31 0 47 53l420 1295h119l-435 -1317q-44 -137 -153 -137q-58 0 -95 33.5t-61 103.5z" />
<glyph unicode="W" horiz-adv-x="1896" d="M80 1442h113l292 -1295q8 -31 16.5 -43t24.5 -12q28 0 45 53l320 940h110l322 -935q10 -32 21 -45t26 -13t24 11t15 40l295 1299h113l-295 -1299q-18 -76 -54 -114.5t-98 -38.5t-95 35t-58 106l-271 791l-266 -787q-24 -72 -58.5 -108.5t-97.5 -36.5q-116 0 -145 129z " />
<glyph unicode="X" horiz-adv-x="1280" d="M84 0l438 674q34 52 34 85q0 31 -26 70l-397 613h133l379 -594l379 594h123l-389 -611q-27 -41 -26 -70q0 -31 30 -79l440 -682h-131l-428 664l-428 -664h-131z" />
<glyph unicode="Y" horiz-adv-x="1148" d="M43 1444h127l403 -711l406 711h127l-424 -733q-32 -55 -41.5 -82t-9.5 -82v-545h-113v545q0 38 -7 66t-14.5 42.5t-31.5 55.5z" />
<glyph unicode="Z" horiz-adv-x="1202" d="M104 98q0 49 54 125q169 231 363 499.5t303 421.5l110 152q11 15 5.5 29t-26.5 14h-712v103h745q121 0 121 -94q0 -55 -59 -138q-632 -873 -766 -1060q-15 -22 -10 -35t26 -13h836v-102h-865q-62 0 -93.5 27t-31.5 71z" />
<glyph unicode="[" horiz-adv-x="507" d="M127 -35v1526q0 81 48.5 126.5t125.5 45.5h102v-98h-110q-68 0 -68 -74v-1524q0 -78 78 -78h100v-96h-106q-80 0 -125 43t-45 129z" />
<glyph unicode="\" horiz-adv-x="868" d="M51 1450h113l606 -1452h-115z" />
<glyph unicode="]" horiz-adv-x="532" d="M135 -111h101q77 0 77 78v1524q0 74 -67 74h-111v98h113q77 0 120.5 -40.5t43.5 -121.5v-1530q0 -86 -45.5 -132t-124.5 -46h-107v96z" />
<glyph unicode="^" horiz-adv-x="2052" d="M104 496q1 151 68 269t183 182.5t261 64.5q166 0 280.5 -73.5t170.5 -201.5q2 -5 6 -14.5t13.5 -42t13 -66.5t6.5 -88.5t-8 -107.5h-725q7 -92 77 -158.5t197 -66.5q143 0 242 77l141 -161q-145 -132 -409 -132q-101 0 -191.5 31t-164.5 92t-117.5 163t-43.5 233z M385 616h444q-14 90 -69.5 140.5t-145.5 50.5q-88 0 -149 -52t-80 -139zM1337 0v979h265v-102h4q84 124 264 124q69 0 129 -24v-238q-66 27 -144 27q-253 0 -253 -299v-467h-265z" />
<glyph unicode="_" horiz-adv-x="1110" d="M139 -332h834v-63h-834v63z" />
<glyph unicode="`" horiz-adv-x="1808" d="M233 717v653q0 36 21.5 56t54.5 20q59 0 84 -60l178 -405q120 272 179 405q25 60 84 60q33 0 54 -20t21 -56v-653h-75v645q0 8 -7 8q-4 0 -10 -12l-213 -473h-69q-141 317 -213 477q-4 8 -9 8q-6 0 -6 -8v-645h-74zM1042 1077q0 163 102 269t265 106q172 0 281 -121 l-56 -51q-94 100 -223 100q-130 0 -210.5 -85t-80.5 -216q0 -133 80 -219t211 -86q145 0 244 96q7 -10 20.5 -29.5t20.5 -29.5q-115 -106 -285 -106q-164 0 -266.5 104.5t-102.5 267.5z" />
<glyph unicode="a" horiz-adv-x="1255" d="M131 477q0 106 33 199.5t94 164.5t155.5 112.5t209.5 41.5q226 0 342 -139v119h102v-975h-92q-3 47 -41 47q-17 0 -53 -12q-142 -49 -260 -49q-224 0 -357 134t-133 357zM240 477q0 -180 102 -289.5t289 -109.5q85 0 174 26.5t156 63.5v397q0 29 -5 64 q-12 129 -104.5 201.5t-228.5 72.5q-126 0 -214 -58t-128.5 -152.5t-40.5 -215.5z" />
<glyph unicode="b" horiz-adv-x="1251" d="M188 0v1450h103v-653q65 98 163.5 146t213.5 48q210 0 333 -135.5t123 -355.5q0 -141 -53.5 -255.5t-164.5 -185.5t-263 -71q-52 0 -96.5 6.5t-71 14.5t-82.5 26q-42 14 -63 14q-43 0 -43 -49h-99zM293 178q190 -96 348 -96q124 0 210 57t125.5 149.5t39.5 211.5 q0 81 -21.5 151t-63.5 125.5t-111 87t-158 31.5q-161 0 -265 -111t-104 -288v-318z" />
<glyph unicode="c" horiz-adv-x="1093" d="M133 494q0 216 137 360.5t351 144.5q129 0 220 -39t169 -120l-76 -68q-132 135 -316 135q-168 0 -272 -117.5t-104 -285.5q0 -196 105.5 -310t285.5 -114q178 0 330 129l57 -76q-168 -145 -399 -145q-226 0 -357 141t-131 365z" />
<glyph unicode="d" horiz-adv-x="1259" d="M131 489q0 217 134.5 360.5t350.5 143.5q224 0 353 -147v606h102v-1452h-102v12q0 45 -35 45q-13 0 -49 -12q-154 -57 -277 -57q-226 0 -351.5 139t-125.5 362zM242 492q0 -86 23 -160t67.5 -131t117.5 -90t166 -33q168 0 347 106v398q0 138 -96 228.5t-244 90.5 q-177 0 -279 -116t-102 -293z" />
<glyph unicode="e" horiz-adv-x="1179" d="M133 494q0 220 132 361.5t337 141.5q193 0 312 -120t133 -318q6 -54 6 -80h-811q5 -184 108 -292.5t285 -108.5q181 0 336 110l47 -79q-174 -123 -391 -123q-230 0 -362 139.5t-132 368.5zM244 569h694q-19 158 -104.5 248t-231.5 90t-241.5 -92.5t-116.5 -245.5z" />
<glyph unicode="f" horiz-adv-x="757" d="M195 0v1069q0 163 83.5 262t241.5 99q130 0 238 -68l-35 -88q-105 61 -199 61q-115 0 -169 -70t-54 -194v-135h367v-98h-367v-838h-106z" />
<glyph unicode="g" d="M131 492q0 103 33.5 194t95.5 160t157 109t210 40q162 0 268 -68.5t145 -187.5q19 -62 19 -141v-606v-17q0 -221 -121 -348t-344 -127q-185 0 -309 62q4 16 11 46.5t11 45.5q134 -62 285 -62q180 0 271 102.5t91 280.5v25q0 51 -39 51q-18 0 -41 -10q-130 -53 -266 -53 q-229 0 -353 139t-124 365zM242 492q0 -86 21.5 -158.5t64.5 -130.5t117 -90.5t171 -32.5q158 0 336 96v416q0 39 -2 55q-15 120 -105 188t-224 68q-173 0 -276 -116.5t-103 -294.5z" />
<glyph unicode="h" horiz-adv-x="1171" d="M188 0v1450h109v-614q119 157 334 157q186 0 284.5 -105t98.5 -294v-594h-111v588q0 145 -67.5 227t-210.5 82t-235.5 -94t-92.5 -246v-557h-109z" />
<glyph unicode="i" horiz-adv-x="526" d="M182 1270q0 82 82 82t82 -82q0 -86 -82 -86t-82 86zM211 0v975h106v-975h-106z" />
<glyph unicode="j" horiz-adv-x="524" d="M-113 -481l9 100q33 -3 63 -3q50 0 91 10q63 15 95 41t50 72.5t21 79t3 81.5v1075h107v-1086q0 -67 -12.5 -123.5t-43.5 -107.5t-79.5 -84t-126.5 -48q-49 -10 -107 -10q-33 0 -70 3zM188 1270q0 82 82 82q84 0 84 -82q0 -86 -84 -86q-82 0 -82 86z" />
<glyph unicode="k" horiz-adv-x="1097" d="M188 0v1448h109v-873h102q45 0 72 1t61.5 6t56.5 14t48.5 25.5t46.5 40.5t41.5 59t42.5 82l78 172h117l-107 -234q-69 -152 -170 -211q57 -88 170 -265t170 -265h-131q-160 250 -240 377q-39 63 -70 83.5t-93 20.5h-195v-481h-109z" />
<glyph unicode="l" horiz-adv-x="483" d="M188 0v1448h109v-1448h-109z" />
<glyph unicode="m" horiz-adv-x="1785" d="M188 0v864q196 127 396 127q239 0 329 -141q55 63 147 102t204 39q170 0 266 -85.5t96 -266.5v-639h-108v604q0 146 -60.5 219.5t-204.5 73.5q-126 0 -209 -63.5t-83 -155.5v-678h-109v643q0 128 -69 190t-208 62q-75 0 -149.5 -23.5t-130.5 -58.5v-813h-107z" />
<glyph unicode="n" horiz-adv-x="1183" d="M188 0v864q84 59 194.5 95t215.5 36q424 0 424 -379v-616h-109v600q0 152 -79 226.5t-240 74.5q-79 0 -162.5 -26t-138.5 -60v-815h-105z" />
<glyph unicode="o" d="M127 492q0 141 62 257t175 184t254 68q219 0 357.5 -144.5t138.5 -364.5t-140.5 -365t-355.5 -145q-213 0 -352 146.5t-139 363.5zM236 494q0 -116 45 -211t133 -152t204 -57q170 0 279 119t109 301q0 172 -111 293.5t-277 121.5q-115 0 -203 -56t-133.5 -150t-45.5 -209 z" />
<glyph unicode="p" horiz-adv-x="1222" d="M162 -418v971q0 195 122 316.5t337 121.5q216 0 346.5 -131t130.5 -362q0 -102 -30 -191.5t-88.5 -162t-156.5 -114.5t-223 -42q-71 0 -127.5 11t-132.5 36q-24 8 -37 8q-35 0 -35 -41v-127v-293h-106zM268 172q170 -90 338 -90q187 0 283 115.5t96 298.5 q0 174 -96 285.5t-271 111.5q-114 0 -193.5 -44t-117.5 -128q-39 -71 -39 -182v-367z" />
<glyph unicode="q" d="M133 485q0 143 62.5 258.5t176 182.5t257.5 67q198 -2 318 -106t120 -297v-854q0 -68 68 -68h45v-90h-56q-80 0 -121.5 42t-41.5 124v254q0 34 -20.5 42t-57.5 -5q-142 -49 -271 -49q-222 0 -350.5 136t-128.5 363zM242 492q0 -86 22.5 -158.5t67 -129.5t118 -89.5 t168.5 -32.5q88 0 165.5 20.5t174.5 61.5v418q0 151 -87.5 233t-243.5 82q-177 0 -281 -115.5t-104 -289.5z" />
<glyph unicode="r" horiz-adv-x="841" d="M186 0v768q0 68 43.5 119t120.5 78q88 32 195 32q210 0 293 -106q-14 -12 -40.5 -33.5t-39.5 -32.5q-65 76 -211 76q-95 0 -162 -29q-54 -22 -72 -54.5t-18 -90.5v-727h-109z" />
<glyph unicode="s" horiz-adv-x="976" d="M96 143l86 56q41 -69 111.5 -99t185.5 -30q287 0 287 161q0 84 -70 134.5t-198 85.5q-187 53 -273 119.5t-86 181.5q0 118 90.5 180.5t255.5 62.5q54 0 96 -4.5t93 -18t92.5 -45.5t69.5 -81l-86 -47q-68 108 -271 108q-41 0 -78 -6.5t-74 -21t-59 -45t-22 -72.5 q0 -71 56.5 -117.5t221.5 -93.5q60 -16 107 -33.5t93 -43.5t76.5 -57.5t49 -75.5t18.5 -97q0 -58 -18.5 -103t-61 -82.5t-122.5 -58t-193 -20.5q-132 0 -232 39t-145 124z" />
<glyph unicode="t" horiz-adv-x="747" d="M186 291v950h109v-266h334v-103h-334v-565q0 -221 205 -221q74 0 202 39v-94q-88 -39 -219 -39q-139 0 -218 78.5t-79 220.5z" />
<glyph unicode="u" horiz-adv-x="1183" d="M174 360v613h105v-604q0 -291 348 -291q152 0 258 37v858h106v-932q-184 -59 -370 -59q-219 0 -333 95.5t-114 282.5z" />
<glyph unicode="v" horiz-adv-x="1095" d="M68 975h120l304 -795q28 -70 42 -83q11 -11 25 -11q17 0 29.5 14.5t19 28.5t19.5 51l291 795h114l-307 -823q-29 -78 -67 -122t-101 -44t-99.5 42t-68.5 126z" />
<glyph unicode="w" horiz-adv-x="1669" d="M78 975h112l259 -838q6 -19 10.5 -29t12.5 -17t20 -7q17 0 26.5 12t18.5 43l254 836h102l242 -834q9 -29 18.5 -43t28.5 -14q13 0 22 9t12.5 18.5t10.5 29.5l256 834h108l-268 -862q-22 -63 -56 -95t-91 -32q-106 0 -146 137l-190 665l-201 -665q-41 -137 -147 -137 q-108 0 -148 131z" />
<glyph unicode="x" horiz-adv-x="1142" d="M111 0l321 438q39 53 39 83q0 29 -33 73l-286 381h129l282 -379l283 379h125l-285 -381q-31 -42 -30 -71q0 -30 38 -85l322 -438h-129l-326 442l-323 -442h-127z" />
<glyph unicode="y" horiz-adv-x="1247" d="M184 387v588h109v-582q0 -67 17 -121.5t53 -99t100 -69.5t151 -25q165 0 316 74v823h106v-961q0 -238 -117 -375t-341 -137q-165 0 -287 64l24 92q128 -61 260 -61q175 0 265 109t90 290v53q-142 -65 -322 -65q-199 0 -311.5 104t-112.5 299z" />
<glyph unicode="z" horiz-adv-x="972" d="M129 80q0 51 61 127q21 26 134.5 172t233.5 300t132 169q10 14 5.5 21.5t-21.5 7.5h-488v98h525q110 0 110 -80q0 -48 -53 -117q-346 -447 -504 -647q-12 -15 -12 -25q0 -8 10 -8h582v-98h-619q-42 0 -69 21.5t-27 58.5z" />
<glyph unicode="{" horiz-adv-x="741" d="M115 678v92q98 -3 159.5 54t61.5 151v389q0 140 92.5 226t235.5 83v-96q-104 3 -163 -50t-59 -155v-395q0 -83 -38 -151t-107 -101q70 -36 107.5 -103t37.5 -151v-393q0 -101 59 -155t163 -52v-98q-141 -2 -235 86t-93 225v387q0 94 -61.5 152t-159.5 55z" />
<glyph unicode="|" horiz-adv-x="473" d="M184 -117v1766h103v-1766h-103z" />
<glyph unicode="}" horiz-adv-x="788" d="M127 -127q106 0 163.5 51.5t57.5 155.5v399q0 178 139 246q-139 77 -139 246v401q0 101 -59 155t-162 52v96q145 3 236.5 -79t91.5 -224v-395q0 -96 58 -152.5t163 -56.5v-88q-221 0 -221 -205v-399q0 -139 -92.5 -222.5t-235.5 -80.5v100z" />
<glyph unicode="~" horiz-adv-x="1808" d="M231 717v651q0 34 20.5 56t55.5 22q59 0 84 -60q29 -66 89.5 -200t90.5 -201q30 66 89 200t88 201q25 60 83 60q33 0 54.5 -21.5t21.5 -54.5v-653h-73v643q0 10 -7 10q-5 0 -12 -14l-213 -473h-65q-36 79 -106.5 237.5t-106.5 237.5q-6 12 -11 12q-6 0 -6 -10v-643h-76z M1094 811v485q0 65 44.5 106.5t114.5 41.5h105q155 0 243.5 -106t88.5 -263q0 -153 -86 -255.5t-242 -102.5h-166q-102 0 -102 94zM1169 811q0 -11 8 -19t21 -8h160q124 0 188 82.5t64 208.5q0 129 -65.5 215t-188.5 86h-96q-39 0 -65 -21t-26 -55v-489z" />
<glyph unicode="&#xa1;" horiz-adv-x="456" d="M143 1300q0 43 21.5 67t62.5 24q42 0 65 -24.5t23 -66.5q0 -40 -23.5 -63t-64.5 -23q-40 0 -62 22.5t-22 63.5zM176 -90v1126h105v-1126h-105z" />
<glyph unicode="&#xa2;" horiz-adv-x="1036" d="M94 492q0 198 114.5 336t301.5 161v119h100v-115q113 -4 197.5 -44.5t159.5 -117.5l-74 -69q-118 124 -283 135v-813q175 9 314 127l55 -76q-166 -140 -369 -149v-131h-100v135q-195 21 -305.5 158t-110.5 344zM203 502q0 -173 81.5 -281t225.5 -131v803 q-140 -23 -223.5 -133t-83.5 -258z" />
<glyph unicode="&#xa3;" horiz-adv-x="958" d="M168 0q2 335 2 629q0 29 -1 191.5t-1 174.5q0 184 103.5 293t285.5 109q130 0 222.5 -63.5t138.5 -180.5q-15 -8 -45 -25.5t-46 -25.5q-69 196 -270 196q-128 0 -204.5 -79.5t-76.5 -210.5v-11q3 -102 3 -254h378v-96h-381v-551h672v-96h-780z" />
<glyph unicode="&#xa4;" horiz-adv-x="851" d="M139 936l45 45l95 -92q66 51 155 51q87 0 148 -47l82 84l45 -47l-82 -84q47 -62 47 -148q0 -93 -51 -153l92 -94l-45 -48l-95 97q-61 -43 -141 -43q-84 0 -149 47l-92 -94l-48 49l95 94q-47 56 -47 145q0 83 43 144zM266 700q0 -87 43 -127q41 -49 125 -49q82 0 123 49 q43 40 43 127q0 82 -45 127q-39 47 -121 47q-86 0 -125 -47q-43 -40 -43 -127z" />
<glyph unicode="&#xa5;" horiz-adv-x="1173" d="M100 1438h117l336 -662q17 -33 33 -33q18 0 35 33l340 662h110l-350 -697h305v-98h-383v-246h383v-102h-383v-295h-113v295h-383v102h383v246h-383v98h306z" />
<glyph unicode="&#xa6;" horiz-adv-x="350" d="M139 -145v610h74v-610h-74zM139 664v618h74v-618h-74z" />
<glyph unicode="&#xa7;" horiz-adv-x="944" d="M100 6q15 8 43.5 25.5t44.5 25.5q41 -56 108.5 -77t166.5 -21q55 0 102 6q76 11 119 50t43 102q0 31 -14 57t-43 49t-53 37t-64 35q-8 4 -41.5 19.5t-52.5 23.5q-115 48 -189 96q-127 84 -127 228q0 100 80 167q-84 69 -84 172q0 118 86.5 175t231.5 57h18q45 0 70 -2 q180 -8 252 -127q-14 -8 -41.5 -24.5t-42.5 -24.5q-60 88 -228 88h-45q-84 0 -142 -31.5t-58 -105.5q0 -63 69 -115q85 -60 217 -115q36 -14 88 -39q197 -94 197 -262q0 -101 -76 -174q73 -63 84 -145q4 -28 4 -45q0 -19 -2 -29q-11 -104 -99.5 -159.5t-246.5 -55.5 q-36 0 -106 4q-196 14 -269 135zM246 659q0 -86 92 -147q38 -26 139 -70q146 -67 180 -86q52 55 52 115q0 66 -50 113t-141 84q-142 66 -213 104q-59 -36 -59 -113z" />
<glyph unicode="&#xa8;" horiz-adv-x="667" d="M139 1010q0 71 68 71q74 0 74 -71q0 -74 -74 -74q-68 0 -68 74zM387 1010q0 71 72 71q71 0 71 -71q0 -74 -71 -74q-72 0 -72 74z" />
<glyph unicode="&#xa9;" horiz-adv-x="1366" d="M150 903q0 241 146 392t388 151q241 0 388 -151t147 -392q0 -240 -147 -390.5t-388 -150.5q-242 0 -388 150.5t-146 390.5zM227 903q0 -209 123.5 -336t333.5 -127q209 0 332 127t123 336q0 211 -123 339t-332 128q-210 0 -333.5 -128t-123.5 -339zM371 907q0 148 89 248 t238 100q147 0 248 -116l-57 -54q-83 95 -193 95q-115 0 -180 -77t-65 -194q0 -118 65.5 -195t181.5 -77q118 0 203 88l47 -57q-105 -105 -250 -105q-150 0 -238.5 97.5t-88.5 246.5z" />
<glyph unicode="&#xaa;" horiz-adv-x="886" d="M143 885q0 130 82.5 218.5t225.5 88.5q139 0 213 -84v70h63v-574h-57q0 31 -31 31q-14 0 -35 -8q-84 -31 -158 -31q-138 0 -220.5 79t-82.5 210zM211 885q0 -104 64.5 -168t181.5 -64q52 0 108.5 18t96.5 44v213q0 18 -5 43q-15 76 -69.5 120t-136.5 44 q-117 0 -178.5 -70t-61.5 -180z" />
<glyph unicode="&#xab;" horiz-adv-x="925" d="M104 563l293 381h119l-291 -381l291 -381h-119zM414 563l293 381h120l-290 -381l290 -381h-120z" />
<glyph unicode="&#xac;" horiz-adv-x="1150" d="M133 651v97h885v-97h-885z" />
<glyph unicode="&#xad;" horiz-adv-x="989" d="M170 475v94h651v-94h-651z" />
<glyph unicode="&#xae;" horiz-adv-x="1368" d="M150 903q0 241 146 392t388 151t388.5 -151t146.5 -392q0 -240 -146.5 -390.5t-388.5 -150.5q-241 0 -387.5 150.5t-146.5 390.5zM227 903q0 -209 124 -336t333 -127t333 127t124 336q0 211 -124 339t-333 128t-333 -128t-124 -339zM477 584v536q0 62 46.5 101t109.5 39 h59q93 0 155 -51.5t62 -143.5q0 -69 -36.5 -117t-100.5 -69l182 -295h-88q-7 11 -61 99.5t-84 135.5q-13 21 -21 30t-21.5 15t-33.5 6h-90v-286h-78zM555 940h133q143 0 143 125q0 58 -39 91.5t-98 33.5h-59q-37 0 -58.5 -18.5t-21.5 -53.5v-178z" />
<glyph unicode="&#xaf;" horiz-adv-x="747" d="M133 1114v92h483v-92h-483z" />
<glyph unicode="&#xb0;" horiz-adv-x="694" d="M121 1094q0 97 64.5 161t162.5 64q97 0 162 -65t65 -160q0 -97 -65.5 -160.5t-163.5 -63.5t-161.5 63t-63.5 161zM193 1094q0 -63 45.5 -108.5t109.5 -45.5q65 0 110.5 45t45.5 109q0 66 -45 109.5t-111 43.5t-110.5 -44t-44.5 -109z" />
<glyph unicode="&#xb1;" horiz-adv-x="1013" d="M109 242v94h792v-94h-792zM113 764v92h348v361h90v-361h354v-92h-354v-358h-90v358h-348z" />
<glyph unicode="&#xb2;" horiz-adv-x="835" d="M162 1217q53 192 262 192q107 0 173.5 -52.5t66.5 -160.5q0 -53 -29.5 -102.5t-73.5 -86t-96 -78t-96 -78.5t-73.5 -87.5t-29.5 -104.5v-28h393v-90h-489v108q0 59 21.5 112t56.5 92.5t76.5 75t83.5 66.5t77 61t56.5 65.5t21.5 72.5q0 125 -141 125q-68 0 -111 -30.5 t-63 -100.5z" />
<glyph unicode="&#xb3;" horiz-adv-x="903" d="M162 770q18 4 49.5 13.5t46.5 13.5q19 -97 68.5 -138t130.5 -41t129.5 49t48.5 134q0 82 -53 130t-142 48h-61v88h53q66 0 104.5 41.5t38.5 101.5q0 55 -33.5 87t-88.5 32q-58 0 -92 -29.5t-56 -99.5q-17 5 -45.5 15.5t-44.5 15.5q62 190 242 190q95 0 159 -54t64 -155 q0 -49 -23.5 -95t-68.5 -79q71 -32 111 -92t40 -141q0 -130 -82 -205.5t-200 -75.5q-110 0 -187 59.5t-108 186.5z" />
<glyph unicode="&#xb4;" horiz-adv-x="557" d="M129 922l178 245h123l-221 -245h-80z" />
<glyph unicode="&#xb5;" horiz-adv-x="1069" d="M139 -369v1160h70v-3h2v-469q0 -118 65 -192q71 -80 185 -80q116 0 184 80q66 72 66 192v469h73v-446q0 -157 -82 -254q-37 -45 -110 -80q-43 -16 -33 -65q8 -41 72 -64t143 -26v-54q-65 0 -128.5 16t-110 51t-46.5 81q0 24 5 39h-33q-168 0 -252 118v-473h-70z" />
<glyph unicode="&#xb6;" horiz-adv-x="968" d="M137 934q0 137 86.5 223t220.5 86h174q84 0 129.5 -46t45.5 -124v-1179h-95v1181q0 76 -71 76h-45v-1257h-95v737q-39 0 -79 6q-123 20 -197 94t-74 203z" />
<glyph unicode="&#xb7;" horiz-adv-x="419" d="M119 602q0 80 82 80q78 0 78 -80q0 -82 -78 -82q-82 0 -82 82z" />
<glyph unicode="&#xb8;" horiz-adv-x="724" d="M158 -324l24 68q88 -53 170 -53q53 0 81 22t28 58q0 77 -90 77q-45 0 -88 -12l39 230h71q-10 -62 -18 -109q-6 -34 33 -37q67 -3 105 -40t38 -99q0 -78 -53.5 -120t-137.5 -42h-6q-111 4 -196 57z" />
<glyph unicode="&#xb9;" horiz-adv-x="518" d="M152 1188v98q14 10 43.5 30t44.5 30q32 22 59 22q47 0 47 -68v-763h-92v718q-18 -12 -51 -33.5t-51 -33.5z" />
<glyph unicode="&#xba;" horiz-adv-x="755" d="M82 893q0 131 82.5 214t212.5 83q136 0 216.5 -81t80.5 -216q0 -134 -82 -216.5t-215 -82.5q-130 0 -212.5 84t-82.5 215zM150 895q0 -103 62.5 -171.5t164.5 -68.5q103 0 166 68t63 172t-63 172t-166 68q-100 0 -163.5 -69.5t-63.5 -170.5z" />
<glyph unicode="&#xbb;" horiz-adv-x="925" d="M96 182l291 381l-291 381h121l293 -381l-293 -381h-121zM410 182l290 381l-290 381h114l295 -381l-295 -381h-114z" />
<glyph unicode="&#xbc;" horiz-adv-x="1665" d="M168 1188v98q14 10 44 30t44 30q32 22 59 22q47 0 47 -68v-763h-92v718q-18 -12 -51 -33.5t-51 -33.5zM217 -25q158 242 473.5 724t472.5 724h84q-157 -241 -471.5 -724t-472.5 -724h-86zM901 299q0 34 27 68q61 84 182.5 251.5t181.5 251.5h88v-551h80v-88h-80v-231h-98 v231h-301q-80 0 -80 68zM1006 319h276v386q-46 -65 -138 -193t-138 -193z" />
<glyph unicode="&#xbd;" horiz-adv-x="1677" d="M170 1186v100l82 55q40 31 76.5 22t36.5 -60v-766h-93v716zM219 -25l944 1448h86l-944 -1448h-86zM1010 676q53 192 262 192q107 0 173 -52.5t66 -160.5q0 -46 -22 -88.5t-57 -76.5t-77.5 -67.5t-84.5 -67t-77 -68t-57 -78t-22 -90.5v-29h393v-90h-489v109q0 59 21.5 112 t56.5 92t77 74.5t83.5 66.5t76.5 61.5t56.5 65.5t21.5 72q0 125 -141 125q-68 0 -111 -30.5t-63 -100.5z" />
<glyph unicode="&#xbe;" horiz-adv-x="1732" d="M162 770q18 4 49.5 13.5t46.5 13.5q19 -97 68.5 -138t130.5 -41q80 0 129 50.5t49 136.5q0 81 -52.5 127.5t-142.5 46.5h-61v88h53q66 0 104.5 41.5t38.5 101.5q0 55 -33.5 87t-88.5 32q-58 0 -92 -29.5t-56 -99.5q-17 5 -45.5 15.5t-44.5 15.5q62 190 240 190 q94 0 159.5 -57t65.5 -156q0 -102 -92 -170q70 -31 110.5 -92t40.5 -143q0 -126 -82.5 -202.5t-199.5 -76.5q-110 0 -187 59.5t-108 186.5zM410 -25l942 1448h86l-946 -1448h-82zM983 299q0 34 27 68q61 84 182.5 251.5t181.5 251.5h88v-551h80v-88h-80v-231h-98v231h-301 q-80 0 -80 68zM1087 319h277v386q-46 -65 -138.5 -193t-138.5 -193z" />
<glyph unicode="&#xbf;" horiz-adv-x="933" d="M100 264q0 60 19 114t48.5 96.5t66 83t73 81.5t66 84.5t48.5 100.5t19 120v127h109v-123q0 -46 -6.5 -87t-21.5 -78t-28.5 -64.5t-40 -62.5t-42.5 -54t-49.5 -56t-47.5 -54q-50 -58 -77 -111.5t-27 -118.5q0 -95 62.5 -151t189.5 -56q216 0 293 148q15 -7 46.5 -21.5 t47.5 -21.5q-53 -110 -157 -158.5t-232 -48.5q-173 0 -266 84t-93 227zM408 1333q0 39 23.5 63.5t62.5 24.5q41 0 65.5 -24.5t24.5 -63.5q0 -41 -25 -65.5t-65 -24.5q-38 0 -62 25t-24 65z" />
<glyph unicode="&#xc0;" horiz-adv-x="1298" d="M59 0l443 1317q21 59 55.5 92t91.5 33q61 0 93.5 -32.5t54.5 -92.5l442 -1317h-121l-194 594h-549l-197 -594h-119zM406 696h483l-195 586q-6 19 -10.5 29.5t-13 20t-19.5 9.5q-26 0 -45 -59zM408 1864h145l219 -301h-88z" />
<glyph unicode="&#xc1;" horiz-adv-x="1298" d="M59 0l443 1317q21 59 55.5 92t91.5 33q61 0 93.5 -32.5t54.5 -92.5l442 -1317h-121l-194 594h-549l-197 -594h-119zM406 696h483l-195 586q-6 19 -10.5 29.5t-13 20t-19.5 9.5q-12 0 -21 -9.5t-12.5 -18t-11.5 -31.5zM498 1561l219 303h145l-278 -303h-86z" />
<glyph unicode="&#xc2;" horiz-adv-x="1298" d="M59 0l443 1317q21 59 55.5 92t91.5 33q61 0 93.5 -32.5t54.5 -92.5l442 -1317h-121l-194 594h-549l-197 -594h-119zM369 1561l196 258q40 51 89.5 50t90.5 -54l195 -254h-92l-197 215l-194 -215h-88zM406 696h483l-195 586q-6 19 -10.5 29.5t-13 20t-19.5 9.5 q-12 0 -21 -9.5t-12.5 -18t-11.5 -31.5z" />
<glyph unicode="&#xc3;" horiz-adv-x="1298" d="M59 0l443 1317q21 59 55.5 92t91.5 33q61 0 93.5 -32.5t54.5 -92.5l442 -1317h-121l-194 594h-549l-197 -594h-119zM328 1593q68 131 192 131q49 0 96.5 -21.5t90 -43t77.5 -21.5q81 0 138 91l65 -41q-45 -68 -92.5 -98.5t-112.5 -30.5q-46 0 -94 21.5t-90.5 43 t-75.5 21.5q-44 0 -72.5 -20.5t-56.5 -70.5q-10 6 -21.5 13t-24.5 14.5t-19 11.5zM406 696h483l-195 586q-6 19 -10.5 29.5t-13 20t-19.5 9.5q-12 0 -21 -9.5t-12.5 -18t-11.5 -31.5z" />
<glyph unicode="&#xc4;" horiz-adv-x="1298" d="M59 0l443 1317q21 59 55.5 92t91.5 33q61 0 93.5 -32.5t54.5 -92.5l442 -1317h-121l-194 594h-549l-197 -594h-119zM406 696h483l-195 586q-6 19 -10.5 29.5t-13 20t-19.5 9.5q-26 0 -45 -59zM406 1653q0 82 81 82q84 0 84 -82q0 -86 -84 -86q-81 0 -81 86zM729 1653 q0 82 82 82q84 0 84 -82q0 -86 -84 -86q-40 0 -61 22.5t-21 63.5z" />
<glyph unicode="&#xc5;" horiz-adv-x="1298" d="M59 0l443 1317q21 59 55.5 92t91.5 33q61 0 93.5 -32.5t54.5 -92.5l442 -1317h-121l-194 594h-549l-197 -594h-119zM406 696h483l-195 586q-6 19 -10.5 29.5t-13 20t-19.5 9.5q-26 0 -45 -59zM461 1747q0 86 52 138t138 52q88 0 140.5 -50.5t52.5 -139.5 q0 -86 -53.5 -139.5t-139.5 -53.5t-138 54t-52 139zM539 1747q0 -54 30 -84.5t84 -30.5t84.5 31t30.5 84q0 50 -33 84.5t-82 34.5t-81.5 -34t-32.5 -85z" />
<glyph unicode="&#xc6;" horiz-adv-x="1900" d="M37 0q137 214 412.5 643t412.5 643q28 43 44.5 65.5t42.5 46t56.5 33t71.5 9.5h729v-103h-704v-565h622v-96h-622v-498q0 -76 74 -76h630v-102h-632q-88 0 -135.5 47.5t-47.5 128.5v496h-399q-78 -124 -224 -352t-204 -320h-127zM657 772h334v522q-14 -21 -51 -79 t-117.5 -184t-165.5 -259z" />
<glyph unicode="&#xc7;" horiz-adv-x="1452" d="M178 715q0 212 82 378.5t236.5 262.5t357.5 96q281 0 496 -221q-50 -54 -76 -80q-183 195 -424 195q-127 0 -232 -48t-175.5 -132t-109 -199t-38.5 -248q0 -180 67 -322t196 -225.5t300 -83.5q257 0 438 184q11 -16 33 -47.5t33 -46.5q-201 -189 -485 -196q-1 -3 -4 -21 t-5 -29v-6q0 -24 31 -24q63 0 100 -34t37 -97q0 -79 -54.5 -120.5t-139.5 -41.5q-105 0 -195 51q4 14 14 37t13 33q75 -47 168 -47q51 1 76.5 22t25.5 55q0 33 -22 52.5t-62 19.5q-55 0 -92 -12q1 5 13 68t18 96q-284 20 -452.5 221.5t-168.5 509.5z" />
<glyph unicode="&#xc8;" horiz-adv-x="1130" d="M213 0v1130q0 55 8 91q18 88 82 147.5t162 69.5q24 4 100 4h430v-103h-467q-46 0 -77 -8q-114 -29 -125 -160q-2 -23 -2 -53v-317h598v-105h-598v-596h710v-100h-821zM424 1864h147q36 -50 108.5 -151.5t108.5 -151.5h-88q-46 50 -138 151.5t-138 151.5z" />
<glyph unicode="&#xc9;" horiz-adv-x="1130" d="M213 0v1130q0 55 8 91q18 88 82 147.5t162 69.5q24 4 100 4h430v-103h-467q-46 0 -77 -8q-114 -29 -125 -160q-2 -23 -2 -53v-317h598v-105h-598v-596h710v-100h-821zM502 1563q36 50 108.5 151.5t108.5 151.5h147q-46 -50 -139 -151.5t-139 -151.5h-86z" />
<glyph unicode="&#xca;" horiz-adv-x="1130" d="M213 0v1130q0 55 8 91q18 88 82 147.5t162 69.5q24 4 100 4h430v-103h-467q-46 0 -77 -8q-114 -29 -125 -160q-2 -23 -2 -53v-317h598v-105h-598v-596h710v-100h-821zM344 1561l197 258q40 51 89.5 50t90.5 -54l194 -254h-92l-196 215l-195 -215h-88z" />
<glyph unicode="&#xcb;" horiz-adv-x="1130" d="M213 0v1130q0 55 8 91q18 88 82 147.5t162 69.5q24 4 100 4h430v-103h-467q-46 0 -77 -8q-114 -29 -125 -160q-2 -23 -2 -53v-317h598v-105h-598v-596h710v-100h-821zM393 1653q0 82 82 82q84 0 84 -82q0 -86 -84 -86q-40 0 -61 22.5t-21 63.5zM717 1653q0 82 82 82 q84 0 84 -82q0 -86 -84 -86q-40 0 -61 22.5t-21 63.5z" />
<glyph unicode="&#xcc;" horiz-adv-x="532" d="M98 1864h146l219 -301h-86zM209 0v1442h115v-1442h-115z" />
<glyph unicode="&#xcd;" horiz-adv-x="534" d="M113 1561l219 303h147l-278 -303h-88zM211 0v1442h113v-1442h-113z" />
<glyph unicode="&#xce;" horiz-adv-x="532" d="M-18 1561l196 258q40 51 89.5 50t90.5 -54l195 -254h-90l-197 215l-196 -215h-88zM209 0v1442h115v-1442h-115z" />
<glyph unicode="&#xcf;" horiz-adv-x="532" d="M23 1653q0 82 81 82q82 0 82 -82q0 -86 -82 -86q-81 0 -81 86zM211 0v1442h113v-1442h-113zM346 1653q0 82 82 82t82 -82q0 -86 -82 -86t-82 86z" />
<glyph unicode="&#xd0;" horiz-adv-x="1441" d="M47 668v98h166v399q0 101 54.5 171.5t148.5 95.5q56 16 131 16h82q133 0 245.5 -39t192.5 -107t136 -160.5t83 -200t27 -224.5q0 -148 -42 -276.5t-121.5 -227.5t-204.5 -156t-281 -57h-451v668h-166zM324 100h315q60 0 106 4q210 25 331.5 189.5t121.5 423.5 q0 97 -21 187t-66.5 171t-110.5 141t-160 95t-209 35h-94q-97 0 -155 -45.5t-58 -141.5v-393h307v-98h-307v-568z" />
<glyph unicode="&#xd1;" horiz-adv-x="1497" d="M213 0v1313q0 64 34.5 102.5t96.5 38.5q57 0 96 -33.5t72 -99.5q21 -41 143.5 -287.5t269.5 -542.5t181 -364q19 -37 41 -37q27 0 27 41v1311h110v-1311q0 -64 -36.5 -102.5t-96.5 -38.5q-96 0 -143 90q-52 104 -196.5 395t-264 531.5t-135.5 271.5q-22 45 -34.5 59.5 t-29.5 14.5q-24 0 -24 -39v-1313h-111zM424 1593q68 131 192 131q49 0 97 -21.5t90.5 -43t77.5 -21.5q80 0 137 91l65 -41q-45 -68 -92 -98.5t-112 -30.5q-46 0 -94.5 21.5t-91 43t-75.5 21.5q-44 0 -72.5 -20.5t-56.5 -70.5q-10 6 -21.5 13t-24.5 14.5t-19 11.5z" />
<glyph unicode="&#xd2;" horiz-adv-x="1583" d="M141 719q0 155 40 287t118 234t205 160t291 58q156 0 281 -58t204.5 -159.5t121.5 -234.5t42 -287q0 -117 -26 -225.5t-80 -202.5t-130 -164t-181.5 -110t-229.5 -40q-162 0 -289 59t-206 161.5t-120 235t-41 286.5zM254 721q0 -133 32.5 -246.5t96.5 -202.5t170 -139.5 t244 -50.5q109 0 198 34t149.5 93.5t101.5 141t60 174t19 196.5q0 133 -33 246.5t-96.5 201t-166.5 137.5t-234 50q-110 0 -200.5 -33t-153 -91t-105 -138.5t-62.5 -173.5t-20 -199zM602 1864h148l217 -301h-86z" />
<glyph unicode="&#xd3;" horiz-adv-x="1583" d="M141 719q0 155 40 287t118 234t205 160t291 58q156 0 281 -58t204.5 -159.5t121.5 -234.5t42 -287q0 -117 -26 -225.5t-80 -202.5t-130 -164t-181.5 -110t-229.5 -40q-162 0 -289 59t-206 161.5t-120 235t-41 286.5zM254 721q0 -133 32.5 -246.5t96.5 -202.5t170 -139.5 t244 -50.5q109 0 198 34t149.5 93.5t101.5 141t60 174t19 196.5q0 133 -33 246.5t-96.5 201t-166.5 137.5t-234 50q-110 0 -200.5 -33t-153 -91t-105 -138.5t-62.5 -173.5t-20 -199zM639 1561l217 303h148l-279 -303h-86z" />
<glyph unicode="&#xd4;" horiz-adv-x="1583" d="M141 719q0 155 40 287t118 234t205 160t291 58q156 0 281 -58t204.5 -159.5t121.5 -234.5t42 -287q0 -117 -26 -225.5t-80 -202.5t-130 -164t-181.5 -110t-229.5 -40q-162 0 -289 59t-206 161.5t-120 235t-41 286.5zM254 721q0 -133 32.5 -246.5t96.5 -202.5t170 -139.5 t244 -50.5q109 0 198 34t149.5 93.5t101.5 141t60 174t19 196.5q0 133 -33 246.5t-96.5 201t-166.5 137.5t-234 50q-110 0 -200.5 -33t-153 -91t-105 -138.5t-62.5 -173.5t-20 -199zM504 1561l196 258q40 51 91 50t92 -54l192 -254h-90l-197 215l-196 -215h-88z" />
<glyph unicode="&#xd5;" horiz-adv-x="1583" d="M141 719q0 155 40 287t118 234t205 160t291 58q156 0 281 -58t204.5 -159.5t121.5 -234.5t42 -287q0 -117 -26 -225.5t-80 -202.5t-130 -164t-181.5 -110t-229.5 -40q-162 0 -289 59t-206 161.5t-120 235t-41 286.5zM254 721q0 -133 32.5 -246.5t96.5 -202.5t170 -139.5 t244 -50.5q109 0 198 34t149.5 93.5t101.5 141t60 174t19 196.5q0 133 -33 246.5t-96.5 201t-166.5 137.5t-234 50q-110 0 -200.5 -33t-153 -91t-105 -138.5t-62.5 -173.5t-20 -199zM459 1593q68 131 192 131q49 0 96.5 -21.5t90 -43t77.5 -21.5q81 0 138 91l65 -41 q-45 -68 -92.5 -98.5t-112.5 -30.5q-46 0 -94 21.5t-90.5 43t-75.5 21.5q-44 0 -72.5 -20.5t-56.5 -70.5q-10 6 -21.5 13t-24.5 14.5t-19 11.5z" />
<glyph unicode="&#xd6;" horiz-adv-x="1583" d="M141 719q0 155 40 287t118 234t205 160t291 58q156 0 281 -58t204.5 -159.5t121.5 -234.5t42 -287q0 -117 -26 -225.5t-80 -202.5t-130 -164t-181.5 -110t-229.5 -40q-162 0 -289 59t-206 161.5t-120 235t-41 286.5zM254 721q0 -133 32.5 -246.5t96.5 -202.5t170 -139.5 t244 -50.5q109 0 198 34t149.5 93.5t101.5 141t60 174t19 196.5q0 133 -33 246.5t-96.5 201t-166.5 137.5t-234 50q-110 0 -200.5 -33t-153 -91t-105 -138.5t-62.5 -173.5t-20 -199zM545 1653q0 40 22 61t62 21q82 0 82 -82q0 -86 -82 -86q-84 0 -84 86zM868 1653 q0 40 22 61t62 21q82 0 82 -82q0 -86 -82 -86q-84 0 -84 86z" />
<glyph unicode="&#xd7;" horiz-adv-x="1069" d="M78 852l53 53l399 -401l402 401l53 -53l-399 -401l403 -404l-53 -55l-404 405l-401 -401l-51 55l399 402z" />
<glyph unicode="&#xd8;" horiz-adv-x="1583" d="M141 719q0 155 40 287t118 234t205 160t291 58q107 0 192 -24l45 110h115l-60 -149q173 -86 265 -266t92 -410q0 -117 -26 -225.5t-80 -202.5t-130 -164t-181.5 -110t-229.5 -40q-140 0 -248 48l-60 -146h-112l76 189q-154 91 -233 263t-79 388zM254 721 q0 -180 59.5 -325.5t178.5 -225.5l460 1165q-74 21 -157 21q-110 0 -200.5 -33t-153 -91t-105 -138.5t-62.5 -173.5t-20 -199zM586 123q83 -41 211 -41q109 0 198 34t149.5 93.5t101.5 141t60 174t19 196.5q0 196 -69.5 348.5t-206.5 226.5z" />
<glyph unicode="&#xd9;" horiz-adv-x="1437" d="M213 481v961h111v-940q0 -102 12 -160q26 -122 127.5 -192t286.5 -70q78 0 186 19.5t168 43.5v1299h110v-1379q-268 -88 -469 -88q-205 0 -334.5 79t-174.5 222q-23 79 -23 205zM475 1864h148l217 -303h-86z" />
<glyph unicode="&#xda;" horiz-adv-x="1437" d="M213 481v961h111v-940q0 -102 12 -160q26 -122 127.5 -192t286.5 -70q78 0 186 19.5t168 43.5v1299h110v-1379q-268 -88 -469 -88q-205 0 -334.5 79t-174.5 222q-23 79 -23 205zM598 1561l219 303h148l-279 -303h-88z" />
<glyph unicode="&#xdb;" horiz-adv-x="1437" d="M213 481v961h111v-940q0 -102 12 -160q26 -122 127.5 -192t286.5 -70q78 0 186 19.5t168 43.5v1299h110v-1379q-268 -88 -469 -88q-205 0 -334.5 79t-174.5 222q-23 79 -23 205zM430 1561l197 258q40 51 89.5 50t90.5 -54l194 -254h-92l-196 215l-195 -215h-88z" />
<glyph unicode="&#xdc;" horiz-adv-x="1437" d="M213 473v969h113v-961q0 -90 8 -129q26 -124 130 -198t288 -74q77 0 182.5 19.5t165.5 43.5v1299h114v-1379q-268 -88 -469 -88q-205 0 -334.5 79t-174.5 222q-23 84 -23 197zM465 1653q0 40 22 61t62 21q82 0 82 -82q0 -86 -82 -86q-84 0 -84 86zM788 1653q0 40 22 61 t62 21q82 0 82 -82q0 -86 -82 -86q-84 0 -84 86z" />
<glyph unicode="&#xde;" horiz-adv-x="1179" d="M213 0v924v16v502h111v-301q44 44 114 55q37 6 105 6h84q67 0 110 -6q158 -20 255.5 -133.5t97.5 -282.5q0 -179 -96.5 -292t-256.5 -150q-72 -16 -166 -16h-247v-322h-111zM324 424h262q82 0 121 8q126 24 199 114t73 232q0 123 -72 213t-186 107q-35 6 -94 6h-90 q-68 0 -95 -8q-118 -36 -118 -168v-504z" />
<glyph unicode="&#xdf;" horiz-adv-x="1067" d="M180 0v942q0 186 90.5 282.5t259.5 96.5q135 0 212 -64t77 -186q0 -84 -38 -138t-109 -106q-69 -51 -95 -79t-26 -60q0 -38 33 -62.5t133 -74.5q122 -62 189 -150.5t67 -218.5q0 -147 -96.5 -238t-294.5 -91h-138v94h160q124 0 193 63t69 168q0 57 -16 102.5t-40.5 75 t-62 56.5t-70.5 43.5t-77 39.5t-72 42q-84 57 -84 145q0 39 16 71.5t34.5 49.5t52.5 43q7 5 38 28t40.5 31t32 30t31 38t16.5 42t8 54q0 76 -52.5 119t-130.5 43q-138 0 -193.5 -79.5t-55.5 -231.5v-920h-101z" />
<glyph unicode="&#xe0;" horiz-adv-x="1255" d="M131 475q0 106 34.5 200t97 165.5t158 113t210.5 41.5q221 0 334 -143v123h102v-975h-92q0 1 -1 4t-1 4q-8 41 -43 41q-2 0 -6 -1t-6 -1q-6 0 -16 -4t-11 -4q-95 -30 -152 -41q-55 -12 -118 -12q-224 0 -357 133t-133 356zM240 477q0 -180 102 -289.5t289 -109.5 q85 0 174 26.5t156 63.5v395q0 25 -5 60q-12 129 -101 204.5t-218 75.5q-127 0 -218.5 -59t-135 -154t-43.5 -213zM377 1415h147q135 -187 219 -301h-90z" />
<glyph unicode="&#xe1;" horiz-adv-x="1255" d="M131 475q0 106 34.5 200t97 165.5t158 113t210.5 41.5q221 0 334 -143v123h102v-975h-92q0 1 -1 4t-1 4q-8 41 -43 41q-2 0 -6 -1t-6 -1q-6 0 -16 -4t-11 -4q-95 -30 -152 -41q-55 -12 -118 -12q-224 0 -357 133t-133 356zM240 477q0 -180 102 -289.5t289 -109.5 q85 0 174 26.5t156 63.5v395q0 25 -5 60q-12 129 -101 204.5t-218 75.5q-127 0 -218.5 -59t-135 -154t-43.5 -213zM508 1114q84 114 219 301h147q-46 -50 -139 -150.5t-139 -150.5h-88z" />
<glyph unicode="&#xe2;" horiz-adv-x="1255" d="M131 475q0 106 34.5 200t97 165.5t158 113t210.5 41.5q221 0 334 -143v123h102v-975h-92q0 1 -1 4t-1 4q-8 41 -43 41q-2 0 -6 -1t-6 -1q-6 0 -16 -4t-11 -4q-95 -30 -152 -41q-55 -12 -118 -12q-224 0 -357 133t-133 356zM240 477q0 -180 102 -289.5t289 -109.5 q85 0 174 26.5t156 63.5v395q0 25 -5 60q-12 129 -101 204.5t-218 75.5q-127 0 -218.5 -59t-135 -154t-43.5 -213zM340 1112l197 258q49 49 90 49q49 0 90 -53q77 -98 194 -254h-92q-31 36 -97 107.5t-97 107.5l-197 -215h-88z" />
<glyph unicode="&#xe3;" horiz-adv-x="1255" d="M131 475q0 106 34.5 200t97 165.5t158 113t210.5 41.5q221 0 334 -143v123h102v-975h-92q0 1 -1 4t-1 4q-8 41 -43 41q-2 0 -6 -1t-6 -1q-6 0 -16 -4t-11 -4q-95 -30 -152 -41q-55 -12 -118 -12q-224 0 -357 133t-133 356zM240 477q0 -180 102 -289.5t289 -109.5 q85 0 174 26.5t156 63.5v395q0 25 -5 60q-12 129 -101 204.5t-218 75.5q-127 0 -218.5 -59t-135 -154t-43.5 -213zM309 1206q68 131 193 131q49 0 96.5 -21.5t90 -43t77.5 -21.5q81 0 137 90l66 -41q-45 -68 -92.5 -98.5t-112.5 -30.5q-46 0 -94 21.5t-90.5 43t-75.5 21.5 q-44 0 -72.5 -20t-56.5 -70q-13 8 -35.5 21t-30.5 18z" />
<glyph unicode="&#xe4;" horiz-adv-x="1255" d="M131 475q0 106 34.5 200t97 165.5t158 113t210.5 41.5q221 0 334 -143v123h102v-975h-92q0 1 -1 4t-1 4q-8 41 -43 41q-2 0 -6 -1t-6 -1q-6 0 -16 -4t-11 -4q-95 -30 -152 -41q-55 -12 -118 -12q-224 0 -357 133t-133 356zM240 477q0 -180 102 -289.5t289 -109.5 q85 0 174 26.5t156 63.5v395q0 25 -5 60q-12 129 -101 204.5t-218 75.5q-127 0 -218.5 -59t-135 -154t-43.5 -213zM381 1251q0 39 21.5 60.5t60.5 21.5q82 0 82 -82q0 -86 -82 -86t-82 86zM705 1251q0 39 21 60.5t60 21.5q82 0 82 -82q0 -86 -82 -86q-81 0 -81 86z" />
<glyph unicode="&#xe5;" horiz-adv-x="1255" d="M131 475q0 106 34.5 200t97 165.5t158 113t210.5 41.5q221 0 334 -143v123h102v-975h-92q0 1 -1 4t-1 4q-8 41 -43 41q-2 0 -6 -1t-6 -1q-6 0 -16 -4t-11 -4q-95 -30 -152 -41q-55 -12 -118 -12q-224 0 -357 133t-133 356zM240 477q0 -180 102 -289.5t289 -109.5 q85 0 174 26.5t156 63.5v395q0 25 -5 60q-12 129 -101 204.5t-218 75.5q-127 0 -218.5 -59t-135 -154t-43.5 -213zM438 1303q0 86 52.5 138t138.5 52q87 0 139.5 -51.5t52.5 -138.5q0 -86 -53 -139.5t-139 -53.5t-138.5 54t-52.5 139zM514 1303q0 -54 31.5 -84.5t85.5 -30.5 t83 30.5t29 84.5q0 50 -31.5 84t-80.5 34q-51 0 -84 -34t-33 -84z" />
<glyph unicode="&#xe6;" horiz-adv-x="2013" d="M135 467q0 103 34 196t96.5 164t157.5 112.5t210 41.5q154 0 254.5 -59t146.5 -156q59 104 163 162.5t233 58.5q191 0 307.5 -120.5t134.5 -317.5l6 -80h-803q6 -180 111 -283.5t282 -103.5q157 0 330 113l45 -82q-96 -64 -185.5 -94.5t-199.5 -30.5q-123 0 -223 44.5 t-164 125.5v-158h-88q-4 45 -41 45q-21 0 -65 -14q-137 -45 -256 -45q-225 0 -355.5 131t-130.5 350zM246 469q0 -175 105.5 -283t291.5 -108q142 0 318 90v383q0 73 -9 113q-25 106 -107.5 164.5t-203.5 58.5q-95 0 -171.5 -33.5t-124.5 -91.5t-73.5 -132.5t-25.5 -160.5z M1077 561h684q-22 157 -105 245.5t-224 88.5q-144 0 -239.5 -90t-115.5 -244z" />
<glyph unicode="&#xe7;" horiz-adv-x="1107" d="M125 492q0 215 135.5 358t349.5 143q131 0 220.5 -39.5t168.5 -122.5l-77 -65q-130 133 -314 133q-167 0 -269.5 -116t-102.5 -281q0 -196 103.5 -308t281.5 -112q182 0 331 127l56 -76q-168 -142 -379 -145l-11 -45q-2 -13 5 -21t26 -8q60 0 98.5 -36.5t38.5 -94.5 q0 -78 -55 -118t-139 -40q-98 0 -186 49l24 66q90 -45 164 -45q52 1 79 23t27 59q0 71 -84 71q-49 0 -86 -12l27 154q-202 17 -317 154t-115 348z" />
<glyph unicode="&#xe8;" horiz-adv-x="1179" d="M131 494q0 220 132 361.5t337 141.5q193 0 313 -120.5t134 -317.5q6 -54 6 -80h-811q3 -184 106.5 -292.5t284.5 -108.5q179 0 338 110l47 -79q-177 -123 -393 -123q-230 0 -362 139.5t-132 368.5zM244 569h692q-19 158 -103.5 248t-230.5 90t-242.5 -92.5t-115.5 -245.5 zM362 1415h148l219 -301h-90z" />
<glyph unicode="&#xe9;" horiz-adv-x="1179" d="M131 494q0 220 132 361.5t337 141.5q193 0 313 -120.5t134 -317.5q6 -54 6 -80h-811q3 -184 106.5 -292.5t284.5 -108.5q179 0 338 110l47 -79q-177 -123 -393 -123q-230 0 -362 139.5t-132 368.5zM244 569h692q-19 158 -103.5 248t-230.5 90t-242.5 -92.5t-115.5 -245.5 zM496 1114l219 301h147l-278 -301h-88z" />
<glyph unicode="&#xea;" horiz-adv-x="1179" d="M131 494q0 220 132 361.5t337 141.5q193 0 313 -120.5t134 -317.5q6 -54 6 -80h-811q3 -184 106.5 -292.5t284.5 -108.5q179 0 338 110l47 -79q-177 -123 -393 -123q-230 0 -362 139.5t-132 368.5zM244 569h692q-19 158 -103.5 248t-230.5 90t-242.5 -92.5t-115.5 -245.5 zM311 1112l197 258q40 51 90 50t90 -54l195 -254h-92l-195 215l-197 -215h-88z" />
<glyph unicode="&#xeb;" horiz-adv-x="1179" d="M131 494q0 220 132 361.5t337 141.5q193 0 313 -120.5t134 -317.5q6 -54 6 -80h-811q3 -184 106.5 -292.5t284.5 -108.5q179 0 338 110l47 -79q-177 -123 -393 -123q-230 0 -362 139.5t-132 368.5zM244 569h692q-19 158 -103.5 248t-230.5 90t-242.5 -92.5t-115.5 -245.5 zM354 1251q0 39 21.5 60.5t60.5 21.5q82 0 82 -82q0 -86 -82 -86t-82 86zM678 1251q0 39 21.5 60.5t60.5 21.5q82 0 82 -82q0 -86 -82 -86t-82 86z" />
<glyph unicode="&#xec;" horiz-adv-x="520" d="M68 1415h147l217 -301h-86zM207 0v971h106v-971h-106z" />
<glyph unicode="&#xed;" horiz-adv-x="520" d="M88 1114l219 301h146l-279 -301h-86zM205 0v971h106v-971h-106z" />
<glyph unicode="&#xee;" horiz-adv-x="530" d="M-20 1112l196 258q40 51 90 50t90 -54l195 -254h-90l-197 215l-196 -215h-88zM213 0v971h106v-971h-106z" />
<glyph unicode="&#xef;" horiz-adv-x="526" d="M18 1251q0 39 21.5 60.5t60.5 21.5q82 0 82 -82q0 -86 -82 -86q-40 0 -61 22.5t-21 63.5zM211 0v971h104v-971h-104zM342 1251q0 39 21.5 60.5t60.5 21.5q82 0 82 -82q0 -86 -82 -86t-82 86z" />
<glyph unicode="&#xf0;" horiz-adv-x="1239" d="M131 489q0 217 134.5 360.5t350.5 143.5q224 0 353 -147v422q-57 -49 -140 -49q-46 0 -94 21.5t-90.5 43t-75.5 21.5q-44 0 -72.5 -20.5t-56.5 -70.5q-10 6 -21.5 13t-24.5 14.5t-19 11.5q68 131 192 131q49 0 96.5 -21.5t90 -43t77.5 -21.5q81 0 138 91v63h102v-1016 q0 -61 -15.5 -121.5t-51.5 -120t-88 -105t-132 -73.5t-176 -28q-226 0 -351.5 139t-125.5 362zM242 492q0 -179 95.5 -294.5t278.5 -115.5q64 0 122.5 19.5t110.5 60.5t83 114t31 170v136q0 138 -96 228.5t-244 90.5q-177 0 -279 -116t-102 -293z" />
<glyph unicode="&#xf1;" horiz-adv-x="1155" d="M174 0v864q84 59 194.5 95t215.5 36q424 0 424 -379v-616h-109v600q0 152 -79 226.5t-240 74.5q-79 0 -162.5 -26t-138.5 -60v-815h-105zM252 1204q68 131 192 131q49 0 97 -21.5t90.5 -43t77.5 -21.5q81 0 137 90l65 -41q-45 -68 -92 -98.5t-112 -30.5q-46 0 -94.5 21.5 t-91 43t-75.5 21.5q-44 0 -72.5 -20t-56.5 -70q-10 6 -21.5 13t-24.5 14.5t-19 11.5z" />
<glyph unicode="&#xf2;" d="M127 492q0 141 62 257t175 184t254 68q219 0 357.5 -144.5t138.5 -364.5t-140.5 -365t-355.5 -145q-213 0 -352 146.5t-139 363.5zM236 494q0 -116 45 -211t133 -152t204 -57q170 0 279 119t109 301q0 172 -111 293.5t-277 121.5q-115 0 -203 -56t-133.5 -150t-45.5 -209 zM362 1415h148l217 -301h-88z" />
<glyph unicode="&#xf3;" d="M127 492q0 141 62 257t175 184t254 68q219 0 357.5 -144.5t138.5 -364.5t-140.5 -365t-355.5 -145q-213 0 -352 146.5t-139 363.5zM236 494q0 -116 45 -211t133 -152t204 -57q170 0 279 119t109 301q0 172 -111 293.5t-277 121.5q-115 0 -203 -56t-133.5 -150t-45.5 -209 zM508 1114l219 301h145l-278 -301h-86z" />
<glyph unicode="&#xf4;" d="M127 492q0 141 62 257t175 184t254 68q219 0 357.5 -144.5t138.5 -364.5t-140.5 -365t-355.5 -145q-213 0 -352 146.5t-139 363.5zM236 494q0 -116 45 -211t133 -152t204 -57q170 0 279 119t109 301q0 172 -111 293.5t-277 121.5q-115 0 -203 -56t-133.5 -150t-45.5 -209 zM326 1112l196 258q40 51 91 50t92 -54l192 -254h-90l-197 215l-194 -215h-90z" />
<glyph unicode="&#xf5;" d="M127 492q0 141 62 257t175 184t254 68q219 0 357.5 -144.5t138.5 -364.5t-140.5 -365t-355.5 -145q-213 0 -352 146.5t-139 363.5zM236 494q0 -116 45 -211t133 -152t204 -57q170 0 279 119t109 301q0 172 -111 293.5t-277 121.5q-115 0 -203 -56t-133.5 -150t-45.5 -209 zM285 1204q68 131 192 131q49 0 96.5 -21.5t90 -43t77.5 -21.5q82 0 138 90l65 -41q-45 -68 -92.5 -98.5t-112.5 -30.5q-46 0 -94 21.5t-90.5 43t-75.5 21.5q-44 0 -72.5 -20t-56.5 -70z" />
<glyph unicode="&#xf6;" d="M127 492q0 141 62 257t175 184t254 68q219 0 357.5 -144.5t138.5 -364.5t-140.5 -365t-355.5 -145q-213 0 -352 146.5t-139 363.5zM236 494q0 -116 45 -211t133 -152t204 -57q170 0 279 119t109 301q0 172 -111 293.5t-277 121.5q-115 0 -203 -56t-133.5 -150t-45.5 -209 zM369 1251q0 82 82 82q40 0 62 -21t22 -61q0 -86 -84 -86q-82 0 -82 86zM692 1251q0 82 84 82q80 0 80 -82q0 -86 -80 -86q-84 0 -84 86z" />
<glyph unicode="&#xf7;" horiz-adv-x="1265" d="M133 651v97h1000v-97h-1000zM543 371q0 39 25.5 66.5t64.5 27.5t64.5 -27.5t25.5 -66.5q0 -43 -23 -66.5t-67 -23.5q-90 0 -90 90zM543 1026q0 39 24.5 64.5t65.5 25.5q44 0 67 -23.5t23 -66.5q0 -39 -25.5 -65.5t-64.5 -26.5t-64.5 26.5t-25.5 65.5z" />
<glyph unicode="&#xf8;" d="M127 492q0 141 62 257t175 184t254 68q79 0 150 -22l45 113h102l-57 -148q120 -64 188 -182.5t68 -269.5q0 -220 -140.5 -365t-355.5 -145q-65 0 -133 20l-49 -123h-104l63 156q-124 62 -196 183.5t-72 273.5zM236 494q0 -121 50.5 -220t141.5 -151l305 768 q-53 18 -115 18q-115 0 -203 -56t-133.5 -150t-45.5 -209zM518 88q54 -14 100 -14q170 0 279 119t109 301q0 112 -50 207t-135 149z" />
<glyph unicode="&#xf9;" horiz-adv-x="1183" d="M174 360v613h105v-604q0 -291 348 -291q152 0 258 37v858h106v-932q-184 -59 -370 -59q-219 0 -333 95.5t-114 282.5zM354 1415h146l219 -301h-88z" />
<glyph unicode="&#xfa;" horiz-adv-x="1183" d="M174 360v613h105v-604q0 -291 348 -291q152 0 258 37v858h106v-932q-184 -59 -370 -59q-219 0 -333 95.5t-114 282.5zM469 1114l219 301h148l-279 -301h-88z" />
<glyph unicode="&#xfb;" horiz-adv-x="1183" d="M174 360v613h105v-604q0 -291 348 -291q152 0 258 37v858h106v-932q-184 -59 -370 -59q-219 0 -333 95.5t-114 282.5zM297 1112l197 258q40 51 90 50t90 -54l194 -254h-92l-194 215l-197 -215h-88z" />
<glyph unicode="&#xfc;" horiz-adv-x="1183" d="M174 360v613h105v-604q0 -291 348 -291q152 0 258 37v858h106v-932q-184 -59 -370 -59q-219 0 -333 95.5t-114 282.5zM338 1251q0 82 82 82t82 -82q0 -86 -82 -86t-82 86zM662 1251q0 82 81 82q80 0 80 -82q0 -86 -80 -86q-81 0 -81 86z" />
<glyph unicode="&#xfd;" horiz-adv-x="1247" d="M184 387v588h109v-582q0 -67 17 -121.5t53 -99t100 -69.5t151 -25q165 0 316 74v823h106v-961q0 -238 -117 -375t-341 -137q-165 0 -287 64l24 92q128 -61 260 -61q175 0 265 109t90 290v53q-142 -65 -322 -65q-199 0 -311.5 104t-112.5 299zM496 1114l219 301h147 l-278 -301h-88z" />
<glyph unicode="&#xfe;" horiz-adv-x="1071" d="M162 -418v971v18v871h106v-590q126 139 353 139q216 0 346.5 -131t130.5 -362q0 -102 -30 -191.5t-88.5 -162t-156.5 -114.5t-223 -42q-71 0 -127.5 11t-132.5 36q-24 8 -37 8q-35 0 -35 -41v-420h-106zM268 172q170 -90 338 -90q187 0 283 115.5t96 298.5 q0 174 -96 285.5t-271 111.5q-114 0 -193.5 -44t-117.5 -128q-39 -71 -39 -182v-367z" />
<glyph unicode="&#xff;" horiz-adv-x="1220" d="M178 385v586h107v-580q0 -66 17 -120.5t53 -98.5t99.5 -69t149.5 -25q165 0 316 74v819h104v-957q0 -236 -116.5 -373t-338.5 -137q-165 0 -284 64l22 92q125 -61 258 -61q175 0 265 108t90 289v55q-159 -67 -322 -67q-198 0 -309 103t-111 298zM362 1251q0 39 21.5 60.5 t62.5 21.5q82 0 82 -82q0 -86 -82 -86q-84 0 -84 86zM686 1251q0 39 21.5 60.5t62.5 21.5q39 0 60.5 -21.5t21.5 -60.5q0 -42 -21.5 -64t-60.5 -22q-84 0 -84 86z" />
<glyph unicode="&#x152;" horiz-adv-x="1841" d="M141 719q0 122 25 230.5t78.5 201.5t130 160t185 105t239.5 38q68 0 149 -12h72h715v-103h-680v-522h606v-104h-606v-607h721v-106h-822q-70 -18 -151 -18q-160 0 -288 58.5t-208.5 160t-123 234t-42.5 284.5zM260 721q0 -134 32 -247.5t96.5 -203t171.5 -140t247 -50.5 q63 0 135 16v1245q-68 15 -139 15q-139 0 -245.5 -50t-170.5 -138.5t-95.5 -201t-31.5 -245.5z" />
<glyph unicode="&#x153;" horiz-adv-x="1822" d="M123 487q0 141 63.5 257t176.5 182.5t251 66.5q193 0 328 -116q127 118 315 118q192 0 309.5 -121t135.5 -319l8 -84h-807q5 -181 108 -285t281 -104q163 0 336 113l45 -84q-96 -62 -188 -92.5t-203 -30.5q-210 0 -336 114q-136 -120 -332 -120q-213 0 -352 144.5 t-139 360.5zM231 489q0 -177 105.5 -294t277.5 -117q154 0 258 104q-84 128 -84 314q0 171 84 301q-105 102 -258 102q-171 0 -277 -117t-106 -293zM903 565h686q-21 159 -104 247.5t-225 88.5q-146 0 -241.5 -90t-115.5 -246z" />
<glyph unicode="&#x178;" horiz-adv-x="1148" d="M43 1442h129l403 -711l406 711h125l-408 -705q-67 -124 -67 -194v-543h-113v543q0 74 -72 194zM328 1645q0 38 22 59.5t62 21.5q82 0 82 -81q0 -41 -21 -63.5t-61 -22.5q-41 0 -62.5 23t-21.5 63zM651 1645q0 38 22 59.5t62 21.5q39 0 60.5 -21t21.5 -60 q0 -41 -21.5 -63.5t-60.5 -22.5q-41 0 -62.5 23t-21.5 63z" />
<glyph unicode="&#x2c6;" horiz-adv-x="806" d="M119 1112l196 258q40 51 90.5 50t90.5 -54l192 -254h-90l-197 215l-196 -215h-86z" />
<glyph unicode="&#x2dc;" horiz-adv-x="872" d="M106 1174q68 131 193 131q49 0 96.5 -21.5t90 -43t77.5 -21.5q81 0 137 90l66 -41q-45 -68 -92.5 -98.5t-112.5 -30.5q-46 0 -94 21.5t-90.5 43t-75.5 21.5q-44 0 -72.5 -20t-56.5 -70q-13 8 -35.5 21t-30.5 18z" />
<glyph unicode="&#x2000;" horiz-adv-x="968" />
<glyph unicode="&#x2001;" horiz-adv-x="1937" />
<glyph unicode="&#x2002;" horiz-adv-x="968" />
<glyph unicode="&#x2003;" horiz-adv-x="1937" />
<glyph unicode="&#x2004;" horiz-adv-x="645" />
<glyph unicode="&#x2005;" horiz-adv-x="484" />
<glyph unicode="&#x2006;" horiz-adv-x="322" />
<glyph unicode="&#x2007;" horiz-adv-x="322" />
<glyph unicode="&#x2008;" horiz-adv-x="242" />
<glyph unicode="&#x2009;" horiz-adv-x="387" />
<glyph unicode="&#x200a;" horiz-adv-x="107" />
<glyph unicode="&#x2010;" horiz-adv-x="989" d="M170 475v94h651v-94h-651z" />
<glyph unicode="&#x2011;" horiz-adv-x="989" d="M170 475v94h651v-94h-651z" />
<glyph unicode="&#x2012;" horiz-adv-x="989" d="M170 475v94h651v-94h-651z" />
<glyph unicode="&#x2013;" horiz-adv-x="1120" d="M51 475v96h1018v-96h-1018z" />
<glyph unicode="&#x2014;" horiz-adv-x="1738" d="M55 475v96h1628v-96h-1628z" />
<glyph unicode="&#x2018;" horiz-adv-x="413" d="M123 1184q0 60 39.5 143.5t91.5 153.5l41 -11q-36 -75 -52 -121.5t-22 -99.5q37 -9 55.5 -30.5t18.5 -49.5q0 -45 -22.5 -67.5t-61.5 -22.5q-41 0 -64.5 29.5t-23.5 75.5z" />
<glyph unicode="&#x2019;" horiz-adv-x="413" d="M123 1382q0 42 24 65t60 23q43 0 65.5 -28t22.5 -74q0 -62 -38.5 -144.5t-90.5 -154.5l-41 12q36 78 52 123.5t22 98.5q-37 9 -56.5 30.5t-19.5 48.5z" />
<glyph unicode="&#x201a;" horiz-adv-x="413" d="M121 72q0 42 24 65t60 23q42 0 65 -29t23 -74q0 -62 -39 -146t-90 -153l-41 11q37 81 52.5 125.5t21.5 97.5q-37 9 -56.5 30.5t-19.5 49.5z" />
<glyph unicode="&#x201c;" horiz-adv-x="671" d="M109 1184q0 61 39.5 145t91.5 152l39 -11q-35 -73 -51.5 -120.5t-20.5 -100.5q37 -9 55.5 -30.5t18.5 -49.5q0 -45 -22.5 -67.5t-61.5 -22.5q-41 0 -64.5 29.5t-23.5 75.5zM381 1184q0 60 39.5 143.5t91.5 153.5l41 -11q-35 -73 -51.5 -120.5t-22.5 -100.5 q37 -9 56.5 -30.5t19.5 -49.5q0 -44 -23 -67t-63 -23q-41 0 -64.5 29.5t-23.5 75.5z" />
<glyph unicode="&#x201d;" horiz-adv-x="671" d="M119 1382q0 42 24 65t60 23q43 0 65.5 -28t22.5 -74q0 -62 -38.5 -144.5t-90.5 -154.5l-41 12q37 82 52.5 126t19.5 96q-36 9 -55 30.5t-19 48.5zM393 1382q0 42 24 65t60 23q43 0 65.5 -28t22.5 -74q0 -62 -38.5 -144.5t-90.5 -154.5l-41 12q36 78 52 123.5t20 98.5 q-36 9 -55 30.5t-19 48.5z" />
<glyph unicode="&#x201e;" horiz-adv-x="669" d="M117 72q0 42 23.5 65t58.5 23q44 0 67 -29t23 -74q0 -62 -39.5 -146.5t-91.5 -152.5l-41 11q35 72 51 120t22 103q-36 9 -54.5 30.5t-18.5 49.5zM393 72q0 42 23 65t59 23q42 0 65 -29t23 -74q0 -62 -39.5 -146.5t-91.5 -152.5l-39 11q37 81 52.5 125.5t21.5 97.5 q-37 9 -55.5 30.5t-18.5 49.5z" />
<glyph unicode="&#x2022;" horiz-adv-x="727" d="M137 621q0 128 66 182q49 43 159 43q129 0 183 -66q43 -52 43 -159q0 -116 -53 -172q-49 -52 -175 -52q-110 0 -159 41q-64 52 -64 183z" />
<glyph unicode="&#x2026;" horiz-adv-x="1230" d="M137 63q0 74 76 74q74 0 74 -74q0 -75 -74 -75q-76 0 -76 75zM539 63q0 74 75 74q74 0 74 -74q0 -75 -74 -75q-75 0 -75 75zM940 63q0 74 78 74q74 0 74 -74q0 -75 -74 -75q-78 0 -78 75z" />
<glyph unicode="&#x202f;" horiz-adv-x="387" />
<glyph unicode="&#x2039;" horiz-adv-x="567" d="M135 399l195 260h110l-194 -260l194 -260h-110z" />
<glyph unicode="&#x203a;" horiz-adv-x="567" d="M127 139l192 260l-192 260h109l196 -260l-196 -260h-109z" />
<glyph unicode="&#x205f;" horiz-adv-x="484" />
<glyph unicode="&#x20ac;" horiz-adv-x="1384" d="M68 426l10 92h158q-7 88 2 156h-80l10 92h88q40 143 143 252q168 174 424 174q244 0 428 -184l-75 -70q-80 80 -164.5 117t-186.5 37q-215 0 -352 -146q-73 -76 -108 -180h692l-13 -92h-702q-12 -74 -2 -156h627l-11 -92h-598q26 -109 109 -199q136 -151 358 -151 q97 0 192.5 39.5t162.5 109.5l61 -80q-176 -165 -416 -165q-266 0 -430 170q-109 114 -145 276h-182z" />
<glyph unicode="&#x2122;" horiz-adv-x="1671" d="M127 1370v72h539v-72h-230v-651h-80v651h-229zM762 717v653q0 36 21.5 56t54.5 20q59 0 84 -60l178 -405q119 272 178 405q25 60 84 60q33 0 54.5 -20t21.5 -56v-653h-76v645q0 8 -6 8q-4 0 -10 -12l-213 -473h-70q-141 317 -213 477q-4 8 -8 8q-6 0 -6 -8v-645h-74z" />
<glyph unicode="&#xe000;" horiz-adv-x="972" d="M0 0v973h973v-973h-973z" />
<glyph unicode="&#xfb01;" horiz-adv-x="1265" d="M195 0v1065q0 162 83 260t240 98q129 0 236 -67l-33 -90q-108 61 -197 61q-223 0 -223 -262v-135h363v-101h-363v-829h-106zM926 1270q0 82 82 82t82 -82q0 -86 -82 -86t-82 86zM954 0v971h107v-971h-107z" />
<glyph unicode="&#xfb02;" d="M195 0v1065q0 163 82.5 260.5t240.5 97.5q129 0 236 -67l-35 -90q-105 61 -195 61q-223 0 -223 -262v-135h363v-101h-363v-829h-106zM944 0v1442h109v-1442h-109z" />
</font>
</defs>
</svg>
