<?xml version="1.0" standalone="no"?>
<!DOCTYPE svg PUBLIC "-//W3C//DTD SVG 1.1//EN" "http://www.w3.org/Graphics/SVG/1.1/DTD/svg11.dtd" >
<svg xmlns="http://www.w3.org/2000/svg">
<metadata></metadata>
<defs>
<font id="bellslimsemibold" horiz-adv-x="1310" >
<font-face units-per-em="2048" ascent="1554" descent="-494" />
<missing-glyph horiz-adv-x="536" />
<glyph horiz-adv-x="2048" />
<glyph horiz-adv-x="2048" />
<glyph unicode="&#xd;" horiz-adv-x="2048" />
<glyph unicode=" "  horiz-adv-x="536" />
<glyph unicode="&#x09;" horiz-adv-x="536" />
<glyph unicode="&#xa0;" horiz-adv-x="536" />
<glyph unicode="!" horiz-adv-x="481" d="M150 80q0 42 25.5 66t68.5 24q42 0 65 -24t23 -66q0 -44 -22.5 -69t-65.5 -25q-44 0 -69 25t-25 69zM180 362v1100h121v-1100h-121z" />
<glyph unicode="&#x22;" horiz-adv-x="565" d="M121 1440h121l-9 -332h-104zM324 1440h120l-6 -332h-106z" />
<glyph unicode="#" horiz-adv-x="1404" d="M172 535l18 112h281l39 230h-281l19 114h280l50 299h112l-49 -299h225l49 299h113l-49 -299h278l-18 -114h-278l-37 -230h278l-18 -112h-279l-51 -318h-115l52 318h-224l-53 -318h-113l52 318h-281zM586 647h223l39 230h-225z" />
<glyph unicode="$" horiz-adv-x="1183" d="M84 225l115 68q53 -90 127.5 -131t189.5 -49v589q-192 67 -276 154t-84 238q0 150 94.5 241.5t265.5 106.5v127h125v-127q258 -20 371 -217l-105 -70q-55 87 -117.5 124.5t-148.5 43.5v-524q77 -25 131 -48t109 -58.5t88 -78t54 -104.5t21 -139q0 -61 -11 -111.5t-39 -98 t-73 -82t-116 -57.5t-164 -30v-125h-125v123q-314 18 -432 235zM285 1100q0 -47 7.5 -77.5t31 -62.5t70 -59.5t122.5 -56.5v479q-231 -24 -231 -223zM641 113q151 10 211.5 68.5t60.5 170.5q0 71 -17.5 121.5t-56.5 85t-83 56t-115 44.5v-546z" />
<glyph unicode="%" horiz-adv-x="1546" d="M121 1155q0 139 93.5 228.5t229.5 89.5q137 0 229.5 -89t92.5 -229q0 -144 -91.5 -231.5t-230.5 -87.5q-138 0 -230.5 88t-92.5 231zM213 -20l942 1464h135l-932 -1464h-145zM242 1155q0 -90 57 -150.5t145 -60.5t144.5 60.5t56.5 150.5q0 91 -55.5 148t-145.5 57 q-92 0 -147 -56t-55 -149zM774 293q0 139 91.5 229t228.5 90q136 0 229.5 -91.5t93.5 -227.5t-94 -226t-229 -90t-227.5 89.5t-92.5 226.5zM891 293q0 -88 57.5 -146.5t145.5 -58.5q89 0 145.5 57.5t56.5 147.5q0 93 -55.5 152t-146.5 59q-92 0 -147.5 -58.5t-55.5 -152.5z " />
<glyph unicode="&#x26;" horiz-adv-x="1290" d="M86 367q0 249 266 467q-106 132 -106 278q0 141 94 230.5t235 89.5q116 0 203 -64t113 -176l-117 -51q-21 86 -68 129t-131 43q-93 0 -144.5 -50.5t-51.5 -142.5q0 -72 26 -126.5t82 -114.5q171 -195 420 -451q57 107 94 207l121 -51q-60 -147 -121 -254 q238 -238 345 -330h-193q-114 105 -223 217q-179 -235 -432 -235q-189 0 -300.5 99.5t-111.5 285.5zM217 367q0 -125 79.5 -193t207.5 -68q91 0 174 53t149 140l9 12q-281 294 -398 426q-221 -169 -221 -370z" />
<glyph unicode="'" horiz-adv-x="352" d="M115 1440h121l-7 -332h-106z" />
<glyph unicode="(" horiz-adv-x="552" d="M121 657q0 487 194 977h129q-200 -486 -200 -972q0 -514 196 -945h-133q-186 440 -186 940z" />
<glyph unicode=")" horiz-adv-x="555" d="M109 1634h129q196 -495 196 -972q0 -503 -190 -945h-133q196 431 196 945q0 476 -198 972z" />
<glyph unicode="*" horiz-adv-x="948" d="M106 1065v113l308 -25l-166 254l98 59l129 -274l133 272l97 -57l-168 -254l305 21v-113l-303 18l170 -248l-97 -59l-137 275l-141 -273l-96 57l174 248z" />
<glyph unicode="+" horiz-adv-x="1105" d="M113 651v121h379v387h120v-387h381v-121h-381v-391h-120v391h-379z" />
<glyph unicode="," horiz-adv-x="405" d="M109 70q0 47 25.5 71.5t64.5 24.5q46 0 71 -32t25 -81q0 -118 -133 -289l-45 15q27 57 36 77.5t20.5 57t14.5 70.5q-39 9 -59 32t-20 54z" />
<glyph unicode="-" horiz-adv-x="974" d="M162 469v115h651v-115h-651z" />
<glyph unicode="." horiz-adv-x="434" d="M131 74q0 86 88 86q86 0 86 -86q0 -90 -86 -90q-88 0 -88 90z" />
<glyph unicode="/" horiz-adv-x="866" d="M72 0l628 1475h131l-626 -1475h-133z" />
<glyph unicode="0" horiz-adv-x="1353" d="M152 723q0 80 5.5 150t21 146.5t40 138.5t65.5 119t95.5 96t131.5 62t171 23t171 -23.5t130 -62t93 -96.5t63 -119.5t37.5 -139t19 -146t4.5 -148.5q0 -735 -518 -735q-94 0 -170.5 23t-131 62t-95.5 96.5t-66 119.5t-40.5 138t-21 146.5t-5.5 149.5zM293 725 q0 -60 2.5 -111t9.5 -108.5t20.5 -104.5t33 -93.5t49.5 -81t68 -62t90.5 -41.5t115.5 -14q71 0 128 19.5t95.5 51.5t67.5 81t45 99.5t25.5 116.5t12.5 122t3 126t-3 126t-12 122.5t-25.5 116t-45 98.5t-67 80.5t-96 51t-128.5 19.5q-73 0 -131.5 -19t-98.5 -50t-69.5 -79.5 t-46.5 -98.5t-27 -116t-13 -123t-3 -128z" />
<glyph unicode="1" horiz-adv-x="686" d="M113 1130v152q124 108 157 133q48 41 99 41q40 0 61 -30t21 -72v-1354h-132v1307z" />
<glyph unicode="2" horiz-adv-x="1093" d="M143 0q2 183 7 233q17 151 106 270q15 19 31 38q36 43 87.5 88t83 68.5t106.5 75.5t93 65q82 60 119 118t37 152q0 115 -70.5 173t-173.5 58q-139 0 -209 -69.5t-79 -210.5h-134q5 187 116.5 294t305.5 107q75 0 141.5 -20.5t121.5 -61.5t87.5 -110.5t32.5 -159.5 q0 -61 -11 -108.5t-41.5 -99.5t-87.5 -104.5t-146 -111.5q-84 -55 -143.5 -102t-115.5 -106.5t-86 -125t-32 -137.5l-2 -88h671v-125h-815z" />
<glyph unicode="3" horiz-adv-x="1179" d="M74 360l133 41q34 -161 119.5 -228t222.5 -67q142 0 233.5 90t91.5 240q0 141 -105 225t-263 84h-78v127h68q124 0 199 70t75 176q0 99 -62 156t-161 57q-104 0 -167 -50t-101 -155l-123 52q94 276 393 276q152 0 254 -90.5t102 -245.5q0 -90 -41.5 -166t-122.5 -127 q129 -45 201 -146.5t72 -244.5q0 -137 -65.5 -241t-170.5 -156.5t-231 -52.5q-398 0 -473 376z" />
<glyph unicode="4" horiz-adv-x="1144" d="M39 428v117l563 807q77 108 172 108q60 0 96.5 -37.5t36.5 -117.5v-1305h-131v428h-737zM195 549h581v770q0 8 -5 15t-11 7q-16 0 -37 -30z" />
<glyph unicode="5" horiz-adv-x="1185" d="M104 248l109 71q58 -100 138.5 -157.5t209.5 -57.5q159 0 254.5 102t95.5 265t-94.5 257.5t-261.5 94.5q-191 0 -342 -80v547q0 63 40 107.5t112 44.5h596v-119h-555q-38 0 -52 -10.5t-14 -48.5v-344q114 28 219 28q226 0 359 -127t133 -348q0 -210 -135 -348.5 t-355 -138.5q-311 0 -457 262z" />
<glyph unicode="6" horiz-adv-x="1269" d="M170 469q0 257 190 588q111 194 263 385h159q-246 -301 -372 -563q122 69 247 69q215 0 343 -132.5t128 -346.5q0 -211 -136 -351.5t-347 -140.5q-208 0 -341.5 134.5t-133.5 357.5zM303 465q0 -166 96.5 -266.5t251.5 -100.5q152 0 249 103.5t97 263.5 q0 165 -92.5 263.5t-247.5 98.5q-159 0 -256.5 -100t-97.5 -262z" />
<glyph unicode="7" horiz-adv-x="987" d="M33 1321v119h735q69 0 103 -36t34 -91q0 -45 -35 -133l-499 -1180h-138q531 1256 535 1268q16 53 -31 53h-704z" />
<glyph unicode="8" horiz-adv-x="1222" d="M129 432q0 131 67.5 232t184.5 163q-162 94 -162 285q0 156 101 255t282 99q180 0 282.5 -95.5t102.5 -248.5q0 -184 -156 -286q124 -60 193.5 -163.5t69.5 -240.5q0 -202 -139 -329.5t-345 -127.5q-210 0 -345.5 126t-135.5 331zM264 428q0 -148 95.5 -240t250.5 -92 q151 0 249.5 93.5t98.5 238.5q0 144 -97.5 236t-250.5 92q-152 0 -249 -92.5t-97 -235.5zM350 1120q0 -110 67.5 -174.5t184.5 -64.5q116 0 184 64.5t68 174.5q0 109 -67.5 170.5t-184.5 61.5q-118 0 -185 -62.5t-67 -169.5z" />
<glyph unicode="9" horiz-adv-x="1239" d="M139 989q0 204 137 338.5t338 134.5q202 0 335.5 -130.5t133.5 -346.5q0 -92 -16.5 -176t-50.5 -162.5t-65 -135t-81 -134.5q-97 -156 -268 -377h-162q292 356 414 590q-118 -64 -252 -64q-211 0 -337 129.5t-126 333.5zM268 995q0 -163 90 -257.5t244 -94.5 q167 0 258.5 88.5t91.5 253.5q0 163 -92.5 262t-245.5 99q-155 0 -250.5 -100t-95.5 -251z" />
<glyph unicode=":" horiz-adv-x="395" d="M113 74q0 86 86 86t86 -86q0 -90 -86 -90t-86 90zM113 700q0 86 86 86t86 -86q0 -90 -86 -90t-86 90z" />
<glyph unicode=";" horiz-adv-x="405" d="M115 700q0 86 88 86q86 0 86 -86q0 -90 -86 -90q-88 0 -88 90zM117 70q0 47 25 71.5t63 24.5q47 0 71.5 -31.5t24.5 -81.5q0 -66 -39.5 -143.5t-93.5 -145.5l-45 15q25 50 36.5 75.5t22.5 60.5t15 69q-40 9 -60 32t-20 54z" />
<glyph unicode="&#x3c;" horiz-adv-x="962" d="M77.5 683q-3.5 49 57.5 87l760 447v-138l-668 -391l668 -391v-139l-758 444q-56 32 -59.5 81z" />
<glyph unicode="=" horiz-adv-x="1292" d="M139 479v113h1012v-113h-1012zM139 809v113h1012v-113h-1012z" />
<glyph unicode="&#x3e;" horiz-adv-x="962" d="M68 160v137l667 391l-667 393v138l759 -447q62 -38 58.5 -88t-58.5 -82z" />
<glyph unicode="?" horiz-adv-x="927" d="M82 1243q101 215 393 215q173 0 268 -82.5t95 -228.5q0 -102 -56 -195q-29 -48 -83 -109.5t-92 -104.5t-68.5 -112t-30.5 -147v-117h-129v113q0 39 5.5 76t12.5 65t23.5 61t27 52.5t35.5 52.5t37 47.5t44 51.5t44 51q48 57 73.5 106.5t25.5 110.5q0 87 -57.5 137.5 t-178.5 50.5q-99 0 -166 -33t-108 -112zM356 80q0 42 26 66t69 24q42 0 65 -24t23 -66q0 -44 -22.5 -69t-65.5 -25q-44 0 -69.5 25t-25.5 69z" />
<glyph unicode="@" horiz-adv-x="1695" d="M174 557q0 155 55.5 290.5t152.5 232t233 151.5t292 55q122 0 229 -36t187.5 -102.5t127 -170t46.5 -229.5q0 -124 -41 -233t-121.5 -179t-183.5 -70q-97 0 -143 66q-114 -70 -240 -70q-138 0 -215.5 85t-77.5 222q0 113 52.5 212t148 159.5t211.5 60.5q176 0 293 -131 l-74 -333q-19 -88 -19 -109q0 -68 66 -68q60 0 108.5 40t76 102t41.5 126.5t14 121.5q0 137 -64.5 237.5t-173 150.5t-246.5 50q-180 0 -324 -82t-225 -226.5t-81 -322.5q0 -161 71 -280t195 -179.5t284 -60.5q372 0 601 213l65 -76q-140 -128 -305 -182.5t-365 -54.5 q-188 0 -334.5 73t-231.5 215t-85 332zM580 573q0 -99 51.5 -157t148.5 -58q48 0 102 18t91 48l92 414q-71 71 -178 71q-127 0 -217 -102.5t-90 -233.5z" />
<glyph unicode="A" d="M59 0l439 1309q46 133 157 133q65 0 99.5 -35t56.5 -98l438 -1309h-145l-191 584h-518l-190 -584h-146zM434 707h438l-186 561q-1 4 -4 14.5t-4.5 14t-5 10t-7.5 8.5t-10 2q-5 0 -8.5 -2t-6 -4.5t-5 -8t-3.5 -9.5t-3.5 -12.5t-3.5 -12.5z" />
<glyph unicode="B" horiz-adv-x="1255" d="M203 0v1157q0 115 65 190t172 93q34 6 99 6h77q18 0 99 -6q139 -21 225 -115t86 -238q0 -92 -43.5 -176t-124.5 -135q120 -48 186 -143t66 -230q0 -159 -93.5 -262.5t-244.5 -130.5q-52 -10 -137 -10h-432zM334 123h319q160 0 240 75t80 205q0 137 -93.5 215t-261.5 78 h-284v-573zM334 819h244q66 0 96 6q95 18 156 88t61 170t-54.5 161t-152.5 73q-34 6 -88 6h-82q-82 0 -131 -41t-49 -129v-334z" />
<glyph unicode="C" horiz-adv-x="1386" d="M131 719q0 157 47.5 291.5t133.5 232.5t213.5 153.5t279.5 55.5q314 0 504 -221l-90 -98q-183 194 -416 194q-161 0 -283.5 -80t-186 -217t-63.5 -309t64.5 -309.5t189 -218t287.5 -80.5q257 0 430 178l76 -103q-209 -202 -508 -202q-205 0 -360 94.5t-236.5 260 t-81.5 378.5z" />
<glyph unicode="D" horiz-adv-x="1431" d="M203 0v1155q0 142 96 216.5t236 74.5h88q165 0 296.5 -59.5t214 -162t126 -232.5t43.5 -277t-42 -275.5t-121 -227t-204 -155.5t-281 -57h-452zM338 123h295q79 0 102 4q200 23 315 180.5t115 407.5q0 94 -20 181t-63 165t-105.5 135.5t-152.5 91t-199 33.5h-93 q-194 0 -194 -172v-1026z" />
<glyph unicode="E" horiz-adv-x="1116" d="M203 0v1124q0 51 6 78q19 96 87 160t167 74q36 6 86 6h438v-123h-459q-95 0 -143.5 -44t-48.5 -142v-322h579v-125h-579v-565h688v-121h-821z" />
<glyph unicode="F" horiz-adv-x="1056" d="M166 1124q0 24 6 78q19 96 87 160t167 74q36 6 80 6h446v-121h-463q-94 0 -141 -44t-47 -142v-318h567v-121h-567v-696h-133z" />
<glyph unicode="G" horiz-adv-x="1499" d="M123 707q0 158 49.5 295.5t137.5 237t216.5 157t280.5 57.5q154 0 280.5 -46.5t235.5 -150.5l-86 -104q-191 176 -430 176q-166 0 -291.5 -81t-190.5 -220.5t-65 -316.5q0 -275 146.5 -442t414.5 -167q183 0 312 60q35 16 49 37.5t14 68.5v318h-332v127h471v-457 q0 -77 -45 -131.5t-145 -93.5q-131 -51 -324 -51q-168 0 -301.5 55t-219.5 153t-131.5 230t-45.5 289z" />
<glyph unicode="H" horiz-adv-x="1443" d="M205 0v1442h137v-621h760v621h137v-1442h-137v692h-760v-692h-137z" />
<glyph unicode="I" horiz-adv-x="548" d="M205 0v1442h139v-1442h-139z" />
<glyph unicode="J" horiz-adv-x="1007" d="M141 49v139q142 -77 275 -77q113 0 176 59.5t72 163.5q4 28 4 86v1022h137v-1028q0 -61 -4 -97q-19 -153 -122 -243t-267 -90q-155 0 -271 65z" />
<glyph unicode="K" horiz-adv-x="1261" d="M203 2v1440h135v-629h121q137 0 219.5 45t134.5 164l178 420h144l-203 -473q-63 -144 -184 -215l475 -752h-160l-373 594q-43 67 -79 81.5t-140 14.5h-133v-690h-135z" />
<glyph unicode="L" horiz-adv-x="1103" d="M203 188v1254h137v-1256q0 -48 51 -59h623v-127h-619q-82 0 -137 52t-55 136z" />
<glyph unicode="M" horiz-adv-x="1720" d="M203 0v1305q0 66 40 107.5t103 41.5q109 0 164 -129l350 -811l350 811q59 129 168 129q67 0 103.5 -43t36.5 -111v-1300h-134v1303q0 10 -3.5 18t-8.5 8q-19 0 -35 -43l-415 -952h-123l-416 952q-19 43 -33 43t-14 -24v-1305h-133z" />
<glyph unicode="N" horiz-adv-x="1476" d="M203 0v1305q0 66 36.5 107.5t102.5 41.5q111 0 176 -137l574 -1165q7 -13 17 -25t17 -12q10 0 13.5 7.5t3.5 31.5v1288h131v-1303q0 -69 -37.5 -111t-101.5 -42q-108 0 -156 96q-82 166 -278.5 570.5t-305.5 621.5q-15 31 -24 42t-21 11q-6 0 -11 -9t-5 -22v-1296h-131z " />
<glyph unicode="O" horiz-adv-x="1564" d="M131 719q0 154 39.5 285.5t117.5 234.5t205.5 162t290.5 59q126 0 232.5 -38.5t182.5 -107t129.5 -161.5t79.5 -203t26 -231q0 -116 -26 -224.5t-80 -203t-129.5 -165t-182 -111t-230.5 -40.5q-130 0 -238.5 39t-184.5 107.5t-129 162.5t-78 203.5t-25 231.5zM268 721 q0 -129 31 -239t92.5 -196t162.5 -135t232 -49q104 0 189 33t143 90t98 136t58 169t18 191q0 129 -31.5 239t-93 194.5t-160 132.5t-223.5 48q-105 0 -191 -31.5t-145.5 -87.5t-100.5 -134t-60 -168.5t-19 -192.5z" />
<glyph unicode="P" horiz-adv-x="1167" d="M203 0v1157q0 112 61 185.5t166 95.5q37 6 102 6h84q64 0 105 -6q161 -27 259.5 -140.5t98.5 -283.5q0 -178 -96.5 -294t-255.5 -153q-72 -16 -164 -16h-225v-551h-135zM338 678h240q78 0 114 8q118 22 186 107t68 219q0 113 -64 198t-169 107q-35 6 -88 6h-95 q-64 0 -88 -8q-104 -31 -104 -152v-485z" />
<glyph unicode="Q" horiz-adv-x="1562" d="M129 715q0 160 41.5 294.5t121.5 235t205 157t283 56.5q124 0 230 -38t182.5 -105.5t130.5 -160.5t80.5 -204t26.5 -235q0 -233 -98 -418.5t-279 -269.5q21 -13 85 -60t111 -68.5t99 -21.5h129v-131h-123q-72 0 -134 23t-108.5 56t-91.5 65.5t-102.5 55.5t-122.5 23h-13 q-157 0 -282 57.5t-205.5 159t-123 236.5t-42.5 293zM266 717q0 -106 20 -199t61.5 -170.5t102 -133.5t145.5 -87t187 -31q126 0 224 48.5t158.5 133.5t92 196.5t31.5 242.5q0 130 -32 240.5t-93 194.5t-159 131.5t-222 47.5q-127 0 -226.5 -46.5t-162.5 -129.5t-95 -194 t-32 -244z" />
<glyph unicode="R" horiz-adv-x="1222" d="M203 0v1147q0 108 52.5 184t156.5 103q50 12 118 12h84q70 0 125 -10q149 -26 243.5 -127.5t94.5 -264.5q0 -150 -79 -250t-214 -143l398 -651h-160l-313 518q-37 64 -73.5 89.5t-92.5 25.5h-205v-633h-135zM338 756h283q143 0 231 72.5t88 213.5q0 101 -56 172t-147 95 q-43 12 -106 12h-117q-176 0 -176 -170v-395z" />
<glyph unicode="S" horiz-adv-x="1208" d="M115 223l116 78q58 -100 146.5 -140t228.5 -40q178 0 260 68.5t82 185.5q0 64 -26 113t-70.5 81t-101.5 57.5t-120.5 47.5t-127 45.5t-120.5 57t-101.5 77t-70.5 110t-26 150.5q0 151 108.5 241.5t323.5 90.5q50 0 90.5 -3.5t93 -16t94.5 -34.5t86 -62.5t77 -96.5 l-115 -72q-57 92 -140 126t-194 34q-286 0 -286 -203q0 -51 12 -88t46 -75.5t100.5 -72.5t170.5 -67q66 -21 116.5 -41t103 -47t89.5 -59.5t67 -73.5t45 -94t15 -115q0 -64 -16 -120.5t-53.5 -107t-93.5 -87t-140 -57.5t-190 -21q-354 0 -479 231z" />
<glyph unicode="T" horiz-adv-x="1069" d="M43 1321v121h985v-121h-424v-1321h-139v1321h-422z" />
<glyph unicode="U" horiz-adv-x="1411" d="M201 477v965h139v-957q0 -78 10 -123q23 -117 117 -186.5t270 -69.5q72 0 168 17t156 39v1280h139v-1376q-277 -91 -469 -91q-202 0 -331.5 80.5t-174.5 225.5q-24 76 -24 196z" />
<glyph unicode="V" horiz-adv-x="1306" d="M51 1442h152l430 -1280q6 -19 12 -29t10.5 -12t10.5 -2t9.5 1.5t9.5 11.5t13 30q20 57 414 1280h143l-428 -1311q-46 -143 -163 -143q-62 0 -101 36t-63 107z" />
<glyph unicode="W" horiz-adv-x="1908" d="M82 1442h139l291 -1282q10 -45 29 -45q16 0 30 45l318 932h129l317 -928q19 -49 35 -49q17 0 29 53l291 1274h137l-293 -1290q-39 -162 -164 -162q-68 0 -104.5 38t-59.5 109l-252 740l-252 -736q-25 -73 -61.5 -112t-103.5 -39q-126 0 -156 137z" />
<glyph unicode="X" horiz-adv-x="1275" d="M72 0l440 682q30 45 30 78q0 29 -22 61l-401 621h162l362 -572l363 572h151l-393 -619q-24 -39 -23 -64q0 -26 27 -69l444 -690h-159l-412 641l-410 -641h-159z" />
<glyph unicode="Y" horiz-adv-x="1157" d="M37 1442h153l388 -686l387 686h153l-409 -711q-64 -118 -64 -184v-547h-137v547q0 63 -66 184z" />
<glyph unicode="Z" horiz-adv-x="1222" d="M113 111q0 33 14 61.5t41 67.5l760 1058q12 17 -6 17h-715v127h737q59 0 97 -27.5t38 -81.5q0 -29 -12 -58t-49 -81q-415 -582 -752 -1047q-3 -5 -5 -8.5t-3 -6t0.5 -4t5.5 -1.5h838v-127h-854q-65 0 -100 31t-35 80z" />
<glyph unicode="[" horiz-adv-x="499" d="M123 -18v1495q0 83 48.5 134.5t121.5 51.5h106v-121h-120q-24 -4 -33.5 -17t-9.5 -40v-1514q0 -27 9.5 -40t35.5 -19h118v-119h-106q-73 0 -121.5 52t-48.5 137z" />
<glyph unicode="\" horiz-adv-x="845" d="M35 1473h137l602 -1475h-137z" />
<glyph unicode="]" horiz-adv-x="522" d="M131 -88h119q45 11 45 59v1514q0 26 -9.5 38.5t-35.5 16.5h-119v123h107q73 0 121.5 -51.5t48.5 -136.5v-1495q0 -100 -64 -150q-49 -37 -106 -37h-107v119z" />
<glyph unicode="^" horiz-adv-x="2115" d="M145 485q1 151 68 269t183 182.5t261 64.5q166 0 280.5 -73t170.5 -201q2 -6 5.5 -16t13 -43.5t13 -67.5t6.5 -88t-7 -104h-725q7 -93 77 -159.5t197 -66.5q142 0 242 78l141 -162q-144 -131 -409 -131q-101 0 -191.5 31t-164.5 91.5t-117.5 162.5t-43.5 233zM426 606 h444q-18 92 -72 141.5t-143 49.5q-88 0 -149 -52t-80 -139zM1378 -6v977h264v-103h5q43 64 113 94.5t151 30.5q69 0 129 -24v-238q-66 27 -144 27q-254 0 -254 -299v-465h-264z" />
<glyph unicode="_" horiz-adv-x="1097" d="M133 -328h834v-67h-834v67z" />
<glyph unicode="`" horiz-adv-x="1792" d="M219 717v653q0 35 24 57.5t58 22.5q62 0 90 -66l172 -383l170 383q28 66 90 66q34 0 58 -22.5t24 -57.5v-653h-86v637q0 11 -6 2l-213 -475h-76l-213 475q-3 7 -5 8l-1 -6v-641h-86zM1026 1077q0 163 103.5 269t267.5 106q171 0 286 -127l-63 -57q-94 104 -221 104 t-206 -82.5t-79 -210.5t78.5 -211.5t206.5 -83.5q75 0 131 22t112 75l46 -66q-116 -110 -289 -110q-167 0 -270 104.5t-103 267.5z" />
<glyph unicode="a" horiz-adv-x="1251" d="M123 481q0 146 59.5 265t176 191.5t270.5 72.5q204 0 317 -129v102h125v-983h-117l-2 8q-8 39 -42 39q-11 0 -25 -4q-22 -6 -63.5 -19.5t-63.5 -19.5q-77 -18 -142 -18q-225 0 -359 134t-134 361zM258 485q0 -174 96.5 -279.5t274.5 -105.5q155 0 311 88v394 q0 143 -88 228t-217 85q-122 0 -209 -57t-127.5 -148t-40.5 -205z" />
<glyph unicode="b" horiz-adv-x="1249" d="M180 0v1458h127v-622q62 85 155 127.5t206 42.5q212 0 338.5 -138.5t126.5 -361.5q0 -222 -134 -370t-350 -148q-85 0 -146 15.5t-132 49.5q-32 14 -48 4.5t-16 -37.5v-20h-127zM307 215q164 -115 332 -115q117 0 199.5 56t120.5 145.5t38 204.5q0 166 -87 273.5 t-251 107.5q-151 0 -251.5 -102.5t-100.5 -264.5v-305z" />
<glyph unicode="c" horiz-adv-x="1083" d="M123 498q0 142 61 257.5t172.5 183t253.5 67.5q136 0 228 -39t172 -129l-95 -80q-67 70 -139 101.5t-166 31.5q-155 0 -253.5 -113t-98.5 -270q0 -187 99.5 -296.5t265.5 -109.5q178 0 319 129l74 -92q-162 -151 -404 -151q-227 0 -358 142.5t-131 367.5z" />
<glyph unicode="d" horiz-adv-x="1247" d="M123 496q0 218 136 363t353 145q209 0 334 -125v581h123v-1460h-123v27q0 33 -28 33q-15 0 -37 -9q-137 -63 -277 -63q-227 0 -354 141.5t-127 366.5zM256 498q0 -173 91.5 -285.5t264.5 -112.5t324 109v387q0 127 -89 210t-229 83q-168 0 -265 -110.5t-97 -280.5z" />
<glyph unicode="e" horiz-adv-x="1175" d="M123 496q0 144 60 261t169.5 185t247.5 68q198 0 322 -121.5t135 -319.5q6 -78 6 -94h-803q5 -170 102.5 -273.5t270.5 -103.5q183 0 338 115l61 -98q-174 -133 -409 -133q-233 0 -366.5 143t-133.5 371zM264 588h654q-18 141 -99 225t-219 84q-132 0 -223.5 -88.5 t-112.5 -220.5z" />
<glyph unicode="f" horiz-adv-x="749" d="M186 0v1067q0 166 84 268.5t240 102.5q125 0 244 -76l-43 -109q-113 66 -195 66q-199 0 -199 -246v-123h349v-123h-349v-827h-131z" />
<glyph unicode="g" horiz-adv-x="1243" d="M121 494q0 143 59.5 258t176 183.5t270.5 68.5q204 0 320 -107.5t116 -278.5v-4v-3v-4v-3v-4v-3v-4v-3v-4v-4v-3v-4v-3v-4v-3v-4v-3v-4v-4v-3v-4v-3v-4v-4v-3v-4v-3v-4v-3v-4v-4v-3v-4v-3v-4v-4v-3v-4v-3v-4v-4v-3v-4v-3v-4v-4v-3v-4v-4v-3v-4v-4v-3v-4v-3v-4v-4v-3v-4 v-4v-3v-4v-4v-3v-4v-4v-3v-4v-4v-3v-4v-4v-3v-4v-4v-4v-3v-4v-4v-3v-4v-4v-4v-3v-4v-4v-3v-4v-4v-4v-3v-4v-4v-4v-4v-3v-4v-4v-4v-4v-3v-4v-4v-4v-4v-3v-4v-4v-4v-4v-4v-4v-3v-4v-4v-4v-4v-4v-4v-4v-4v-4v-4v-4v-4v-4v-4v-4v-4v-4v-4v-4v-4v-4v-4v-5v-4v-4v-4v-5v-4v-4v-4 v-5v-4v-5v-4v-5v-4v-5v-5v-4v-5v-5v-6v-5v-6v-6v-6v-8q1 -16 1 -31q0 -213 -116 -345q-125 -140 -354 -140q-193 0 -318 67l29 115q135 -66 287 -66q166 0 254 103.5t88 277.5v23q0 49 -36 49q-15 0 -36 -8q-143 -55 -260 -55q-151 0 -261 67t-165 181.5t-55 261.5zM260 496 q0 -84 20.5 -154.5t62.5 -125.5t111.5 -86.5t161.5 -31.5q156 0 314 97v407q0 134 -87 210.5t-227 76.5q-110 0 -192 -54t-123 -142t-41 -197z" />
<glyph unicode="h" horiz-adv-x="1173" d="M180 0v1456h135v-579q51 63 135.5 97t180.5 34q186 0 289.5 -109t103.5 -299v-600h-137v592q0 138 -65.5 216.5t-198.5 78.5q-135 0 -221.5 -83t-86.5 -229v-575h-135z" />
<glyph unicode="i" horiz-adv-x="532" d="M180 1268q0 88 88 88q86 0 86 -88q0 -90 -86 -90q-88 0 -88 90zM201 0v983h133v-983h-133z" />
<glyph unicode="j" horiz-adv-x="530" d="M-115 -481q44 -4 83 -4q57 0 106 9q81 16 130.5 51t81 89t43 111t11.5 125v1083h-129v-1077q0 -48 -3 -79t-20 -75.5t-48 -68.5t-94 -37q-35 -8 -80 -8q-33 0 -70 4zM188 1268q0 88 88 88q86 0 86 -88q0 -90 -86 -90q-88 0 -88 90z" />
<glyph unicode="k" horiz-adv-x="1079" d="M180 0v1456h131v-858h88q50 0 79 1.5t65 8t58.5 20.5t49 38t49 60.5t45.5 88.5l76 168h144l-117 -250q-57 -126 -158 -190l346 -543h-162l-237 381q-38 61 -66 80.5t-84 19.5h-176v-481h-131z" />
<glyph unicode="l" horiz-adv-x="491" d="M180 0v1456h133v-1456h-133z" />
<glyph unicode="m" horiz-adv-x="1787" d="M186 0v868q205 131 406 131q233 0 326 -122q58 57 147 89.5t195 32.5q185 0 278.5 -90.5t93.5 -281.5v-627h-137v610q0 142 -51.5 207.5t-194.5 65.5q-115 0 -193.5 -51t-78.5 -123v-709h-135v657q0 120 -58.5 173t-193.5 53q-69 0 -142.5 -23t-128.5 -55v-805h-133z" />
<glyph unicode="n" horiz-adv-x="1198" d="M186 0v868q87 62 201 99t221 37q210 0 323 -91.5t113 -279.5v-633h-137v606q0 279 -305 279q-72 0 -153.5 -24t-129.5 -56v-805h-133z" />
<glyph unicode="o" horiz-adv-x="1224" d="M115 498q0 141 63 257.5t177 185.5t255 69q146 0 260.5 -67t177 -183.5t62.5 -261.5q0 -146 -62.5 -263t-177 -184t-260.5 -67q-143 0 -256.5 68.5t-176 185.5t-62.5 260zM248 500q0 -169 98.5 -285.5t263.5 -116.5q163 0 265 114.5t102 287.5q0 105 -45.5 194.5 t-130.5 145t-191 55.5q-164 0 -263 -114t-99 -281z" />
<glyph unicode="p" horiz-adv-x="1208" d="M141 -412v971q0 198 124 322.5t339 124.5q216 0 348.5 -134t132.5 -368q0 -81 -18.5 -156t-58 -141.5t-97.5 -115t-142 -77t-185 -28.5q-133 0 -250 49q-23 11 -41.5 3t-18.5 -34v-1v-1v-1v-1v-1v-1v-1v-1v-1v-1v-1v-1v-1v-1v-1v-1v-1v-1v-1v-1v-1v-1v-1v-1v-1v-1v-1v-1 v-1v-1v-1v-1v-1v-1v-1v-1v-1v-1v-1v-1v-1v-1v-1v-1v-1v-1v-1v-1v-1v-1v-1v-1v-1v-1v-1v-1v-1v-1v-1v-1v-1v-1v-1v-1v-1v-1v-1v-1v-1v-1v-1v-1v-1v-1v-1v-1v-1v-1v-1v-1v-1v-1v-1v-1v-1v-1v-1v-1v-1v-1v-1v-1v-1v-1v-1v-1v-1v-1v-1v-1v-1v-1v-1v-1v-1v-1v-1v-1v-1v-1v-1v-1 v-1v-1v-1v-1v-1v-1v-1v-1v-1v-1v-1v-1v-1v-1v-1v-1v-1v-1v-1v-1v-1v-1v-1v-1v-1v-1v-1v-1v-1v-1v-1v-1v-1v-1v-1v-1v-1v-1v-1v-1v-1v-1v-1v-1v-1v-1v-1v-1v-1v-1v-1v-1v-1v-1v-1v-1v-1v-1v-1v-1v-1v-1v-1v-1v-1v-1v-1v-1v-1v-1v-1v-1v-1v-1v-1v-1v-1v-1v-1v-1v-1v-1v-1v-1 v-1v-1v-1v-1v-1v-1v-1v-1v-1v-1v-1v-1v-1v-1v-1v-1v-1v-1v-1v-1v-1v-1v-1v-1v-1v-1v-1v-1v-1v-1v-1v-1v-1v-1v-1v-1v-1v-1v-1v-1v-1v-1v-1v-1v-1v-1v-1v-1v-1v-1v-1v-1v-1v-1v-1v-1v-1v-1v-1v-1v-1v-1v-1v-1v-1v-1v-1v-1v-1v-1v-1v-1v-1v-1v-1v-1v-1v-1v-1v-1v-1v-1v-1v-1 v-1v-1v-1v-1v-1v-1v-1v-1v-1v-1v-1v-1v-1v-1v-1v-1v-1v-1v-1v-1v-1v-1v-1v-1v-1v-1v-1v-1v-1v-1v-1v-1v-1v-1v-1v-1v-1v-1v-1v-1v-1v-1v-1v-1v-1v-1v-1v-1v-1v-1v-1v-1v-1v-1v-1v-1v-1v-1v-1v-1v-1v-1v-1v-1v-1v-1v-1v-1v-1v-1v-1v-1v-1v-1v-1v-1v-1v-1v-1v-1v-1v-1v-1v-1 v-1v-1v-1v-1v-1v-1v-1v-1v-1v-1v-1v-1v-1v-1v-1v-1v-1v-1v-1v-1v-1v-1v-1v-1v-1v-1v-1v-1v-1v-1v-1v-1v-1v-1v-1v-1v-1v-1v-1v-1v-1v-1v-1v-9h-133zM276 195q85 -48 158 -69.5t156 -21.5q176 0 266 112t90 288q0 165 -90.5 272t-253.5 107q-159 0 -242.5 -91t-83.5 -247 v-350z" />
<glyph unicode="q" horiz-adv-x="1241" d="M123 489q0 144 63 261t177.5 185.5t259.5 68.5q198 -2 320 -108.5t122 -303.5v-840q0 -57 63 -57h48v-113h-58q-90 0 -138 46.5t-48 131.5v240q0 26 -17.5 34t-37.5 -1q-130 -51 -271 -51q-224 0 -353.5 138.5t-129.5 368.5zM258 496q0 -111 36 -198t117.5 -141.5 t198.5 -54.5q86 0 159 18t161 56v410q0 141 -82.5 219t-229.5 78q-164 0 -262 -111t-98 -276z" />
<glyph unicode="r" horiz-adv-x="854" d="M170 0v782q0 51 25.5 91.5t65 65t91 41t98.5 22.5t93 6q221 0 307 -121l-98 -80q-31 42 -89 62t-120 20q-90 0 -156 -27q-50 -21 -67 -48t-17 -81v-733h-133z" />
<glyph unicode="s" horiz-adv-x="976" d="M84 154l115 57q36 -69 100.5 -97t181.5 -28q273 0 273 147q0 76 -67.5 124.5t-190.5 82.5q-187 51 -277 121t-90 193q0 124 94.5 187t263.5 63q58 0 99 -4t96 -19t97.5 -50.5t70.5 -90.5l-109 -56q-60 111 -262 111q-40 0 -76 -6t-69.5 -20t-53.5 -41t-20 -64 q0 -43 18.5 -73t79 -63t170.5 -63q60 -16 107 -33.5t95 -44.5t79.5 -59.5t51.5 -78.5t20 -101q0 -49 -11 -88.5t-39.5 -75t-74 -59t-118 -37t-167.5 -13.5q-303 0 -387 179z" />
<glyph unicode="t" horiz-adv-x="745" d="M174 299v948h133v-264h328v-125h-328v-551q0 -95 48.5 -146.5t142.5 -51.5q97 0 209 41v-115q-96 -45 -230 -45q-144 0 -223.5 82t-79.5 227z" />
<glyph unicode="u" horiz-adv-x="1177" d="M164 371v610h131v-606q0 -279 330 -279q53 0 124.5 8.5t112.5 22.5v854h133v-946q-177 -60 -377 -60q-228 0 -341 101.5t-113 294.5z" />
<glyph unicode="v" horiz-adv-x="1099" d="M61 983h146l299 -786q34 -88 55 -88q16 0 28.5 22t28.5 66l289 786h140l-308 -825q-14 -37 -28 -63t-35 -52.5t-50 -40.5t-65 -14q-69 0 -106.5 43.5t-71.5 128.5z" />
<glyph unicode="w" horiz-adv-x="1665" d="M61 985h140l258 -833q16 -46 33 -46q20 0 32 48l254 829q30 1 60 1t59 -1l242 -829q14 -48 35 -48q19 0 34 48l258 831h136l-273 -864q-21 -67 -59 -101t-103 -34q-62 0 -99 36t-58 109l-176 608l-185 -608q-44 -147 -160 -147q-114 0 -157 141z" />
<glyph unicode="x" horiz-adv-x="1140" d="M96 0l330 453q33 45 33 73q0 26 -27 60l-297 397h160l268 -362l268 362h156l-295 -397q-25 -33 -25 -59q0 -28 33 -74l332 -453h-160l-313 424l-307 -424h-156z" />
<glyph unicode="y" horiz-adv-x="1247" d="M174 393v590h131v-584q0 -63 17 -115.5t52 -94.5t94 -65.5t138 -23.5q162 0 305 70v813h131v-983q0 -239 -118.5 -377.5t-345.5 -138.5q-175 0 -295 67l28 115q127 -65 264 -65q166 0 251 103t85 278v61q-138 -61 -305 -61q-201 0 -316.5 106.5t-115.5 304.5z" />
<glyph unicode="z" horiz-adv-x="970" d="M121 92q0 55 63 133l492 635h-496v123h533q47 0 77.5 -25t30.5 -67q0 -55 -53 -121l-498 -647h570v-123h-611q-47 0 -77.5 24t-30.5 68z" />
<glyph unicode="{" horiz-adv-x="735" d="M106 668v112q100 0 155.5 46.5t55.5 144.5v383q0 151 94.5 235t247.5 84v-119q-103 0 -156.5 -44.5t-53.5 -145.5v-395q0 -81 -37 -146.5t-95 -97.5q60 -33 96 -97.5t36 -146.5v-393q0 -102 53 -147t157 -45v-123q-153 0 -247.5 85t-94.5 236v383q0 95 -56.5 143 t-154.5 48z" />
<glyph unicode="|" horiz-adv-x="454" d="M164 -106v1755h125v-1755h-125z" />
<glyph unicode="}" horiz-adv-x="780" d="M123 -104q104 0 157.5 45t53.5 147v393q0 82 35.5 146.5t95.5 97.5q-58 32 -94.5 97.5t-36.5 146.5v395q0 100 -54 145t-157 45v119q153 0 247.5 -84t94.5 -235v-383q0 -98 55.5 -144.5t155.5 -46.5v-112q-98 0 -154.5 -48t-56.5 -143v-383q0 -151 -94.5 -236t-247.5 -85 v123z" />
<glyph unicode="~" horiz-adv-x="1775" d="M219 717v653q0 35 24 57.5t58 22.5q62 0 90 -66l172 -383l170 383q28 66 90 66q34 0 58 -22.5t24 -57.5v-653h-86v637q0 11 -6 2l-213 -475h-76l-213 475q-3 7 -5 8l-1 -6v-641h-86zM1065 821v166v307q0 69 46.5 109.5t119.5 40.5h106q158 0 248 -106t90 -261 q0 -99 -36.5 -179t-113.5 -130.5t-184 -50.5h-167q-46 0 -77.5 29t-31.5 75zM1155 815q0 -8 7 -14t16 -6h159q120 0 182 78.5t62 201.5q0 126 -63.5 209.5t-182.5 83.5h-96q-38 0 -61 -18.5t-23 -51.5v-483z" />
<glyph unicode="&#xa1;" horiz-adv-x="387" d="M100 1325q0 44 23 70t67 26q46 0 71.5 -25.5t25.5 -70.5t-26 -69.5t-71 -24.5q-44 0 -67 24.5t-23 69.5zM131 -66v1133h125v-1133h-125z" />
<glyph unicode="&#xa2;" horiz-adv-x="1032" d="M90 492q0 194 112 332.5t294 166.5v119h122v-115q110 -7 193 -49t158 -123l-88 -84q-111 120 -263 135v-768q163 13 291 130l72 -93q-156 -143 -363 -159v-131h-122v135q-191 26 -298.5 163t-107.5 341zM219 502q0 -160 73.5 -261t203.5 -128v755q-126 -26 -201.5 -128 t-75.5 -238z" />
<glyph unicode="&#xa3;" horiz-adv-x="952" d="M162 0v991q-2 185 103 295.5t286 110.5q261 0 364 -258l-110 -62q-36 101 -97 150t-157 49q-122 0 -192.5 -77.5t-67.5 -205.5q2 -57 2 -237h366v-121h-368v-514h651v-121h-780z" />
<glyph unicode="&#xa4;" horiz-adv-x="839" d="M133 936l45 45l94 -92q66 51 156 51q86 0 147 -47l82 84l45 -47l-81 -84q47 -62 47 -148q0 -92 -52 -153l93 -94l-45 -48l-95 97q-61 -43 -141 -43q-84 0 -149 47l-93 -94l-47 49l94 94q-47 56 -47 145q0 83 43 144zM248 700q0 -85 47 -135q50 -53 133 -53q81 0 131 53 q47 50 47 135q0 81 -49 136q-48 51 -129 51q-85 0 -133 -51q-47 -50 -47 -136z" />
<glyph unicode="&#xa5;" horiz-adv-x="1167" d="M90 1438h141l332 -658q2 -4 6 -11t6.5 -10t6.5 -3q10 0 22 24l336 658h137l-342 -684h289v-119h-373v-219h373v-123h-373v-293h-135v293h-373v123h373v219h-373v119h289z" />
<glyph unicode="&#xa6;" horiz-adv-x="337" d="M133 -145v610h74v-610h-74zM133 664v618h74v-618h-74z" />
<glyph unicode="&#xa7;" horiz-adv-x="1019" d="M66 70l114 61q43 -76 117 -109.5t199 -33.5q159 0 230 51.5t71 134.5q0 44 -23.5 82.5t-68 69.5t-95 55t-118.5 47q-192 67 -278.5 150.5t-86.5 218.5q0 106 78 178q-72 81 -72 192q0 134 100 207.5t279 73.5q61 0 105.5 -5t101 -21t101.5 -53t75 -95l-107 -62 q-67 123 -282 123q-60 0 -111.5 -12t-92 -48t-40.5 -93q0 -49 20.5 -86t86 -79.5t184.5 -84.5q57 -20 96.5 -36t85.5 -39.5t76 -49t57 -58.5t39.5 -75t12.5 -92q0 -111 -76 -193q82 -88 82 -201q0 -315 -443 -315q-144 0 -255.5 48t-161.5 149zM258 805q0 -37 10 -65.5 t38 -61t86 -64t147 -63.5q132 -47 202 -86q43 40 43 108q0 45 -19 80.5t-58.5 63.5t-84 48.5t-110.5 43.5q-139 50 -209 92q-45 -39 -45 -96z" />
<glyph unicode="&#xa8;" horiz-adv-x="655" d="M133 1010q0 37 20 58.5t56 21.5q39 0 60.5 -21.5t21.5 -58.5q0 -39 -21.5 -61.5t-60.5 -22.5q-36 0 -56 22.5t-20 61.5zM367 1010q0 37 19.5 58.5t57.5 21.5t59 -21.5t21 -58.5q0 -39 -21 -61.5t-59 -22.5q-37 0 -57 22.5t-20 61.5z" />
<glyph unicode="&#xa9;" horiz-adv-x="1323" d="M125 909q0 241 147 392t390 151t389.5 -151t146.5 -392q0 -240 -147 -390t-389 -150q-243 0 -390 150t-147 390zM217 909q0 -204 120.5 -327t324.5 -123t324 123t120 327t-120 328.5t-324 124.5t-324.5 -124.5t-120.5 -328.5zM342 911q0 148 89 249.5t241 101.5 q153 0 256 -123l-68 -64q-76 99 -188 99q-111 0 -174.5 -74.5t-63.5 -186.5q0 -113 62.5 -186.5t175.5 -73.5q60 0 106.5 18.5t95.5 67.5l52 -67q-102 -105 -254 -105t-241 98t-89 246z" />
<glyph unicode="&#xaa;" horiz-adv-x="874" d="M133 889q0 136 83 218.5t220 82.5q130 0 217 -84v74h80v-578h-78v86q-39 -47 -97 -72.5t-120 -25.5q-135 0 -220 82.5t-85 216.5zM207 891q0 -106 62.5 -169t168.5 -63q96 0 158.5 63.5t62.5 164.5q0 112 -55 173.5t-166 61.5q-105 0 -168 -63t-63 -168z" />
<glyph unicode="&#xab;" horiz-adv-x="919" d="M96 563l295 381h146l-291 -381l291 -381h-146zM395 563l293 381h150l-291 -381l291 -381h-150z" />
<glyph unicode="&#xac;" horiz-adv-x="1206" d="M115 651v119h979v-119h-979z" />
<glyph unicode="&#xad;" horiz-adv-x="974" d="M162 469v115h651v-115h-651z" />
<glyph unicode="&#xae;" horiz-adv-x="1323" d="M125 909q0 241 147 392t390 151t389.5 -151t146.5 -392q0 -240 -147 -390t-389 -150q-243 0 -390 150t-147 390zM217 909q0 -204 120.5 -327t324.5 -123t324 123t120 327t-120 328.5t-324 124.5t-324.5 -124.5t-120.5 -328.5zM449 594v526q0 65 47 103.5t112 38.5h60 q96 0 158.5 -51.5t62.5 -145.5q0 -68 -35 -116t-98 -72l172 -283h-103q-86 145 -137 229q-15 26 -28 34.5t-39 8.5h-82v-272h-90zM539 948h125q135 0 135 115q0 56 -37.5 86.5t-93.5 30.5h-58q-34 2 -52.5 -15t-18.5 -49v-168z" />
<glyph unicode="&#xaf;" horiz-adv-x="737" d="M127 1094v98h483v-98h-483z" />
<glyph unicode="&#xb0;" horiz-adv-x="655" d="M102 1231q0 94 66 159.5t160 65.5t159.5 -65.5t65.5 -159.5t-65.5 -159.5t-159.5 -65.5t-160 65.5t-66 159.5zM184 1231q0 -60 42 -102t102 -42t101.5 42t41.5 102t-41.5 101.5t-101.5 41.5t-102 -41.5t-42 -101.5z" />
<glyph unicode="&#xb1;" horiz-adv-x="1001" d="M133 248v110h729v-110h-729zM137 743v113h309v322h109v-322h315v-113h-315v-321h-109v321h-309z" />
<glyph unicode="&#xb2;" horiz-adv-x="819" d="M158 1217q53 192 250 192q245 0 245 -225q0 -82 -60 -147t-175 -126q-56 -29 -104 -86.5t-48 -119.5v-76h377v-88h-471l-2 135q0 103 58.5 182.5t156.5 132.5q172 94 172 189q0 139 -149 139q-67 0 -106 -32t-58 -103z" />
<glyph unicode="&#xb3;" horiz-adv-x="888" d="M152 772l102 29q25 -103 69 -140.5t123 -37.5q77 0 124.5 49t47.5 133q0 78 -51 123t-137 45h-65v96h59q65 0 101 40t36 99q0 52 -32 82.5t-85 30.5q-57 0 -90 -30t-55 -99l-100 33q64 196 245 196q94 0 162 -58.5t68 -156.5q0 -102 -90 -168q68 -30 107.5 -91.5 t39.5 -143.5q0 -128 -83 -204.5t-202 -76.5q-117 0 -189.5 57t-104.5 193z" />
<glyph unicode="&#xb4;" horiz-adv-x="548" d="M115 922l180 245h145l-223 -245h-102z" />
<glyph unicode="&#xb5;" horiz-adv-x="1048" d="M133 -369v1160h70v-3h2v-469q0 -118 65 -192q71 -80 185 -80q50 0 96 16q13 9 20 11q36 16 68 53q66 72 66 192v469h73v-446q0 -157 -82 -254q-48 -57 -110 -80q-2 -1 -6.5 -3.5t-6.5 -3.5t-5.5 -3.5t-5 -5t-4 -5.5t-3.5 -7q-6 -10 -2 -37q6 -41 70.5 -64t144.5 -26v-54 q-65 0 -128.5 16t-110 51t-46.5 81q0 27 4 39h-32q-168 0 -252 118v-473h-70z" />
<glyph unicode="&#xb6;" horiz-adv-x="997" d="M133 928q0 140 86.5 227.5t220.5 87.5h168q86 0 133 -48.5t47 -129.5v-1171h-114v1173q0 29 -12.5 43t-45.5 18h-36v-1234h-113v720q-143 2 -238.5 83t-95.5 231z" />
<glyph unicode="&#xb7;" horiz-adv-x="387" d="M106 606q0 86 89 86q86 0 86 -86q0 -90 -86 -90q-89 0 -89 90z" />
<glyph unicode="&#xb8;" horiz-adv-x="708" d="M135 -313l29 77q93 -59 176 -59q53 -1 79.5 21t24.5 57q0 64 -84 67q-47 3 -100 -10l39 250l84 -2l-16 -115q-3 -17 9 -25.5t27 -8.5q67 -3 107.5 -44t40.5 -106q0 -84 -59.5 -128.5t-147.5 -41.5q-122 4 -209 68z" />
<glyph unicode="&#xb9;" horiz-adv-x="503" d="M162 1196v90l88 60q44 31 69 18t25 -68v-759h-80v727z" />
<glyph unicode="&#xba;" horiz-adv-x="743" d="M78 893q0 129 82.5 212t212.5 83q134 0 213.5 -80.5t79.5 -214.5q0 -132 -80.5 -214.5t-212.5 -82.5q-130 0 -212.5 83.5t-82.5 213.5zM152 895q0 -99 61.5 -165t159.5 -66q99 0 161 66t62 165t-62 165t-161 66q-97 0 -159 -67t-62 -164z" />
<glyph unicode="&#xbb;" horiz-adv-x="919" d="M82 182l289 381l-289 381h147l293 -381l-293 -381h-147zM383 182l291 381l-291 381h143l295 -381l-295 -381h-143z" />
<glyph unicode="&#xbc;" horiz-adv-x="1650" d="M162 1196v90l88 60q44 31 69 18t25 -68v-759h-80v727zM211 -25l944 1448h86l-944 -1448h-86zM891 299q0 34 24 68l365 503h96v-551h113v-92h-113v-227h-98v227h-287q-43 0 -71.5 18t-28.5 54zM1001 319h3h274v386z" />
<glyph unicode="&#xbd;" horiz-adv-x="1662" d="M162 1196v90l88 60q44 31 69 18t25 -68v-759h-80v727zM211 -25l944 1448h86l-944 -1448h-86zM1004 676l86 -33q19 71 57.5 103t105.5 32q150 0 150 -139q0 -31 -16 -60.5t-45.5 -54t-54 -40t-56.5 -33.5q-98 -53 -156.5 -133t-58.5 -183l2 -135h473v88h-379v76 q0 62 48 120t104 87q116 61 175.5 125.5t59.5 146.5q0 225 -246 225q-196 0 -249 -192z" />
<glyph unicode="&#xbe;" horiz-adv-x="1718" d="M152 772l102 29q25 -103 69 -140.5t123 -37.5q77 0 124.5 49t47.5 133q0 78 -51 123t-137 45h-65v96h59q65 0 101 40t36 99q0 52 -32 82.5t-85 30.5q-57 0 -90 -30t-55 -99l-100 33q64 196 245 196q94 0 162 -58.5t68 -156.5q0 -102 -90 -168q68 -30 107.5 -91.5 t39.5 -143.5q0 -128 -83 -204.5t-202 -76.5q-117 0 -189.5 57t-104.5 193zM403 -25l943 1448h84l-945 -1448h-82zM961 299q0 34 24 68l367 503h96v-551h113v-92h-113v-227h-100v227h-285q-45 0 -73.5 18t-28.5 54zM1069 319h4h275v386z" />
<glyph unicode="&#xbf;" horiz-adv-x="927" d="M98 272q0 61 18 115t47 96t64 82t70 80.5t64 82.5t47 96.5t18 115.5v127h129v-123q0 -39 -5.5 -76t-12.5 -65t-23.5 -61t-27 -52.5t-35.5 -52.5t-37 -47.5t-44 -51.5t-44 -51q-48 -57 -73.5 -107t-25.5 -110q0 -88 56.5 -139t175.5 -51q201 0 276 147l115 -51 q-57 -120 -162 -171.5t-231 -51.5q-172 0 -265.5 86t-93.5 233zM399 1325q0 44 23 70t67 26q45 0 71 -25.5t26 -70.5t-26 -69.5t-71 -24.5q-44 0 -67 24.5t-23 69.5z" />
<glyph unicode="&#xc0;" d="M59 0l439 1309q46 133 157 133q65 0 99.5 -35t56.5 -98l438 -1309h-145l-191 584h-518l-190 -584h-146zM393 1884h162l219 -303h-102zM434 707h438l-186 561q-1 4 -4 14.5t-4.5 14t-5 10t-7.5 8.5t-10 2q-5 0 -8.5 -2t-6 -4.5t-5 -8t-3.5 -9.5t-3.5 -12.5t-3.5 -12.5z " />
<glyph unicode="&#xc1;" d="M59 0l439 1309q46 133 157 133q65 0 99.5 -35t56.5 -98l438 -1309h-145l-191 584h-518l-190 -584h-146zM434 707h438l-186 561q-1 4 -4 14.5t-4.5 14t-5 10t-7.5 8.5t-10 2q-5 0 -8.5 -2t-6 -4.5t-5 -8t-3.5 -9.5t-3.5 -12.5t-3.5 -12.5zM494 1581l219 303h161l-278 -303 h-102z" />
<glyph unicode="&#xc2;" d="M59 0l439 1309q46 133 157 133q65 0 99.5 -35t56.5 -98l438 -1309h-145l-191 584h-518l-190 -584h-146zM369 1579l200 258q40 51 93.5 50t93.5 -54l198 -254h-108l-187 199l-186 -199h-104zM434 707h438l-186 561q-1 4 -4 14.5t-4.5 14t-5 10t-7.5 8.5t-10 2 q-5 0 -8.5 -2t-6 -4.5t-5 -8t-3.5 -9.5t-3.5 -12.5t-3.5 -12.5z" />
<glyph unicode="&#xc3;" d="M59 0l439 1309q46 133 157 133q65 0 99.5 -35t56.5 -98l438 -1309h-145l-191 584h-518l-190 -584h-146zM344 1620q48 65 83 94t91 39q44 7 81 -0.5t62 -22.5t48.5 -31t50.5 -24t57 -2q65 12 115 84l67 -55q-74 -112 -176 -123q-48 -6 -85.5 1.5t-61.5 22t-45 29t-46 22.5 t-55 3q-65 -11 -112 -84zM434 707h438l-186 561q-1 4 -4 14.5t-4.5 14t-5 10t-7.5 8.5t-10 2q-5 0 -8.5 -2t-6 -4.5t-5 -8t-3.5 -9.5t-3.5 -12.5t-3.5 -12.5z" />
<glyph unicode="&#xc4;" d="M59 0l439 1309q46 133 157 133q65 0 99.5 -35t56.5 -98l438 -1309h-145l-191 584h-518l-190 -584h-146zM410 1663q0 86 88 86q86 0 86 -86q0 -90 -86 -90q-88 0 -88 90zM434 707h438l-186 561q-1 4 -4 14.5t-4.5 14t-5 10t-7.5 8.5t-10 2q-5 0 -8.5 -2t-6 -4.5t-5 -8 t-3.5 -9.5t-3.5 -12.5t-3.5 -12.5zM735 1663q0 86 88 86q86 0 86 -86q0 -90 -86 -90q-88 0 -88 90z" />
<glyph unicode="&#xc5;" d="M59 0l439 1309q46 133 157 133q65 0 99.5 -35t56.5 -98l438 -1309h-145l-191 584h-518l-190 -584h-146zM434 707h438l-186 561q-1 4 -4 14.5t-4.5 14t-5 10t-7.5 8.5t-10 2q-5 0 -8.5 -2t-6 -4.5t-5 -8t-3.5 -9.5t-3.5 -12.5t-3.5 -12.5zM469 1763q0 86 52 138.5 t138 52.5q88 0 140.5 -51.5t52.5 -139.5q0 -86 -53.5 -139t-139.5 -53t-138 53.5t-52 138.5zM553 1763q0 -51 29 -79.5t80 -28.5q50 0 78 29t28 79q0 46 -30.5 78.5t-75.5 32.5q-46 0 -77.5 -32t-31.5 -79z" />
<glyph unicode="&#xc6;" horiz-adv-x="1898" d="M29 0l825 1284q35 56 58.5 84.5t65.5 50t99 21.5h731v-123h-694v-533h615v-116h-615v-488q0 -24 12.5 -37.5t42.5 -19.5h639v-123h-634q-83 0 -139 52.5t-56 133.5v478h-379l-426 -664h-145zM678 784h301v473z" />
<glyph unicode="&#xc7;" horiz-adv-x="1441" d="M170 713q0 158 48 294t134.5 234.5t214 154.5t279.5 56q279 0 502 -229l-93 -99q-184 199 -415 199q-161 0 -283 -79.5t-185 -216.5t-63 -310q0 -266 147 -437t394 -171t430 186l78 -113q-104 -99 -230.5 -150.5t-257.5 -56.5q-2 -25 -6 -45q-2 -14 5 -20.5t24 -5.5 q64 2 102.5 -34.5t38.5 -102.5q0 -83 -58.5 -126.5t-144.5 -43.5q-107 0 -206 57l34 84q40 -27 88 -39t82 -10q47 0 71 18.5t24 46.5q0 29 -21 47.5t-57 18.5q-65 0 -105 -15l35 175q-184 16 -322.5 114.5t-211 258.5t-72.5 360z" />
<glyph unicode="&#xc8;" horiz-adv-x="1116" d="M203 0v1124q0 51 6 78q19 96 87 160t167 74q36 6 86 6h438v-123h-459q-95 0 -143.5 -44t-48.5 -142v-322h579v-125h-579v-565h688v-121h-821zM408 1884h161l219 -303h-102z" />
<glyph unicode="&#xc9;" horiz-adv-x="1116" d="M203 0v1124q0 51 6 78q19 96 87 160t167 74q36 6 86 6h438v-123h-459q-95 0 -143.5 -44t-48.5 -142v-322h579v-125h-579v-565h688v-121h-821zM494 1581l219 303h161l-278 -303h-102z" />
<glyph unicode="&#xca;" horiz-adv-x="1116" d="M203 0v1124q0 51 6 78q19 96 87 160t167 74q36 6 86 6h438v-123h-459q-95 0 -143.5 -44t-48.5 -142v-322h579v-125h-579v-565h688v-121h-821zM336 1579l201 258q40 51 93 50t93 -54l199 -254h-109l-186 199l-187 -199h-104z" />
<glyph unicode="&#xcb;" horiz-adv-x="1116" d="M203 0v1124q0 51 6 78q19 96 87 160t167 74q36 6 86 6h438v-123h-459q-95 0 -143.5 -44t-48.5 -142v-322h579v-125h-579v-565h688v-121h-821zM393 1663q0 86 88 86q86 0 86 -86q0 -90 -86 -90q-88 0 -88 90zM719 1663q0 86 88 86q86 0 86 -86q0 -90 -86 -90q-88 0 -88 90 z" />
<glyph unicode="&#xcc;" horiz-adv-x="526" d="M84 1884h162l221 -303h-102zM195 0v1442h139v-1442h-139z" />
<glyph unicode="&#xcd;" horiz-adv-x="530" d="M100 1581l222 303h161l-278 -303h-105zM197 0v1442h139v-1442h-139z" />
<glyph unicode="&#xce;" horiz-adv-x="528" d="M-29 1579l201 258q40 51 93.5 50t94.5 -54l197 -254h-106l-187 199l-188 -199h-105zM195 0v1442h139v-1442h-139z" />
<glyph unicode="&#xcf;" horiz-adv-x="526" d="M14 1663q0 86 88 86q86 0 86 -86q0 -90 -86 -90q-88 0 -88 90zM197 0v1442h139v-1442h-139zM340 1663q0 86 88 86q86 0 86 -86q0 -90 -86 -90q-88 0 -88 90z" />
<glyph unicode="&#xd0;" horiz-adv-x="1226" d="M133 582v67h96v410q0 64 39 100q39 39 107 39h198q246 0 390 -182q133 -171 133 -422q0 -258 -117 -414q-131 -178 -377 -178h-225q-46 0 -94 33q-52 35 -52 104l-2 443h-96zM303 1059l2 -410h363v-67h-363v-443q0 -58 64 -67l229 -2q211 -3 326 159q94 137 94 365 q0 223 -111 371q-123 163 -338 163h-202q-64 -12 -64 -69z" />
<glyph unicode="&#xd1;" horiz-adv-x="1476" d="M203 0v1305q0 66 36.5 107.5t102.5 41.5q111 0 176 -137l574 -1165q7 -13 17 -25t17 -12q10 0 13.5 7.5t3.5 31.5v1288h131v-1303q0 -69 -37.5 -111t-101.5 -42q-108 0 -156 96q-82 166 -278.5 570.5t-305.5 621.5q-15 31 -24 42t-21 11q-6 0 -11 -9t-5 -22v-1296h-131z M422 1620q46 64 80.5 93.5t91.5 39.5q53 9 98 -4.5t71 -34t60.5 -35t69.5 -6.5q65 12 115 84l67 -55q-74 -112 -176 -123q-47 -6 -84.5 1.5t-61.5 22t-45 29t-46.5 22.5t-55.5 3q-62 -11 -112 -84z" />
<glyph unicode="&#xd2;" horiz-adv-x="1564" d="M131 719q0 154 39.5 285.5t117.5 234.5t205.5 162t290.5 59q126 0 232.5 -38.5t182.5 -107t129.5 -161.5t79.5 -203t26 -231q0 -116 -26 -224.5t-80 -203t-129.5 -165t-182 -111t-230.5 -40.5q-130 0 -238.5 39t-184.5 107.5t-129 162.5t-78 203.5t-25 231.5zM268 721 q0 -129 31 -239t92.5 -196t162.5 -135t232 -49q104 0 189 33t143 90t98 136t58 169t18 191q0 129 -31.5 239t-93 194.5t-160 132.5t-223.5 48q-105 0 -191 -31.5t-145.5 -87.5t-100.5 -134t-60 -168.5t-19 -192.5zM588 1884h162l219 -303h-103z" />
<glyph unicode="&#xd3;" horiz-adv-x="1564" d="M131 719q0 154 39.5 285.5t117.5 234.5t205.5 162t290.5 59q126 0 232.5 -38.5t182.5 -107t129.5 -161.5t79.5 -203t26 -231q0 -116 -26 -224.5t-80 -203t-129.5 -165t-182 -111t-230.5 -40.5q-130 0 -238.5 39t-184.5 107.5t-129 162.5t-78 203.5t-25 231.5zM268 721 q0 -129 31 -239t92.5 -196t162.5 -135t232 -49q104 0 189 33t143 90t98 136t58 169t18 191q0 129 -31.5 239t-93 194.5t-160 132.5t-223.5 48q-105 0 -191 -31.5t-145.5 -87.5t-100.5 -134t-60 -168.5t-19 -192.5zM618 1581l220 303h161l-278 -303h-103z" />
<glyph unicode="&#xd4;" horiz-adv-x="1564" d="M131 719q0 154 39.5 285.5t117.5 234.5t205.5 162t290.5 59q126 0 232.5 -38.5t182.5 -107t129.5 -161.5t79.5 -203t26 -231q0 -116 -26 -224.5t-80 -203t-129.5 -165t-182 -111t-230.5 -40.5q-130 0 -238.5 39t-184.5 107.5t-129 162.5t-78 203.5t-25 231.5zM268 721 q0 -129 31 -239t92.5 -196t162.5 -135t232 -49q104 0 189 33t143 90t98 136t58 169t18 191q0 129 -31.5 239t-93 194.5t-160 132.5t-223.5 48q-105 0 -191 -31.5t-145.5 -87.5t-100.5 -134t-60 -168.5t-19 -192.5zM489 1579l201 258q40 51 94 50t95 -54l196 -254h-106 l-189 199l-186 -199h-105z" />
<glyph unicode="&#xd5;" horiz-adv-x="1564" d="M131 719q0 154 39.5 285.5t117.5 234.5t205.5 162t290.5 59q126 0 232.5 -38.5t182.5 -107t129.5 -161.5t79.5 -203t26 -231q0 -116 -26 -224.5t-80 -203t-129.5 -165t-182 -111t-230.5 -40.5q-130 0 -238.5 39t-184.5 107.5t-129 162.5t-78 203.5t-25 231.5zM268 721 q0 -129 31 -239t92.5 -196t162.5 -135t232 -49q104 0 189 33t143 90t98 136t58 169t18 191q0 129 -31.5 239t-93 194.5t-160 132.5t-223.5 48q-105 0 -191 -31.5t-145.5 -87.5t-100.5 -134t-60 -168.5t-19 -192.5zM479 1620q48 65 83 94t91 39q44 7 81 -0.5t62 -22.5 t48.5 -31t50.5 -24t57 -2q65 12 115 84l68 -55q-74 -112 -177 -123q-48 -6 -85.5 1.5t-61 22t-44.5 29t-46 22.5t-55 3q-66 -11 -113 -84z" />
<glyph unicode="&#xd6;" horiz-adv-x="1564" d="M131 719q0 154 39.5 285.5t117.5 234.5t205.5 162t290.5 59q126 0 232.5 -38.5t182.5 -107t129.5 -161.5t79.5 -203t26 -231q0 -116 -26 -224.5t-80 -203t-129.5 -165t-182 -111t-230.5 -40.5q-130 0 -238.5 39t-184.5 107.5t-129 162.5t-78 203.5t-25 231.5zM268 721 q0 -129 31 -239t92.5 -196t162.5 -135t232 -49q104 0 189 33t143 90t98 136t58 169t18 191q0 129 -31.5 239t-93 194.5t-160 132.5t-223.5 48q-105 0 -191 -31.5t-145.5 -87.5t-100.5 -134t-60 -168.5t-19 -192.5zM530 1663q0 86 88 86q87 0 87 -86q0 -90 -87 -90 q-88 0 -88 90zM856 1663q0 86 88 86q86 0 86 -86q0 -90 -86 -90q-88 0 -88 90z" />
<glyph unicode="&#xd7;" horiz-adv-x="1064" d="M76 852l53 53l399 -401l402 401l53 -53l-399 -401l403 -404l-53 -55l-404 405l-401 -401l-51 55l399 402z" />
<glyph unicode="&#xd8;" horiz-adv-x="1564" d="M131 719q0 154 39.5 285.5t117.5 234.5t205.5 162t290.5 59q103 0 179 -20l36 104h134l-52 -149q171 -87 262 -268t91 -408q0 -116 -26 -224.5t-80 -203t-129.5 -165t-182 -111t-230.5 -40.5q-92 0 -182 23l-39 -115h-133l53 158q-174 85 -264 266t-90 412zM268 721 q0 -189 65.5 -336t194.5 -221l396 1155q-57 16 -140 16q-105 0 -191 -31.5t-145.5 -87.5t-100.5 -134t-60 -168.5t-19 -192.5zM645 119q61 -17 141 -17q104 0 189 33t143 90t98 136t58 169t18 191q0 186 -64.5 331.5t-189.5 219.5z" />
<glyph unicode="&#xd9;" horiz-adv-x="1411" d="M201 477v965h139v-957q0 -78 10 -123q23 -117 117 -186.5t270 -69.5q72 0 168 17t156 39v1280h139v-1376q-277 -91 -469 -91q-202 0 -331.5 80.5t-174.5 225.5q-24 76 -24 196zM473 1884h162l219 -303h-102z" />
<glyph unicode="&#xda;" horiz-adv-x="1411" d="M201 477v965h139v-957q0 -78 10 -123q23 -117 117 -186.5t270 -69.5q72 0 168 17t156 39v1280h139v-1376q-277 -91 -469 -91q-202 0 -331.5 80.5t-174.5 225.5q-24 76 -24 196zM549 1581l219 303h162l-279 -303h-102z" />
<glyph unicode="&#xdb;" horiz-adv-x="1411" d="M201 477v965h139v-957q0 -78 10 -123q23 -117 117 -186.5t270 -69.5q72 0 168 17t156 39v1280h139v-1376q-277 -91 -469 -91q-202 0 -331.5 80.5t-174.5 225.5q-24 76 -24 196zM412 1579l200 258q40 51 93.5 50t93.5 -54l198 -254h-108l-187 199l-186 -199h-104z" />
<glyph unicode="&#xdc;" horiz-adv-x="1411" d="M201 477v965h139v-957q0 -78 10 -123q23 -117 117 -186.5t270 -69.5q72 0 168 17t156 39v1280h139v-1376q-277 -91 -469 -91q-202 0 -331.5 80.5t-174.5 225.5q-24 76 -24 196zM451 1663q0 86 88 86q86 0 86 -86q0 -90 -86 -90q-88 0 -88 90zM776 1663q0 86 88 86 q86 0 86 -86q0 -90 -86 -90q-88 0 -88 90z" />
<glyph unicode="&#xde;" horiz-adv-x="999" d="M133 0v641v549h72v-344l9 12t12 15t12 12q96 102 266 102q166 0 262 -102q102 -108 102 -267q0 -156 -102 -264q-101 -104 -262 -104q-165 0 -266 104q-18 18 -33 39v-393h-72zM205 616q0 -128 76 -210q75 -84 215 -84q130 0 211 84q77 83 77 210q0 130 -77 213 q-78 84 -211 84q-132 0 -213 -84q-78 -81 -78 -213z" />
<glyph unicode="&#xdf;" horiz-adv-x="1128" d="M180 2v690v320q0 209 97 327.5t296 118.5q162 0 247 -69.5t85 -210.5q0 -85 -37.5 -147.5t-109.5 -115.5q-50 -36 -71.5 -52t-47.5 -38.5t-34.5 -37.5t-8.5 -31q0 -10 8 -22.5t24.5 -26t31.5 -24.5t39.5 -25t36.5 -21t35 -18.5t24 -12.5q137 -74 197.5 -172.5 t60.5 -230.5q0 -71 -21 -132.5t-67 -115t-129.5 -84.5t-196.5 -31h-162v119h180q125 0 191.5 67.5t66.5 174.5q0 60 -17 108.5t-43.5 79.5t-66.5 60t-76.5 48t-84 46.5t-80.5 52.5q-44 35 -67 69.5t-23 86.5q0 36 9 64t31.5 52.5t36.5 36.5t48 37q16 12 45 32t44.5 31.5 t36.5 31.5t31.5 37.5t18.5 43.5t8 56q0 85 -52.5 126t-133.5 41q-149 0 -209 -89.5t-60 -256.5v-993h-131z" />
<glyph unicode="&#xe0;" horiz-adv-x="1251" d="M123 481q0 146 59.5 265t176 191.5t270.5 72.5q204 0 317 -129v102h125v-983h-117l-2 8q-10 52 -67 35q-22 -6 -63.5 -19.5t-63.5 -19.5q-77 -18 -142 -18q-225 0 -359 134t-134 361zM258 485q0 -174 96.5 -279.5t274.5 -105.5q155 0 311 88v394q0 143 -88 228t-217 85 q-122 0 -209 -57t-127.5 -148t-40.5 -205zM344 1438h162l221 -301h-104z" />
<glyph unicode="&#xe1;" horiz-adv-x="1251" d="M123 481q0 146 59.5 265t176 191.5t270.5 72.5q204 0 317 -129v102h125v-983h-117l-2 8q-10 52 -67 35q-22 -6 -63.5 -19.5t-63.5 -19.5q-77 -18 -142 -18q-225 0 -359 134t-134 361zM258 485q0 -174 96.5 -279.5t274.5 -105.5q155 0 311 88v394q0 143 -88 228t-217 85 q-122 0 -209 -57t-127.5 -148t-40.5 -205zM500 1137l221 301h162l-279 -301h-104z" />
<glyph unicode="&#xe2;" horiz-adv-x="1251" d="M123 481q0 146 59.5 265t176 191.5t270.5 72.5q204 0 317 -129v102h125v-983h-117l-2 8q-10 52 -67 35q-22 -6 -63.5 -19.5t-63.5 -19.5q-77 -18 -142 -18q-225 0 -359 134t-134 361zM258 485q0 -174 96.5 -279.5t274.5 -105.5q155 0 311 88v394q0 143 -88 228t-217 85 q-122 0 -209 -57t-127.5 -148t-40.5 -205zM330 1135l200 258q40 51 93.5 50t93.5 -54l198 -254h-108l-186 198l-187 -198h-104z" />
<glyph unicode="&#xe3;" horiz-adv-x="1251" d="M123 481q0 146 59.5 265t176 191.5t270.5 72.5q204 0 317 -129v102h125v-983h-117l-2 8q-10 52 -67 35q-22 -6 -63.5 -19.5t-63.5 -19.5q-77 -18 -142 -18q-225 0 -359 134t-134 361zM258 485q0 -174 96.5 -279.5t274.5 -105.5q155 0 311 88v394q0 143 -88 228t-217 85 q-122 0 -209 -57t-127.5 -148t-40.5 -205zM309 1214q33 44 52.5 66t51 41.5t70.5 26.5q44 7 81 -0.5t62 -22.5t48.5 -31t50.5 -24t57 -2q65 12 115 84l68 -56q-73 -111 -177 -122q-48 -6 -85.5 1.5t-61 21.5t-44.5 28.5t-46 22.5t-55 3q-66 -11 -113 -84z" />
<glyph unicode="&#xe4;" horiz-adv-x="1251" d="M123 481q0 146 59.5 265t176 191.5t270.5 72.5q204 0 317 -129v102h125v-983h-117l-2 8q-10 52 -67 35q-22 -6 -63.5 -19.5t-63.5 -19.5q-77 -18 -142 -18q-225 0 -359 134t-134 361zM258 485q0 -174 96.5 -279.5t274.5 -105.5q155 0 311 88v394q0 143 -88 228t-217 85 q-122 0 -209 -57t-127.5 -148t-40.5 -205zM373 1255q0 86 86 86t86 -86q0 -90 -86 -90t-86 90zM698 1255q0 86 86 86t86 -86q0 -90 -86 -90t-86 90z" />
<glyph unicode="&#xe5;" horiz-adv-x="1251" d="M123 481q0 146 59.5 265t176 191.5t270.5 72.5q204 0 317 -129v102h125v-983h-117l-2 8q-10 52 -67 35q-22 -6 -63.5 -19.5t-63.5 -19.5q-77 -18 -142 -18q-225 0 -359 134t-134 361zM258 485q0 -174 96.5 -279.5t274.5 -105.5q155 0 311 88v394q0 143 -88 228t-217 85 q-122 0 -209 -57t-127.5 -148t-40.5 -205zM438 1339q0 86 52.5 138.5t138.5 52.5q87 0 139.5 -52t52.5 -139q0 -86 -53 -139t-139 -53t-138.5 53.5t-52.5 138.5zM522 1339q0 -51 29 -79.5t80 -28.5t78.5 28.5t27.5 79.5q0 46 -30.5 78.5t-75.5 32.5q-47 0 -78 -32.5 t-31 -78.5z" />
<glyph unicode="&#xe6;" horiz-adv-x="2002" d="M131 469q0 102 34.5 194.5t97 163.5t158.5 112.5t212 41.5q148 0 247 -53t150 -142q62 96 163.5 148.5t225.5 52.5q193 0 311.5 -121t137.5 -317l8 -92h-793q9 -165 106.5 -260t260.5 -95q152 0 336 117l57 -102q-102 -67 -193.5 -98t-203.5 -31q-236 0 -369 139v-127 h-114q0 1 -2 10t-4 16t-6.5 14t-10.5 7q-7 0 -43 -12q-141 -51 -272 -51q-226 0 -360 133t-134 352zM264 471q0 -167 97 -268t274 -101q149 0 309 80v369q0 73 -8 106q-23 99 -101 153t-194 54q-121 0 -208 -54.5t-128 -142t-41 -196.5zM1085 571h646q-24 143 -102.5 222 t-209.5 79q-132 0 -221.5 -80.5t-112.5 -220.5z" />
<glyph unicode="&#xe7;" horiz-adv-x="1107" d="M121 492q0 215 135.5 358t349.5 143q139 0 226.5 -38t171.5 -130l-99 -77q-65 68 -136 99.5t-165 31.5q-154 0 -251 -110.5t-97 -266.5q0 -185 97.5 -293.5t262.5 -108.5q177 0 318 129l72 -90q-84 -78 -173 -113.5t-198 -37.5l-10 -60q-2 -11 5 -17.5t23 -6.5 q60 0 99 -37.5t39 -95.5q0 -80 -61 -122t-146 -42q-94 0 -189 53l29 76q94 -48 162 -45q100 0 100 73q0 68 -78 68q-55 0 -90 -14l31 172q-200 18 -314 156t-114 346z" />
<glyph unicode="&#xe8;" horiz-adv-x="1175" d="M121 496q0 144 60 261t169.5 185t247.5 68q198 0 322 -121.5t135 -319.5q6 -78 6 -94h-803q5 -170 102.5 -273.5t270.5 -103.5q183 0 338 115l61 -98q-174 -133 -409 -133q-233 0 -366.5 143t-133.5 371zM262 588h653q-18 141 -98.5 225t-218.5 84q-132 0 -223.5 -88.5 t-112.5 -220.5zM342 1438h162l221 -301h-104z" />
<glyph unicode="&#xe9;" horiz-adv-x="1175" d="M121 496q0 144 60 261t169.5 185t247.5 68q198 0 322 -121.5t135 -319.5q6 -78 6 -94h-803q5 -170 102.5 -273.5t270.5 -103.5q183 0 338 115l61 -98q-174 -133 -409 -133q-233 0 -366.5 143t-133.5 371zM262 588h653q-18 141 -98.5 225t-218.5 84q-132 0 -223.5 -88.5 t-112.5 -220.5zM494 1137l221 301h162l-279 -301h-104z" />
<glyph unicode="&#xea;" horiz-adv-x="1175" d="M121 496q0 144 60 261t169.5 185t247.5 68q198 0 322 -121.5t135 -319.5q6 -78 6 -94h-803q5 -170 102.5 -273.5t270.5 -103.5q183 0 338 115l61 -98q-174 -133 -409 -133q-233 0 -366.5 143t-133.5 371zM262 588h653q-18 141 -98.5 225t-218.5 84q-132 0 -223.5 -88.5 t-112.5 -220.5zM299 1135l201 258q40 51 93 50t93 -54l199 -254h-109l-186 198l-187 -198h-104z" />
<glyph unicode="&#xeb;" horiz-adv-x="1175" d="M121 496q0 144 60 261t169.5 185t247.5 68q198 0 322 -121.5t135 -319.5q6 -78 6 -94h-803q5 -170 102.5 -273.5t270.5 -103.5q183 0 338 115l61 -98q-174 -133 -409 -133q-233 0 -366.5 143t-133.5 371zM262 588h653q-18 141 -98.5 225t-218.5 84q-132 0 -223.5 -88.5 t-112.5 -220.5zM346 1255q0 86 86 86t86 -86q0 -90 -86 -90t-86 90zM672 1255q0 86 86 86t86 -86q0 -90 -86 -90t-86 90z" />
<glyph unicode="&#xec;" horiz-adv-x="516" d="M55 1438h162l219 -301h-102zM195 0v977h131v-977h-131z" />
<glyph unicode="&#xed;" horiz-adv-x="516" d="M80 1137l221 301h162l-281 -301h-102zM190 0v977h132v-977h-132z" />
<glyph unicode="&#xee;" horiz-adv-x="540" d="M-23 1135l201 258q40 51 93.5 50t93.5 -54l198 -254h-108l-187 198l-186 -198h-105zM205 0v977h131v-977h-131z" />
<glyph unicode="&#xef;" horiz-adv-x="530" d="M14 1255q0 86 88 86q86 0 86 -86q0 -90 -86 -90q-43 0 -65.5 23.5t-22.5 66.5zM201 0v977h129v-977h-129zM340 1255q0 86 88 86q86 0 86 -86q0 -90 -86 -90q-43 0 -65.5 23.5t-22.5 66.5z" />
<glyph unicode="&#xf0;" horiz-adv-x="1058" d="M133 395q0 175 113 291q111 117 284 117q180 0 291 -117q25 -25 35 -39v332q-42 -27 -82 -35q-99 -16 -172 29l-16 12l-17 8q-65 30 -106 23q-55 -12 -103 -76l-65 39q64 88 154 106q90 15 167 -30l19 -8l16 -11q48 -30 109 -20q49 6 96 67v86h72v-841q0 -63 -26 -115.5 t-83 -112.5q-111 -114 -289 -114q-176 0 -284 114q-113 116 -113 295zM207 397q0 -151 86 -247q85 -99 237 -99q147 0 238 101q88 102 88 245q0 147 -86 246q-86 96 -240 96q-153 0 -237 -96q-86 -96 -86 -246z" />
<glyph unicode="&#xf1;" horiz-adv-x="1138" d="M164 0v868q87 62 201 99t221 37q210 0 323 -91.5t113 -279.5v-633h-139v606q0 279 -303 279q-72 0 -153.5 -24t-129.5 -56v-805h-133zM246 1214q46 64 81.5 94t92.5 40q52 9 97 -4.5t70.5 -34t60 -35t69.5 -6.5q67 11 117 84l67 -56q-73 -111 -176 -122q-48 -6 -85.5 1.5 t-61.5 21.5t-45 28.5t-47 22.5t-56 3q-64 -11 -111 -84z" />
<glyph unicode="&#xf2;" horiz-adv-x="1224" d="M115 498q0 -143 62.5 -260t176 -185.5t256.5 -68.5q146 0 260.5 67t177 184t62.5 263q0 145 -62.5 261.5t-177 183.5t-260.5 67q-141 0 -255 -69t-177 -185.5t-63 -257.5zM248 500q0 167 99 281t263 114q106 0 191 -55.5t130.5 -145t45.5 -194.5q0 -173 -102 -287.5 t-265 -114.5q-165 0 -263.5 116.5t-98.5 285.5zM346 1438h162l221 -301h-104z" />
<glyph unicode="&#xf3;" horiz-adv-x="1224" d="M115 498q0 141 63 257.5t177 185.5t255 69q146 0 260.5 -67t177 -183.5t62.5 -261.5q0 -146 -62.5 -263t-177 -184t-260.5 -67q-143 0 -256.5 68.5t-176 185.5t-62.5 260zM248 500q0 -169 98.5 -285.5t263.5 -116.5q163 0 265 114.5t102 287.5q0 105 -45.5 194.5 t-130.5 145t-191 55.5q-164 0 -263 -114t-99 -281zM496 1137l221 301h162l-279 -301h-104z" />
<glyph unicode="&#xf4;" horiz-adv-x="1224" d="M115 498q0 -143 62.5 -260t176 -185.5t256.5 -68.5q146 0 260.5 67t177 184t62.5 263q0 145 -62.5 261.5t-177 183.5t-260.5 67q-141 0 -255 -69t-177 -185.5t-63 -257.5zM248 500q0 167 99 281t263 114q106 0 191 -55.5t130.5 -145t45.5 -194.5q0 -173 -102 -287.5 t-265 -114.5q-165 0 -263.5 116.5t-98.5 285.5zM307 1135l201 258q40 51 93 50t93 -54l199 -254h-109l-186 198l-186 -198h-105z" />
<glyph unicode="&#xf5;" horiz-adv-x="1224" d="M115 498q0 -143 62.5 -260t176 -185.5t256.5 -68.5q146 0 260.5 67t177 184t62.5 263q0 145 -62.5 261.5t-177 183.5t-260.5 67q-141 0 -255 -69t-177 -185.5t-63 -257.5zM248 500q0 167 99 281t263 114q106 0 191 -55.5t130.5 -145t45.5 -194.5q0 -173 -102 -287.5 t-265 -114.5q-165 0 -263.5 116.5t-98.5 285.5zM283 1214q33 44 52.5 66t51 41.5t70.5 26.5q44 7 81 -0.5t62 -22.5t48.5 -31t50.5 -24t57 -2q64 12 114 84l68 -56q-73 -111 -176 -122q-48 -6 -85.5 1.5t-61.5 21.5t-45 28.5t-46 22.5t-55 3q-66 -11 -113 -84z" />
<glyph unicode="&#xf6;" horiz-adv-x="1224" d="M115 498q0 -143 62.5 -260t176 -185.5t256.5 -68.5q146 0 260.5 67t177 184t62.5 263q0 145 -62.5 261.5t-177 183.5t-260.5 67q-141 0 -255 -69t-177 -185.5t-63 -257.5zM248 500q0 167 99 281t263 114q106 0 191 -55.5t130.5 -145t45.5 -194.5q0 -173 -102 -287.5 t-265 -114.5q-165 0 -263.5 116.5t-98.5 285.5zM350 1255q0 86 88 86q86 0 86 -86q0 -90 -86 -90q-43 0 -65.5 23.5t-22.5 66.5zM676 1255q0 86 88 86q86 0 86 -86q0 -90 -86 -90q-43 0 -65.5 23.5t-22.5 66.5z" />
<glyph unicode="&#xf7;" horiz-adv-x="1206" d="M115 651v119h977v-119h-977zM504 391q0 43 28 73t72 30q43 0 72 -30.5t29 -72.5q0 -48 -26 -74t-75 -26q-100 0 -100 100zM504 1026q0 43 27.5 71.5t72.5 28.5q49 0 75 -26.5t26 -73.5q0 -43 -28.5 -72.5t-72.5 -29.5t-72 29.5t-28 72.5z" />
<glyph unicode="&#xf8;" horiz-adv-x="1224" d="M115 498q0 141 63 257.5t177 185.5t255 69q58 0 115 -13l37 105h123l-49 -141q128 -62 201 -184.5t73 -278.5q0 -146 -62.5 -263t-177 -184t-260.5 -67q-56 0 -108 12l-39 -113h-123l51 150q-127 62 -201.5 186.5t-74.5 278.5zM248 500q0 -116 47.5 -210.5t134.5 -144.5 l258 742q-33 8 -78 8q-164 0 -263 -114t-99 -281zM541 106q46 -8 69 -8q163 0 265 114.5t102 287.5q0 106 -49 199t-133 145z" />
<glyph unicode="&#xf9;" horiz-adv-x="1177" d="M164 371q0 -193 113 -294.5t341 -101.5q200 0 377 60v946h-133v-854q-41 -14 -112.5 -22.5t-124.5 -8.5q-330 0 -330 279v606h-131v-610zM344 1438h162l221 -301h-104z" />
<glyph unicode="&#xfa;" horiz-adv-x="1177" d="M164 371v610h131v-606q0 -279 330 -279q53 0 124.5 8.5t112.5 22.5v854h133v-946q-177 -60 -377 -60q-228 0 -341 101.5t-113 294.5zM465 1137l221 301h162l-279 -301h-104z" />
<glyph unicode="&#xfb;" horiz-adv-x="1177" d="M164 371q0 -193 113 -294.5t341 -101.5q200 0 377 60v946h-133v-854q-41 -14 -112.5 -22.5t-124.5 -8.5q-330 0 -330 279v606h-131v-610zM285 1135l200 258q40 51 93.5 50t93.5 -54l198 -254h-108l-187 198l-186 -198h-104z" />
<glyph unicode="&#xfc;" horiz-adv-x="1177" d="M164 371q0 -193 113 -294.5t341 -101.5q200 0 377 60v946h-133v-854q-41 -14 -112.5 -22.5t-124.5 -8.5q-330 0 -330 279v606h-131v-610zM328 1255q0 86 86 86t86 -86q0 -90 -86 -90t-86 90zM653 1255q0 86 86 86t86 -86q0 -90 -86 -90t-86 90z" />
<glyph unicode="&#xfd;" horiz-adv-x="913" d="M133 -362l25 71q71 -50 147 -67q57 -13 94 -13q149 0 232 95q80 92 80 239v139q-83 -116 -250 -116q-157 0 -240 102q-80 95 -80 254v446h70v-469q0 -118 65 -192q68 -80 185 -80q113 0 184 80q66 75 66 192v469h71v-825q0 -182 -100 -291q-106 -112 -285 -112 q-139 0 -264 78zM311 920l178 247h103l-221 -247h-60z" />
<glyph unicode="&#xfe;" horiz-adv-x="1058" d="M133 -440v880v768h72v-563q10 16 37 43q112 115 286 115q178 0 287 -115q113 -119 113 -293t-113 -293q-110 -116 -287 -116q-178 0 -288 116q-15 15 -35 39v-581h-72zM205 393q0 -148 86 -248q80 -96 237 -96q154 0 240 96q86 100 86 248q0 146 -86 246q-88 98 -240 98 q-148 0 -235 -100q-88 -98 -88 -244z" />
<glyph unicode="&#xff;" horiz-adv-x="1204" d="M172 389q0 -196 114.5 -301.5t313.5 -105.5q165 0 303 61v-61q0 -172 -84.5 -274.5t-249.5 -102.5q-134 0 -260 63l-28 -112q127 -68 292 -68q223 0 341 138t118 374v977h-129v-809q-139 -68 -303 -68q-152 0 -225.5 82.5t-73.5 212.5v582h-129v-588zM352 1255 q0 86 88 86q86 0 86 -86q0 -90 -86 -90q-88 0 -88 90zM678 1255q0 86 88 86q86 0 86 -86q0 -90 -86 -90q-88 0 -88 90z" />
<glyph unicode="&#x152;" horiz-adv-x="1837" d="M135 719q0 151 42 281.5t122 231.5t208 158.5t290 57.5q7 0 39.5 -2t60 -3.5t27.5 -0.5h90h717v-125h-670v-488h596v-129h-596v-571h708v-129h-845q-59 -12 -123 -12q-160 0 -288 58t-210 159t-125 232t-43 282zM279 721q0 -131 31 -241t93.5 -195.5t166 -134 t239.5 -48.5q48 0 115 13v1208q-49 10 -121 10q-135 0 -237.5 -47.5t-164 -132.5t-92 -193.5t-30.5 -238.5z" />
<glyph unicode="&#x153;" horiz-adv-x="1814" d="M119 487q0 141 64 257t177.5 182.5t253.5 66.5q189 0 322 -108q129 110 311 110q195 0 314 -121.5t137 -320.5l8 -94h-795q9 -165 107.5 -260t263.5 -95q155 0 334 117l59 -104q-103 -67 -197 -98t-206 -31q-205 0 -332 106q-134 -112 -326 -112q-214 0 -354.5 144.5 t-140.5 360.5zM252 489q0 -168 99.5 -278.5t262.5 -110.5q138 0 238 93q-80 129 -80 303q0 165 80 290q-101 91 -238 91q-162 0 -262 -110.5t-100 -277.5zM913 575h646q-22 144 -100.5 223t-209.5 79q-134 0 -223.5 -80.5t-112.5 -221.5z" />
<glyph unicode="&#x178;" horiz-adv-x="1157" d="M39 1442h154l387 -686l387 686h151l-407 -711q-64 -118 -64 -184v-547h-137v547q0 68 -68 184zM334 1645q0 86 88 86q86 0 86 -86q0 -43 -22 -67t-64 -24t-65 24t-23 67zM659 1645q0 86 89 86q86 0 86 -86q0 -43 -22 -67t-64 -24q-43 0 -66 24t-23 67z" />
<glyph unicode="&#x2c6;" horiz-adv-x="798" d="M106 1135l201 258q40 51 93.5 50t93.5 -54l198 -254h-108l-187 198l-186 -198h-105z" />
<glyph unicode="&#x2dc;" horiz-adv-x="905" d="M121 1212q67 110 160 131q83 18 180 -36l16 -11l19 -14q51 -33 112 -22q65 13 109 88l67 -48q-76 -113 -161 -129q-98 -23 -181 37l-16 13l-16 10q-64 34 -115 26q-57 -12 -105 -88z" />
<glyph unicode="&#x2000;" horiz-adv-x="977" />
<glyph unicode="&#x2001;" horiz-adv-x="1954" />
<glyph unicode="&#x2002;" horiz-adv-x="977" />
<glyph unicode="&#x2003;" horiz-adv-x="1954" />
<glyph unicode="&#x2004;" horiz-adv-x="651" />
<glyph unicode="&#x2005;" horiz-adv-x="488" />
<glyph unicode="&#x2006;" horiz-adv-x="325" />
<glyph unicode="&#x2007;" horiz-adv-x="325" />
<glyph unicode="&#x2008;" horiz-adv-x="244" />
<glyph unicode="&#x2009;" horiz-adv-x="390" />
<glyph unicode="&#x200a;" horiz-adv-x="108" />
<glyph unicode="&#x2010;" horiz-adv-x="974" d="M162 469v115h651v-115h-651z" />
<glyph unicode="&#x2011;" horiz-adv-x="974" d="M162 469v115h651v-115h-651z" />
<glyph unicode="&#x2012;" horiz-adv-x="974" d="M162 469v115h651v-115h-651z" />
<glyph unicode="&#x2013;" horiz-adv-x="1120" d="M51 469v115h1018v-115h-1018z" />
<glyph unicode="&#x2014;" horiz-adv-x="1736" d="M53 469v115h1630v-115h-1630z" />
<glyph unicode="&#x2018;" horiz-adv-x="405" d="M111 1202q0 121 135 289l43 -14q-26 -54 -36 -76t-21.5 -58t-14.5 -69q40 -10 60 -33.5t20 -54.5q0 -47 -25.5 -71.5t-64.5 -24.5q-46 0 -71 31.5t-25 80.5z" />
<glyph unicode="&#x2019;" horiz-adv-x="405" d="M111 1378q0 47 26 72t64 25q47 0 71.5 -31.5t24.5 -81.5q0 -66 -39.5 -143.5t-93.5 -145.5l-45 14q25 50 36.5 75.5t22.5 60.5t15 69q-40 9 -61 32t-21 54z" />
<glyph unicode="&#x201a;" horiz-adv-x="405" d="M109 70q0 47 25.5 71.5t64.5 24.5q46 0 71 -32t25 -81q0 -118 -133 -289l-45 15q27 57 36 77.5t20.5 57t14.5 70.5q-39 9 -59 32t-20 54z" />
<glyph unicode="&#x201c;" horiz-adv-x="673" d="M111 1202q0 121 135 289l43 -14q-26 -54 -36 -76t-21.5 -58t-14.5 -69q40 -10 60 -33.5t20 -54.5q0 -47 -25.5 -71.5t-64.5 -24.5q-46 0 -71 31.5t-25 80.5zM391 1202q0 121 135 289l43 -14q-25 -51 -36 -75t-21.5 -59.5t-13.5 -68.5q40 -10 60 -33.5t20 -54.5 q0 -47 -26 -71.5t-65 -24.5q-46 0 -71 31.5t-25 80.5z" />
<glyph unicode="&#x201d;" horiz-adv-x="669" d="M98 1378q0 47 26 72t64 25q47 0 72 -31.5t25 -81.5q0 -66 -39.5 -143.5t-93.5 -145.5l-46 14q3 6 11 23.5t11 23t9.5 20t9 20.5t7.5 19t7.5 20t6 18.5t5 20t3 19t2.5 21.5q-39 9 -59.5 32.5t-20.5 53.5zM379 1378q0 47 26 72t64 25q47 0 71.5 -31.5t24.5 -81.5 q0 -66 -39.5 -143.5t-93.5 -145.5l-45 14q3 6 11 23.5t11 23t9.5 20t9 20.5t7.5 19t7.5 20t6 18.5t5 20t3 19t2.5 21.5q-39 9 -59.5 32.5t-20.5 53.5z" />
<glyph unicode="&#x201e;" horiz-adv-x="651" d="M100 70q0 47 25 71.5t63 24.5q47 0 72 -31.5t25 -81.5q0 -66 -39.5 -143.5t-93.5 -145.5l-46 15q25 50 36.5 75.5t22.5 60.5t15 69q-40 9 -60 32t-20 54zM383 70q0 47 25 71.5t63 24.5q47 0 71.5 -31.5t24.5 -81.5q0 -66 -39.5 -143.5t-93.5 -145.5l-45 15 q25 50 36.5 75.5t22.5 60.5t15 69q-40 9 -60 32t-20 54z" />
<glyph unicode="&#x2022;" horiz-adv-x="714" d="M133 621q0 120 52.5 172.5t172.5 52.5q116 0 171 -54.5t55 -170.5q0 -114 -56 -170q-51 -54 -172 -54q-118 0 -170.5 52.5t-52.5 171.5z" />
<glyph unicode="&#x2026;" horiz-adv-x="1218" d="M131 74q0 86 88 86q86 0 86 -86q0 -90 -86 -90q-88 0 -88 90zM524 74q0 86 88 86q86 0 86 -86q0 -90 -86 -90q-88 0 -88 90zM909 74q0 86 88 86q86 0 86 -86q0 -90 -86 -90q-88 0 -88 90z" />
<glyph unicode="&#x202f;" horiz-adv-x="390" />
<glyph unicode="&#x2039;" horiz-adv-x="557" d="M127 399l188 260h129l-186 -260l186 -260h-129z" />
<glyph unicode="&#x203a;" horiz-adv-x="557" d="M113 139l186 260l-186 260h129l188 -260l-188 -260h-129z" />
<glyph unicode="&#x205f;" horiz-adv-x="488" />
<glyph unicode="&#x20ac;" horiz-adv-x="1376" d="M90 418v114h143q-2 16 -2 52q0 16 5 78h-68v112h90q38 139 137 244q168 174 422 174q241 0 436 -195l-92 -84q-82 83 -163 120.5t-179 37.5q-206 0 -336 -139q-61 -64 -98 -158h672v-112h-697q-4 -25 -4 -76q0 -38 2 -54h623v-114h-602q44 -148 163 -234t277 -86 q90 0 178 41.5t160 116.5l78 -98q-190 -178 -416 -178q-264 0 -428 170q-106 112 -141 268h-160z" />
<glyph unicode="&#x2122;" horiz-adv-x="1654" d="M121 1360v82h547v-82h-228v-641h-92v641h-227zM750 717v653q0 35 23.5 57.5t57.5 22.5q63 0 91 -66l172 -383l170 383q28 66 90 66q34 0 58 -22.5t24 -57.5v-653h-86v637q0 12 -7 2l-213 -475h-75l-213 475q-4 7 -4 8l-2 -6v-641h-86z" />
<glyph unicode="&#xe000;" horiz-adv-x="983" d="M0 0v983h983v-983h-983z" />
<glyph unicode="&#xfb01;" horiz-adv-x="1243" d="M186 0v1057q0 164 82.5 265t237.5 101q128 0 242 -73l-43 -113q-113 66 -193 66q-197 0 -197 -244v-119h344v-125h-344v-815h-129zM905 1262q0 -32 24 -56t56 -24q34 0 58 24t24 56q0 34 -24 57.5t-58 23.5q-33 0 -56.5 -23.5t-23.5 -57.5zM920 0v977h131v-977h-131z" />
<glyph unicode="&#xfb02;" horiz-adv-x="1222" d="M184 0v1057q0 165 83 265.5t239 100.5q128 0 242 -73l-46 -113q-111 66 -190 66q-197 0 -197 -244v-119h344v-125h-344v-815h-131zM911 0v1442h131v-1442h-131z" />
</font>
</defs>
</svg>
