<?xml version="1.0" standalone="no"?>
<!DOCTYPE svg PUBLIC "-//W3C//DTD SVG 1.1//EN" "http://www.w3.org/Graphics/SVG/1.1/DTD/svg11.dtd" >
<svg xmlns="http://www.w3.org/2000/svg">
<metadata></metadata>
<defs>
<font id="bellslimheavy" horiz-adv-x="1222" >
<font-face units-per-em="2048" ascent="1554" descent="-494" />
<missing-glyph horiz-adv-x="536" />
<glyph horiz-adv-x="2048" />
<glyph horiz-adv-x="2048" />
<glyph unicode="&#xd;" horiz-adv-x="2048" />
<glyph unicode=" "  horiz-adv-x="536" />
<glyph unicode="&#x09;" horiz-adv-x="536" />
<glyph unicode="&#xa0;" horiz-adv-x="536" />
<glyph unicode="!" horiz-adv-x="481" d="M121 102q0 55 34 86t89 31q56 0 86 -31.5t30 -85.5q0 -52 -30 -84t-86 -32q-57 0 -90 31.5t-33 84.5zM152 348v1114h178v-1114h-178z" />
<glyph unicode="&#x22;" horiz-adv-x="565" d="M106 1440h152l-10 -332h-133zM309 1440h152l-8 -332h-136z" />
<glyph unicode="#" horiz-adv-x="1404" d="M154 526l24 140h281l33 192h-281l22 141h281l49 291h146l-50 -291h193l49 291h146l-50 -291h279l-23 -141h-278l-33 -192h279l-25 -140h-278l-52 -309h-145l53 309h-194l-52 -309h-145l51 309h-280zM604 666h193l32 192h-194z" />
<glyph unicode="$" horiz-adv-x="1183" d="M45 254l166 94q54 -90 116.5 -130.5t157.5 -51.5v516q-96 34 -159.5 67t-113.5 79.5t-73.5 108.5t-23.5 144q0 155 98.5 248t271.5 115v125h187v-125q250 -31 379 -248l-156 -98q-55 86 -106 123.5t-117 46.5v-451q74 -24 127 -47t108.5 -59.5t89.5 -80t56 -107 t22 -142.5q0 -351 -403 -391v-123h-187v121q-306 28 -440 266zM309 1085q0 -70 33 -113t143 -89v385q-176 -29 -176 -183zM672 166q121 13 166 61t45 138q0 74 -25 123.5t-68 78t-118 54.5v-455z" />
<glyph unicode="%" horiz-adv-x="1556" d="M45 1137q0 148 103 242t251 94q149 0 251 -94t102 -242q0 -151 -100.5 -243.5t-252.5 -92.5q-151 0 -252.5 92.5t-101.5 243.5zM158 -20l995 1466h213l-985 -1466h-223zM231 1137q0 -74 47.5 -122t120.5 -48t120.5 48t47.5 122q0 75 -45.5 119t-122.5 44q-78 0 -123 -44 t-45 -119zM801 311q0 147 100 242.5t250 95.5q149 0 251.5 -97t102.5 -241t-103 -239t-251 -95t-249 94.5t-101 239.5zM981 311q0 -71 48.5 -117.5t121.5 -46.5q75 0 121.5 46t46.5 118q0 77 -45.5 123.5t-122.5 46.5t-123.5 -46.5t-46.5 -123.5z" />
<glyph unicode="&#x26;" horiz-adv-x="1343" d="M72 381q0 233 272 457q-100 133 -100 258q0 148 104 242t258 94q128 0 204.5 -40.5t147.5 -156.5l-147 -115q-43 75 -88 105t-117 30q-74 0 -118 -41t-44 -110q0 -59 23 -102.5t76 -110.5q156 -193 364 -408q67 121 97 193l178 -74q-64 -141 -138 -260q131 -133 357 -344 h-271q-75 69 -198 188q-90 -100 -190 -152t-232 -52q-199 0 -318.5 103t-119.5 296zM268 381q0 -104 66.5 -160.5t181.5 -56.5q149 0 283 158q-236 248 -340 370q-194 -152 -191 -311z" />
<glyph unicode="'" horiz-adv-x="352" d="M100 1440h152l-8 -332h-135z" />
<glyph unicode="(" horiz-adv-x="552" d="M92 659q0 477 203 975h192q-114 -265 -164.5 -498.5t-50.5 -473.5q0 -255 49.5 -480.5t161.5 -464.5h-194q-197 449 -197 942z" />
<glyph unicode=")" horiz-adv-x="555" d="M68 -283q112 239 161.5 464.5t49.5 480.5q0 237 -50 470.5t-161 501.5h190q205 -503 205 -970q0 -496 -201 -947h-194z" />
<glyph unicode="*" horiz-adv-x="948" d="M92 1047v149l283 -20l-154 221l137 78l117 -240l121 238l135 -76l-153 -221l280 18v-152l-276 17l153 -217l-133 -78l-127 244l-131 -242l-133 76l160 219z" />
<glyph unicode="+" horiz-adv-x="1105" d="M96 625v172h365v360h182v-360h365v-172h-365v-365h-182v365h-365z" />
<glyph unicode="," horiz-adv-x="405" d="M88 98q0 61 33 91t86 30q60 0 90.5 -35.5t30.5 -101.5q0 -79 -51 -175.5t-119 -166.5l-68 31q81 133 92 219q-45 10 -69.5 39.5t-24.5 68.5z" />
<glyph unicode="-" horiz-adv-x="974" d="M145 498v172h682v-172h-682z" />
<glyph unicode="." horiz-adv-x="448" d="M106 102q0 55 31.5 85t87.5 30q57 0 87 -29.5t30 -85.5q0 -55 -30.5 -86.5t-86.5 -31.5q-57 0 -88 31t-31 87z" />
<glyph unicode="/" horiz-adv-x="866" d="M27 0l649 1475h201l-650 -1475h-200z" />
<glyph unicode="0" horiz-adv-x="1353" d="M123 723q0 735 559 735q100 0 182 -24.5t138 -64t98 -99t66 -121.5t39 -139t19.5 -143.5t4.5 -143.5q0 -73 -5.5 -139.5t-21 -142.5t-40.5 -139t-67.5 -122.5t-98 -101t-136 -66t-178.5 -24.5q-559 0 -559 735zM328 725q0 -96 7 -169.5t29.5 -150t60 -126.5t103 -81.5 t154.5 -31.5q63 0 114 16.5t86.5 44t61.5 70.5t41 88t24 105t12 114t3 121q0 68 -3 122t-12 113.5t-24 104.5t-41 87.5t-61.5 69.5t-86.5 43.5t-114 16.5q-65 0 -117.5 -16t-89 -43t-63.5 -69t-43 -87t-25.5 -104.5t-12.5 -114.5t-3 -123z" />
<glyph unicode="1" horiz-adv-x="694" d="M92 1044v230q21 17 79 65.5t87 71.5q57 45 119 45q60 0 87.5 -33t27.5 -88v-1335h-205v1206z" />
<glyph unicode="2" horiz-adv-x="1093" d="M113 0q2 59 2 158q5 133 36 225t113 184q37 42 87 84.5t86 68t103.5 70.5t94.5 64q74 54 105.5 105.5t31.5 134.5q0 96 -57 143t-148 47q-122 0 -181 -62.5t-71 -195.5h-200q8 211 123.5 322.5t330.5 111.5q79 0 150 -21t131.5 -63t96.5 -115t36 -167q0 -127 -61.5 -224 t-235.5 -213q-68 -46 -111 -77.5t-91.5 -73.5t-76 -79t-47 -84t-22.5 -97l-2 -64h651v-182h-874z" />
<glyph unicode="3" horiz-adv-x="1179" d="M31 356l188 76q39 -144 121.5 -204t208.5 -60q128 0 204 71t76 201q0 120 -88.5 193.5t-234.5 73.5h-111v180h101q111 0 174 60t63 149q0 82 -50.5 131t-135.5 49q-95 0 -159 -43t-107 -143l-172 90q73 153 180 213.5t262 60.5q107 0 194 -38t143 -121.5t56 -200.5 q0 -159 -139 -275q112 -54 174.5 -151t62.5 -228q0 -106 -40.5 -193.5t-109 -144t-157 -87.5t-186.5 -31q-413 0 -518 372z" />
<glyph unicode="4" horiz-adv-x="1144" d="M10 410v153l565 780q87 117 197 117q73 0 118.5 -45t45.5 -135v-1280h-195v410h-731zM258 590h483v670z" />
<glyph unicode="5" horiz-adv-x="1185" d="M66 248l151 121q62 -98 144.5 -151.5t207.5 -53.5q144 0 226 86.5t82 230.5q0 142 -85 224.5t-237 82.5q-188 0 -373 -92v570q0 73 49 124.5t136 51.5h622v-176h-575q-39 0 -39 -41v-279q77 23 184 23q237 0 378.5 -130.5t141.5 -355.5q0 -140 -61 -253t-178 -180.5 t-271 -67.5q-177 0 -297 66t-206 200z" />
<glyph unicode="6" horiz-adv-x="1269" d="M141 479q0 399 465 963h242q-240 -286 -365 -504q85 31 174 31q227 0 363.5 -136.5t136.5 -353.5q0 -214 -145 -358t-367 -144q-221 0 -362.5 138t-141.5 364zM338 475q0 -146 86.5 -232.5t226.5 -86.5q135 0 222.5 89t87.5 230q0 146 -82.5 231t-221.5 85 q-145 0 -232 -86.5t-87 -229.5z" />
<glyph unicode="7" horiz-adv-x="1024" d="M18 1266v176h760q84 0 127 -44.5t43 -111.5q0 -52 -35 -139l-501 -1147h-211l553 1266h-736z" />
<glyph unicode="8" d="M111 444q0 122 57.5 219t159.5 162q-129 96 -129 271q0 162 107.5 266t295.5 104q187 0 296.5 -100t109.5 -260q0 -171 -123 -270q108 -65 167.5 -164.5t59.5 -227.5q0 -208 -144 -338.5t-358 -130.5q-217 0 -358 129t-141 340zM307 446q0 -129 83.5 -209.5t219.5 -80.5 q133 0 218 82t85 208t-85 206.5t-218 80.5t-218 -81t-85 -206zM391 1100q0 -94 56 -148.5t155 -54.5q98 0 154.5 54.5t56.5 148.5t-55 144t-156 50t-156 -51.5t-55 -142.5z" />
<glyph unicode="9" horiz-adv-x="1239" d="M111 977q0 210 144.5 347.5t358.5 137.5t356 -133t142 -354q0 -91 -17 -174.5t-52.5 -163t-65 -131.5t-80.5 -131q-105 -160 -281 -375h-243q281 330 405 532q-89 -28 -176 -28q-222 0 -356.5 133t-134.5 340zM305 983q0 -142 80 -223.5t217 -81.5q153 0 234.5 76 t81.5 221q0 144 -83.5 228.5t-220.5 84.5q-140 0 -224.5 -86t-84.5 -219z" />
<glyph unicode=":" horiz-adv-x="448" d="M106 102q0 55 31.5 85t87.5 30q57 0 87 -29.5t30 -85.5q0 -55 -30.5 -86.5t-86.5 -31.5q-57 0 -88 31t-31 87zM106 690q0 55 31.5 85t87.5 30q57 0 87 -29.5t30 -85.5q0 -55 -30.5 -87t-86.5 -32q-57 0 -88 31.5t-31 87.5z" />
<glyph unicode=";" horiz-adv-x="456" d="M111 98q0 61 32.5 91t85.5 30q60 0 90.5 -35.5t30.5 -101.5q0 -79 -51 -175.5t-119 -166.5l-67 31q81 133 92 219q-45 10 -69.5 39.5t-24.5 68.5zM113 690q0 55 31 85t87 30q57 0 87 -29.5t30 -85.5q0 -55 -30 -87t-87 -32t-87.5 31.5t-30.5 87.5z" />
<glyph unicode="&#x3c;" horiz-adv-x="962" d="M68 748.5q14 40.5 65 68.5l778 447v-191l-622 -356l622 -357v-192l-778 442q-42 24 -60.5 61t-4.5 77.5z" />
<glyph unicode="=" horiz-adv-x="1292" d="M125 446v166h1042v-166h-1042zM125 786v168h1042v-168h-1042z" />
<glyph unicode="&#x3e;" horiz-adv-x="962" d="M51 166v192l625 357l-625 356v193l780 -447q74 -48 69 -109.5t-69 -97.5z" />
<glyph unicode="?" horiz-adv-x="927" d="M43 1204q122 254 432 254q183 0 287 -87.5t104 -242.5q0 -53 -11.5 -98.5t-39 -88.5t-49 -70t-65.5 -74.5t-64 -71.5q-96 -115 -96 -236v-143h-193v139q0 117 43 203.5t119 173.5q9 10 35 38t38 42t32.5 41t30.5 47t18 47t8 53q0 150 -201 150q-91 0 -151 -32t-105 -115z M326 106q0 56 34 87.5t91 31.5t87.5 -32.5t30.5 -86.5t-30 -87t-88 -33q-57 0 -91 32.5t-34 87.5z" />
<glyph unicode="@" horiz-adv-x="1695" d="M123 580q0 215 102 386.5t279.5 266t396.5 94.5q127 0 239 -37.5t197.5 -106.5t135 -175.5t49.5 -237.5q0 -125 -44.5 -238t-132 -187.5t-198.5 -74.5q-95 0 -148 58q-108 -62 -231 -62q-150 0 -230.5 88.5t-80.5 229.5q0 115 54.5 215.5t154.5 162.5t221 62 q109 0 180.5 -30t138.5 -99l-82 -346q-16 -66 -16 -100q0 -48 49 -48q52 0 94.5 37t68 94.5t39 120t13.5 119.5q0 129 -61.5 224.5t-167.5 143.5t-242 48q-133 0 -249 -45.5t-198.5 -125.5t-130 -193t-47.5 -244q0 -158 72.5 -276t197 -179.5t283.5 -61.5q178 0 324 39 t293 134l74 -125q-164 -103 -329 -146t-368 -43q-144 0 -271 44.5t-222.5 127t-151 208t-55.5 278.5zM608 590q0 -91 42.5 -141t127.5 -50q42 0 89.5 15t82.5 39l92 389q-57 49 -161 49q-82 0 -146 -47.5t-95.5 -115.5t-31.5 -138z" />
<glyph unicode="A" horiz-adv-x="1310" d="M18 0l451 1294q25 66 67 107t117 41q137 0 187 -148l448 -1294h-209l-172 510h-510l-172 -510h-207zM461 692h381l-189 555z" />
<glyph unicode="B" horiz-adv-x="1224" d="M174 0v1143q0 122 72.5 203t191.5 100q56 9 126 9t153 -9q150 -22 247 -123t97 -250q0 -88 -43 -166t-119 -125q109 -42 176.5 -141t67.5 -223q0 -165 -100.5 -272t-260.5 -136q-55 -10 -143 -10h-465zM369 176h282q147 0 216 65.5t69 176.5q0 117 -81.5 184.5 t-236.5 67.5h-249v-494zM369 844h209q63 0 90 6q84 14 136 74.5t52 144.5t-49.5 137t-134.5 62q-71 8 -158 8q-68 0 -106.5 -33.5t-38.5 -101.5v-297z" />
<glyph unicode="C" horiz-adv-x="1368" d="M92 719q0 155 48.5 289.5t136 233t217.5 154.5t286 56q309 0 533 -238l-123 -145q-191 201 -410 201q-146 0 -257.5 -71.5t-169.5 -196t-58 -281.5q0 -242 135.5 -396.5t364.5 -154.5q118 0 233.5 44.5t202.5 129.5l96 -154q-214 -204 -543 -204q-210 0 -368 95.5 t-241 261t-83 376.5z" />
<glyph unicode="D" horiz-adv-x="1441" d="M184 0v1143q0 79 30.5 140.5t82.5 97.5t115 54.5t133 18.5h88q138 0 255 -40t199.5 -109t140.5 -162.5t85.5 -200.5t27.5 -223t-26.5 -222t-82 -196.5t-134.5 -157.5t-190 -105t-242 -38h-482zM385 180h258q75 0 98 4q183 22 291.5 164.5t108.5 370.5q0 109 -31 207 t-91.5 176t-159.5 124t-224 46h-88q-78 0 -120 -31t-42 -102v-959z" />
<glyph unicode="E" horiz-adv-x="1144" d="M174 0v1108q0 50 6 80q20 101 95.5 168.5t183.5 79.5q36 6 90 6h467v-180h-486q-157 0 -157 -162v-262h571v-181h-571v-477h680v-180h-879z" />
<glyph unicode="F" horiz-adv-x="1081" d="M164 0v1108q0 50 6 80q21 101 95.5 168.5t183.5 79.5q36 6 81 6h476v-178h-486q-155 0 -155 -164v-254h557v-180h-557v-666h-201z" />
<glyph unicode="G" horiz-adv-x="1472" d="M92 709q0 210 81.5 378t241.5 267.5t373 99.5q163 0 295 -53t252 -180l-133 -134q-100 101 -197.5 144t-211.5 43q-154 0 -266.5 -73t-169 -199.5t-56.5 -290.5q0 -254 130.5 -403.5t379.5 -149.5q147 0 258 49q64 27 64 100v258h-326v176h532v-446q0 -98 -50.5 -159 t-162.5 -103q-142 -53 -321 -53q-174 0 -311 55.5t-224 154t-132.5 230.5t-45.5 289z" />
<glyph unicode="H" horiz-adv-x="1472" d="M190 0v1442h207v-594h678v594h207v-1442h-207v666h-678v-666h-207z" />
<glyph unicode="I" horiz-adv-x="585" d="M190 0v1442h205v-1442h-205z" />
<glyph unicode="J" horiz-adv-x="1007" d="M102 49v195q155 -76 301 -76q129 0 179.5 65.5t50.5 184.5v1024h201v-1016q0 -61 -7 -96q-19 -158 -130.5 -252t-286.5 -94t-308 65z" />
<glyph unicode="K" horiz-adv-x="1265" d="M174 0v1442h199v-602h86q105 0 177.5 34.5t121.5 108.5q24 31 43 80l166 379h215l-211 -473q-18 -42 -45 -86q-54 -81 -133 -129l456 -754h-231l-356 584q-32 54 -68.5 71t-120.5 17h-100v-672h-199z" />
<glyph unicode="L" horiz-adv-x="1083" d="M174 211v1231h205v-1213q0 -45 43 -45h620v-184h-645q-94 0 -158.5 58.5t-64.5 152.5z" />
<glyph unicode="M" horiz-adv-x="1740" d="M184 0v1280q0 76 48.5 125t123.5 49q131 0 193 -141l321 -717l322 717q62 141 194 141q81 0 125.5 -50t44.5 -126v-1278h-194v1227l-410 -905h-164l-409 905v-1227h-195z" />
<glyph unicode="N" horiz-adv-x="1497" d="M184 0v1272q0 76 45 129t125 53q130 0 205 -147l559 -1096v1233h195v-1270q0 -79 -46 -133.5t-122 -54.5q-130 0 -191 118q-92 177 -281 555.5t-294 577.5v-1237h-195z" />
<glyph unicode="O" horiz-adv-x="1523" d="M92 719q0 120 25 228.5t79 202.5t132 163t189.5 108t246.5 39q161 0 290 -60t210.5 -163t124.5 -235.5t43 -282.5q0 -119 -26.5 -228.5t-81.5 -203.5t-133 -163.5t-187 -109t-238 -39.5q-164 0 -294.5 60.5t-212 164t-124.5 236t-43 283.5zM297 721q0 -120 28.5 -221 t84.5 -178.5t147.5 -121.5t208.5 -44q115 0 204.5 44t144.5 122t83.5 179t28.5 220q0 160 -51 284.5t-157.5 199.5t-254.5 75q-116 0 -207 -43.5t-147 -120t-84.5 -176.5t-28.5 -219z" />
<glyph unicode="P" horiz-adv-x="1167" d="M174 0v1147q0 118 67.5 196.5t182.5 100.5q41 8 108 8h84q64 0 111 -6q169 -27 275 -144.5t106 -291.5q0 -182 -101.5 -299.5t-269.5 -155.5q-69 -14 -170 -14h-194v-541h-199zM373 713h194q63 0 117 8q104 21 165.5 95.5t61.5 191.5q0 97 -57 171t-147 93q-34 6 -82 6 h-93q-76 0 -117.5 -25.5t-41.5 -97.5v-442z" />
<glyph unicode="Q" horiz-adv-x="1562" d="M100 711q0 126 26.5 238t82 205.5t135 161t191 105t245.5 37.5q163 0 293.5 -59.5t213.5 -162t127 -237t44 -288.5q0 -216 -88 -394t-254 -272q90 -64 138 -84q58 -24 114 -24h137v-191h-149q-34 0 -63.5 3t-60.5 13t-48.5 15t-52 24.5t-44.5 25t-51.5 32.5t-50.5 32 q-106 70 -190 70h-11q-132 0 -244 38t-192 106.5t-136.5 162.5t-84 206t-27.5 237zM303 713q0 -124 30.5 -227t89 -179t150.5 -118t209 -42q115 0 205.5 42.5t147.5 119t86.5 179t29.5 225.5q0 162 -51.5 287t-159 199.5t-258.5 74.5q-234 0 -356.5 -153t-122.5 -408z" />
<glyph unicode="R" horiz-adv-x="1280" d="M174 0v1139q0 114 59 194t177 105q70 12 125 12h100q72 0 127 -10q157 -26 259.5 -135t102.5 -279q0 -143 -75 -247.5t-199 -151.5l381 -627h-236l-297 498q-34 56 -63 75t-74 19h-188v-592h-199zM373 766h264q130 0 207.5 68.5t77.5 189.5q0 88 -49.5 153.5t-127.5 86.5 q-42 10 -98 10h-131q-74 0 -108.5 -33t-34.5 -100v-375z" />
<glyph unicode="S" horiz-adv-x="1128" d="M43 233l145 119q74 -107 162 -149.5t219 -42.5q291 0 291 223q0 48 -16.5 86t-49 66t-66 46.5t-79.5 36.5q-14 5 -83 30t-105 40q-64 24 -111 48t-93.5 59t-76 75.5t-47.5 97.5t-18 126q0 161 119 260.5t333 99.5q89 0 144.5 -5.5t113 -23.5t106 -53.5t103.5 -95.5 l-135 -131q-69 82 -147 109.5t-183 27.5q-136 0 -195 -50t-59 -128q0 -42 11 -72.5t42.5 -63.5t92 -63.5t155.5 -62.5q56 -18 98 -34t91.5 -39.5t85 -48t70 -58.5t56 -72t35 -88t13.5 -107q0 -85 -28.5 -157t-87.5 -130t-161 -91t-237 -33q-77 0 -142 10t-133.5 35.5 t-128 77t-104.5 126.5z" />
<glyph unicode="T" horiz-adv-x="1075" d="M16 1268v174h1043v-174h-420v-1268h-203v1268h-420z" />
<glyph unicode="U" horiz-adv-x="1431" d="M174 487v955h207v-948q0 -69 8 -115q22 -99 113 -159t258 -60q64 0 145 12t139 31v1239h205v-1374q-245 -91 -508 -91q-211 0 -351.5 81.5t-190.5 232.5q-25 74 -25 196z" />
<glyph unicode="V" horiz-adv-x="1331" d="M23 1442h219l434 -1245q2 -2 2 -7q0 1 1 3.5t1 3.5q20 55 418 1245h211l-439 -1297q-53 -157 -194 -157q-137 0 -193 157z" />
<glyph unicode="W" horiz-adv-x="1878" d="M31 1442h200l299 -1258l322 922h174l326 -924l299 1260h196l-303 -1274q-41 -176 -190 -176q-82 0 -125 43t-70 117l-219 636l-219 -632q-26 -76 -70.5 -120t-126.5 -44q-147 0 -186 153z" />
<glyph unicode="X" horiz-adv-x="1275" d="M16 0l469 700q24 36 25.5 55.5t-16.5 43.5l-433 643h240l342 -520l342 520h227l-421 -641q-19 -29 -18.5 -43.5t22.5 -48.5l473 -709h-236l-391 588l-389 -588h-236z" />
<glyph unicode="Y" horiz-adv-x="1169" d="M4 1442h227l355 -613l352 613h227l-422 -717q-57 -105 -57 -160v-565h-203v565q0 60 -61 160z" />
<glyph unicode="Z" d="M84 137q0 60 61 142l727 978h-694v185h762q68 0 118 -33.5t50 -101.5q0 -34 -14 -67t-52 -85q-91 -123 -235 -316t-298 -400t-190 -255h811v-184h-878q-77 0 -122.5 37.5t-45.5 99.5z" />
<glyph unicode="[" horiz-adv-x="499" d="M94 6v1444q0 93 56.5 153t140.5 60h137v-180h-145q-9 -2 -12 -6t-3 -17v-1464q0 -13 3 -17.5t12 -7.5h145v-178h-137q-84 0 -140.5 60t-56.5 153z" />
<glyph unicode="\" horiz-adv-x="845" d="M-10 1473h205l624 -1475h-207z" />
<glyph unicode="]" horiz-adv-x="522" d="M102 -29h146q9 3 11.5 8t2.5 17v1462q0 14 -2 18t-12 5h-146v182h138q85 0 140.5 -60t55.5 -153v-1444q0 -115 -76 -172q-53 -41 -120 -41h-138v178z" />
<glyph unicode="^" horiz-adv-x="2115" d="M145 485q1 151 68 269t183 182.5t261 64.5q166 0 280.5 -73t170.5 -201q2 -6 5.5 -16t13 -43.5t13 -67.5t6.5 -88t-7 -104h-725q7 -93 77 -159.5t197 -66.5q142 0 242 78l141 -162q-144 -131 -409 -131q-101 0 -191.5 31t-164.5 91.5t-117.5 162.5t-43.5 233zM426 606 h444q-18 92 -72 141.5t-143 49.5q-88 0 -149 -52t-80 -139zM1378 -6v977h264v-103h5q43 64 113 94.5t151 30.5q69 0 129 -24v-238q-66 27 -144 27q-254 0 -254 -299v-465h-264z" />
<glyph unicode="_" horiz-adv-x="1097" d="M133 -328h834v-67h-834v67z" />
<glyph unicode="`" horiz-adv-x="1855" d="M205 717v641q0 49 39 75.5t88 12t74 -67.5l157 -338l156 338q25 53 74 67.5t88 -12t39 -75.5v-641h-117v569l-193 -412h-94l-194 412v-569h-117zM1053 1077q0 162 107 268.5t278 106.5q178 0 309 -137l-88 -76q-54 57 -105.5 82t-113.5 25q-122 0 -196.5 -75t-74.5 -192 t74 -192.5t197 -75.5q74 0 128.5 21.5t117.5 78.5l63 -88q-131 -118 -309 -118q-173 0 -280 104.5t-107 267.5z" />
<glyph unicode="a" horiz-adv-x="1228" d="M86 477q0 143 60 259.5t180 187.5t280 71q200 0 301 -104v86h174v-977h-172q-1 4 -2.5 12t-2.5 12t-4 10.5t-6.5 7.5t-10 3.5t-15.5 -2.5q-165 -57 -270 -57q-235 0 -373.5 132t-138.5 359zM283 481q0 -151 85.5 -240t247.5 -89q128 0 273 67v348q0 118 -79.5 191 t-195.5 73q-162 0 -246.5 -97.5t-84.5 -252.5z" />
<glyph unicode="b" horiz-adv-x="1228" d="M150 0v1444h188v-549q58 58 142 89.5t177 31.5q221 0 353.5 -141t132.5 -365q0 -146 -60.5 -264t-176.5 -188t-267 -70q-125 0 -242 47q-3 1 -10.5 4t-11.5 4t-10.5 3t-10.5 0.5t-8 -3.5t-6 -8t-2 -15v-20h-188zM340 238q62 -29 94 -42t85.5 -25.5t109.5 -12.5 q154 0 234.5 97t80.5 255q0 147 -75 238.5t-220 91.5q-135 0 -222 -87.5t-87 -230.5v-284z" />
<glyph unicode="c" horiz-adv-x="1071" d="M86 489q0 214 145 359t369 145q140 0 233 -42t179 -144l-138 -115q-67 72 -128 101.5t-146 29.5q-137 0 -224 -94.5t-87 -228.5q0 -163 86 -255.5t235 -92.5q79 0 148 29t151 100l109 -138q-92 -89 -193.5 -125t-226.5 -36q-237 0 -374.5 142t-137.5 365z" />
<glyph unicode="d" horiz-adv-x="1224" d="M86 500q0 107 36.5 201.5t102 163.5t162 109t209.5 40q167 0 289 -84v516h186v-1446h-186v20q0 14 -5.5 21t-18 5t-18 -4t-18.5 -7q-55 -20 -125.5 -33.5t-117.5 -13.5q-158 0 -272 68.5t-169 182.5t-55 261zM285 504q0 -156 78 -251t233 -95q167 0 283 82v358 q0 106 -76 175t-201 69q-151 0 -234 -94t-83 -244z" />
<glyph unicode="e" horiz-adv-x="1124" d="M86 492q0 216 137.5 361.5t356.5 145.5q206 0 332.5 -122.5t138.5 -319.5l1 -21q2 -22 3 -50q0 -14 0.5 -27t-0.5 -23h-766q12 -137 93 -211.5t230 -74.5q92 0 167.5 21.5t156.5 74.5l80 -146q-105 -70 -194 -94t-220 -24q-242 0 -379 142.5t-137 367.5zM295 592h553 q-47 244 -268 244q-113 0 -188.5 -68t-96.5 -176z" />
<glyph unicode="f" horiz-adv-x="747" d="M156 0v1051q0 164 95 268t267 104q71 0 128.5 -11t139.5 -50l-53 -164q-108 51 -201 51q-178 0 -178 -194v-92h334v-179h-334v-784h-198z" />
<glyph unicode="g" horiz-adv-x="1224" d="M86 475q0 108 36 202t102 164t165.5 110t220.5 40q213 0 336 -110t123 -285v-559v-55q0 -227 -138.5 -356.5t-381.5 -129.5q-94 0 -194.5 22.5t-182.5 67.5l47 170q167 -84 328 -84q155 0 242.5 76t87.5 223v45q0 13 -3.5 15t-23.5 -4q-138 -60 -270 -60 q-237 0 -365.5 138.5t-128.5 369.5zM287 477q0 -154 74.5 -244t226.5 -90q85 0 150 20.5t134 63.5v353q0 113 -72.5 175t-197.5 62q-148 0 -231.5 -95t-83.5 -245z" />
<glyph unicode="h" horiz-adv-x="1177" d="M150 0v1442h196v-527q124 103 295 103q196 0 307 -113t111 -305v-600h-201v592q0 118 -59 183t-174 65q-122 0 -200.5 -70t-78.5 -195v-575h-196z" />
<glyph unicode="i" horiz-adv-x="538" d="M150 1288q0 56 30.5 85.5t87.5 29.5t87 -29.5t30 -85.5q0 -55 -30.5 -87t-86.5 -32q-57 0 -87.5 31.5t-30.5 87.5zM170 0v977h195v-977h-195z" />
<glyph unicode="j" horiz-adv-x="526" d="M-141 -487l10 182q31 -3 59 -3q50 0 88 8q61 13 91 32t45.5 58t17.5 64t2 72v1051h195v-1059q0 -407 -439 -407q-33 0 -69 2zM152 1288q0 55 31 85t87 30q57 0 88 -30t31 -85t-31 -87t-88 -32t-87.5 31.5t-30.5 87.5z" />
<glyph unicode="k" horiz-adv-x="1069" d="M150 0v1442h194v-813h53q41 0 63.5 1t52.5 4.5t47.5 11t39 20.5t37.5 33.5t34 49t36 68.5l73 160h215l-127 -264q-55 -114 -141 -176l354 -537h-235l-244 375q-34 52 -54.5 66t-64.5 14h-139v-455h-194z" />
<glyph unicode="l" horiz-adv-x="493" d="M150 0v1440h190v-1440h-190z" />
<glyph unicode="m" horiz-adv-x="1769" d="M156 0v858q222 135 432 135q217 0 323 -100q130 100 334 100q194 0 297 -93.5t103 -283.5v-616h-199v602q0 120 -43 170.5t-168 50.5q-105 0 -170.5 -41t-65.5 -90v-692h-198v645q0 98 -47 138t-168 40q-118 0 -234 -59v-764h-196z" />
<glyph unicode="n" horiz-adv-x="1150" d="M143 0v854q98 66 215 102.5t228 36.5q214 0 330 -95.5t116 -287.5v-610h-198v586q0 119 -62 177t-197 58q-62 0 -126 -17.5t-109 -43.5v-760h-197z" />
<glyph unicode="o" d="M90 492q0 212 148 359.5t372 147.5q229 0 376 -145t147 -362q0 -218 -147 -363t-376 -145q-112 0 -209.5 40t-165.5 108.5t-106.5 162t-38.5 197.5zM287 494q0 -146 87.5 -243t235.5 -97q145 0 235.5 95.5t90.5 244.5q0 138 -92 237.5t-234 99.5q-147 0 -235 -96 t-88 -241z" />
<glyph unicode="p" horiz-adv-x="1198" d="M111 -408v951q0 199 131.5 325.5t357.5 126.5q224 0 364 -136t140 -370q0 -81 -19.5 -155.5t-61 -141t-102 -115.5t-149 -77.5t-194.5 -28.5q-146 0 -269 56v-435h-198zM309 213q132 -70 277 -70q155 0 235 95t80 251q0 146 -79.5 237t-223.5 91q-143 0 -216 -76 t-73 -213v-315z" />
<glyph unicode="q" horiz-adv-x="1228" d="M86 479q0 220 147 367t377 147q206 -2 336.5 -110.5t130.5 -309.5v-772q0 -51 47 -51h62v-164h-101q-100 0 -153 52.5t-53 148.5v244q-136 -58 -287 -58q-234 0 -370 139t-136 367zM285 485q0 -153 78.5 -245.5t234.5 -92.5q136 0 281 60v360q0 120 -71 185t-202 65 q-147 0 -234 -93.5t-87 -238.5z" />
<glyph unicode="r" horiz-adv-x="845" d="M139 0v758q0 53 27.5 95.5t69.5 68.5t96.5 43.5t105.5 24.5t99 7q54 0 87 -2.5t80 -12.5t88.5 -35.5t81.5 -65.5l-116 -127q-87 80 -215 80q-67 0 -140 -27q-38 -15 -52.5 -37t-14.5 -63v-707h-197z" />
<glyph unicode="s" horiz-adv-x="991" d="M57 186l168 84q41 -74 99 -102.5t165 -28.5q71 0 120 9t72.5 26t32.5 34.5t9 39.5q0 67 -92 112q-44 21 -99 37l-112 35q-53 17 -91 32.5t-81.5 41.5t-71 56t-45.5 74t-18 97q0 89 51 150.5t135.5 89.5t196.5 28q37 0 64 -1.5t68 -7.5t74 -19t69.5 -34t67.5 -55.5 t56 -80.5l-166 -80q-36 68 -94 92.5t-148 24.5q-75 0 -128.5 -23t-53.5 -76q0 -17 3 -29t16.5 -29t38 -31.5t70.5 -32t110 -33.5q61 -16 107.5 -32.5t98.5 -44t86 -60.5t56 -81.5t22 -107.5q0 -66 -22 -116t-71 -89t-134.5 -59.5t-206.5 -20.5q-318 0 -422 211z" />
<glyph unicode="t" horiz-adv-x="757" d="M143 319v916h195v-258h326v-176h-326v-467q0 -77 44.5 -123.5t123.5 -46.5q119 0 229 37v-164q-106 -47 -252 -47q-156 0 -248 89.5t-92 239.5z" />
<glyph unicode="u" horiz-adv-x="1142" d="M119 375v602h196v-600q0 -108 63 -169t220 -61q92 0 207 33v797h194v-916q-199 -86 -413 -86q-235 0 -351 102t-116 298z" />
<glyph unicode="v" horiz-adv-x="1077" d="M8 977h213l303 -772q11 -28 24.5 -28.5t24.5 28.5l291 772h205l-317 -811q-14 -36 -28.5 -62t-38.5 -55t-59 -45t-79 -16q-42 0 -76.5 15t-58.5 43.5t-39.5 56t-30.5 65.5z" />
<glyph unicode="w" horiz-adv-x="1634" d="M16 977h201l250 -789q6 -15 16.5 -15t14.5 15l243 789h162l234 -787q3 -10 9 -14t12 -0.5t9 14.5l252 787h199l-283 -844q-49 -145 -188 -145t-184 153l-146 475l-151 -473q-20 -67 -65.5 -111t-121.5 -44q-136 0 -186 147z" />
<glyph unicode="x" horiz-adv-x="1128" d="M33 0l364 469q25 32 25.5 48.5t-19.5 39.5l-331 420h237l248 -318l248 318h233l-327 -420q-18 -22 -17.5 -39t25.5 -49l364 -469h-239l-289 373l-287 -373h-235z" />
<glyph unicode="y" horiz-adv-x="1204" d="M139 387v590h195v-584q0 -112 61.5 -177.5t198.5 -65.5q142 0 268 53v774h195v-989q0 -232 -134.5 -361t-377.5 -129q-205 0 -373 82l49 166q155 -74 320 -74q153 0 237 77.5t84 227.5v56q-117 -51 -276 -51q-211 0 -329 102t-118 303z" />
<glyph unicode="z" horiz-adv-x="960" d="M90 117q0 59 70 143l458 555h-468v162h552q58 0 99 -31t41 -86q0 -60 -60 -131l-465 -567h543v-162h-631q-58 0 -98.5 29.5t-40.5 87.5z" />
<glyph unicode="{" horiz-adv-x="735" d="M78 637v174q110 0 159.5 36t49.5 116v370q0 163 108 251.5t293 88.5v-178q-113 0 -161 -35t-48 -119v-401q0 -48 -12.5 -85.5t-36 -62.5t-44 -39.5t-48.5 -27.5q141 -62 141 -217v-399q0 -85 47.5 -119.5t161.5 -34.5v-182q-184 0 -292.5 90t-108.5 252v370q0 78 -51 115 t-158 37z" />
<glyph unicode="|" horiz-adv-x="454" d="M135 -106v1755h182v-1755h-182z" />
<glyph unicode="}" horiz-adv-x="780" d="M94 -45q114 0 161.5 34.5t47.5 119.5v399q0 154 143 217q-28 13 -49.5 27.5t-45 39.5t-36 62.5t-12.5 85.5v401q0 85 -47.5 119.5t-161.5 34.5v178q185 0 293.5 -88.5t108.5 -251.5v-370q0 -79 50 -115.5t159 -36.5v-174q-107 0 -158 -37t-51 -115v-370 q0 -162 -108.5 -252t-293.5 -90v182z" />
<glyph unicode="~" horiz-adv-x="1849" d="M205 717v641q0 53 39 79.5t88 10.5t74 -70l157 -338l156 338q19 40 53.5 59.5t67 16t56.5 -29t24 -66.5v-641h-117v569l-193 -412h-94l-194 412v-569h-117zM1073 831v455q0 73 50.5 115.5t129.5 42.5h119q110 0 191.5 -51.5t121 -133.5t39.5 -182q0 -98 -38 -178 t-118.5 -131t-191.5 -51h-180q-52 0 -87.5 31.5t-35.5 82.5zM1196 821h178q113 0 171.5 71t58.5 185q0 115 -60 190.5t-172 75.5h-108q-32 0 -50 -14.5t-18 -40.5v-467z" />
<glyph unicode="&#xa1;" horiz-adv-x="481" d="M121 1290q0 52 30.5 85.5t86.5 33.5q55 0 88.5 -32.5t33.5 -86.5t-33.5 -84t-88.5 -30q-56 0 -86.5 31t-30.5 83zM152 -88v1112h178v-1112h-178z" />
<glyph unicode="&#xa2;" horiz-adv-x="1032" d="M59 489q0 190 112 329t296 173v119h180v-113q112 -10 185.5 -53t158.5 -141l-131 -119q-57 65 -105 97t-108 42v-667q66 8 124.5 39t127.5 98l107 -129q-82 -88 -166.5 -131.5t-192.5 -52.5v-127h-180v133q-192 32 -300 169t-108 334zM250 500q0 -132 57.5 -218.5 t159.5 -117.5v653q-100 -32 -158.5 -118t-58.5 -199z" />
<glyph unicode="&#xa3;" horiz-adv-x="978" d="M133 0v977q-2 190 111.5 305t306.5 115q142 0 227.5 -38t182.5 -147l-123 -141q-118 148 -287 148q-107 0 -167 -64t-56 -174v-197h362v-178h-362v-428h630v-178h-825z" />
<glyph unicode="&#xa4;" horiz-adv-x="839" d="M133 936l45 45l94 -92q66 51 156 51q86 0 147 -47l82 84l45 -47l-81 -84q47 -62 47 -148q0 -92 -52 -153l93 -94l-45 -48l-95 97q-61 -43 -141 -43q-84 0 -149 47l-93 -94l-47 49l94 94q-47 56 -47 145q0 83 43 144zM248 700q0 -85 47 -135q50 -53 133 -53q81 0 131 53 q47 50 47 135q0 81 -49 136q-48 51 -129 51q-85 0 -133 -51q-47 -50 -47 -136z" />
<glyph unicode="&#xa5;" horiz-adv-x="1167" d="M43 1438h205l336 -637l340 637h198l-340 -658h271v-170h-373v-155h373v-172h-373v-283h-193v283h-372v172h372v155h-372v170h272z" />
<glyph unicode="&#xa6;" horiz-adv-x="337" d="M133 -145v610h74v-610h-74zM133 664v618h74v-618h-74z" />
<glyph unicode="&#xa7;" horiz-adv-x="1019" d="M23 84l153 102q58 -80 130 -114.5t190 -34.5q141 0 200.5 36t59.5 113q0 69 -60.5 115t-220.5 100q-197 67 -290 153t-93 230q0 102 72 181q-60 75 -60 182q0 146 110 223.5t298 77.5q49 0 85 -2.5t88.5 -14t93 -33t83.5 -62.5t74 -99l-152 -90q-82 143 -274 143 q-99 0 -156 -33t-57 -96q0 -50 24 -79.5t76 -59.5q46 -26 103 -47q20 -7 64 -23t68.5 -25.5t65.5 -26.5t66 -32t57.5 -37t52 -46t38.5 -54t27.5 -66.5t8.5 -78.5q0 -106 -71 -193q71 -84 71 -192q0 -334 -467 -334q-317 0 -458 217zM285 793q0 -28 7.5 -49t31.5 -49t79 -57 t140 -58q109 -36 182 -74q25 36 25 72q0 66 -58 111.5t-186 88.5q-75 26 -193 86q-10 -13 -19 -35t-9 -36z" />
<glyph unicode="&#xa8;" horiz-adv-x="686" d="M27 1272q0 112 114 112q111 0 111 -112q0 -117 -111 -117q-114 0 -114 117zM434 1272q0 112 115 112q110 0 110 -112q0 -117 -110 -117q-115 0 -115 117z" />
<glyph unicode="&#xa9;" horiz-adv-x="1325" d="M59 909q0 263 166 427.5t439 164.5q272 0 437 -164.5t165 -427.5q0 -262 -165.5 -427t-436.5 -165q-273 0 -439 165t-166 427zM195 909q0 -211 126 -337t343 -126q216 0 342.5 126.5t126.5 336.5t-126.5 336.5t-342.5 126.5q-217 0 -343 -126t-126 -337zM322 911 q0 148 94.5 249.5t253.5 101.5q174 0 278 -132l-86 -81q-78 98 -192 98q-105 0 -164.5 -65.5t-59.5 -168.5q0 -104 60 -168.5t166 -64.5q121 0 209 88l67 -84q-54 -61 -128.5 -91t-149.5 -30q-160 0 -254 99.5t-94 248.5z" />
<glyph unicode="&#xaa;" horiz-adv-x="874" d="M133 889q0 135 84 218t219 83q105 0 172 -53v45h125v-582h-123v51q-70 -61 -174 -61q-132 0 -217.5 82.5t-85.5 216.5zM262 891q0 -85 47.5 -135.5t130.5 -50.5q75 0 124.5 51.5t49.5 130.5q0 91 -43.5 140.5t-130.5 49.5q-82 0 -130 -51t-48 -135z" />
<glyph unicode="&#xab;" horiz-adv-x="1138" d="M59 557l318 381h225l-315 -381l315 -381h-225zM498 557l315 381h231l-317 -381l317 -381h-231z" />
<glyph unicode="&#xac;" horiz-adv-x="1206" d="M100 625v172h1010v-172h-1010z" />
<glyph unicode="&#xad;" horiz-adv-x="974" d="M145 498v172h682v-172h-682z" />
<glyph unicode="&#xae;" horiz-adv-x="1323" d="M59 909q0 263 165 427.5t438 164.5q272 0 437 -164.5t165 -427.5q0 -262 -165.5 -427t-436.5 -165q-273 0 -438 165t-165 427zM193 909q0 -211 126 -337t343 -126q215 0 341.5 127t126.5 336q0 211 -126 337t-342 126q-217 0 -343 -126t-126 -337zM432 588v526 q0 70 53 112t123 42h60q100 0 169.5 -55t69.5 -154q0 -66 -34.5 -117t-94.5 -78l176 -276h-137q-90 145 -141 227q-14 23 -23.5 30t-31.5 7h-68v-264h-121zM553 952h109q59 0 90.5 27t31.5 78t-32 78.5t-82 27.5l-58 2q-59 0 -59 -51v-162z" />
<glyph unicode="&#xaf;" horiz-adv-x="737" d="M127 1094v98h483v-98h-483z" />
<glyph unicode="&#xb0;" horiz-adv-x="655" d="M102 1374q0 94 66 159.5t160 65.5t159.5 -65.5t65.5 -159.5t-65.5 -159.5t-159.5 -65.5t-160 65.5t-66 159.5zM217 1374q0 -46 32.5 -78t78.5 -32t78 32t32 78t-32 78.5t-78 32.5t-78.5 -32.5t-32.5 -78.5z" />
<glyph unicode="&#xb1;" horiz-adv-x="1001" d="M121 754v174h297v299h168v-299h299v-174h-299v-299h-168v299h-297zM123 205v170h762v-170h-762z" />
<glyph unicode="&#xb2;" horiz-adv-x="819" d="M158 1217q53 192 250 192q245 0 245 -225q0 -82 -60 -147t-175 -126q-56 -29 -104 -86.5t-48 -119.5v-76h377v-88h-471l-2 135q0 103 58.5 182.5t156.5 132.5q172 94 172 189q0 139 -149 139q-67 0 -106 -32t-58 -103z" />
<glyph unicode="&#xb3;" horiz-adv-x="888" d="M152 772l102 29q25 -103 69 -140.5t123 -37.5q77 0 124.5 49t47.5 133q0 78 -51 123t-137 45h-65v96h59q65 0 101 40t36 99q0 52 -32 82.5t-85 30.5q-57 0 -90 -30t-55 -99l-100 33q64 196 245 196q94 0 162 -58.5t68 -156.5q0 -102 -90 -168q68 -30 107.5 -91.5 t39.5 -143.5q0 -128 -83 -204.5t-202 -76.5q-117 0 -189.5 57t-104.5 193z" />
<glyph unicode="&#xb4;" horiz-adv-x="626" d="M102 1137l222 301h231l-291 -301h-162z" />
<glyph unicode="&#xb5;" horiz-adv-x="1048" d="M133 -369v1160h70v-3h2v-469q0 -118 65 -192q71 -80 185 -80q50 0 96 16q13 9 20 11q36 16 68 53q66 72 66 192v469h73v-446q0 -157 -82 -254q-48 -57 -110 -80q-2 -1 -6.5 -3.5t-6.5 -3.5t-5.5 -3.5t-5 -5t-4 -5.5t-3.5 -7q-6 -10 -2 -37q6 -41 70.5 -64t144.5 -26v-54 q-65 0 -128.5 16t-110 51t-46.5 81q0 27 4 39h-32q-168 0 -252 118v-473h-70z" />
<glyph unicode="&#xb6;" horiz-adv-x="997" d="M102 924q0 141 87.5 230t222.5 89h219q88 0 136 -50.5t48 -135.5v-1163h-137v1165q0 24 -9.5 35.5t-37.5 15.5h-70v-1216h-137v710q-138 5 -230 87.5t-92 232.5z" />
<glyph unicode="&#xb7;" horiz-adv-x="448" d="M106 588q0 55 31.5 86t87.5 31q57 0 87 -30.5t30 -86.5q0 -55 -30.5 -87t-86.5 -32t-87.5 32t-31.5 87z" />
<glyph unicode="&#xb8;" horiz-adv-x="708" d="M88 -403l31 106q109 -48 198 -43q41 0 69 22t28 50q0 30 -23 48.5t-55 18.5q-81 0 -127 -18l63 285l134 -7l-33 -155q79 2 132.5 -43t53.5 -121q0 -51 -22 -91t-58.5 -63.5t-78 -35t-85.5 -11.5q-109 0 -227 58z" />
<glyph unicode="&#xb9;" horiz-adv-x="503" d="M162 1196v90l88 60q44 31 69 18t25 -68v-759h-80v727z" />
<glyph unicode="&#xba;" horiz-adv-x="743" d="M76 893q0 128 83.5 211.5t213.5 83.5q133 0 214 -81.5t81 -213.5q0 -131 -82.5 -214t-212.5 -83t-213.5 84t-83.5 213zM203 895q0 -78 47 -129t123 -51t123 50.5t47 129.5t-47 129.5t-123 50.5q-74 0 -122 -52t-48 -128z" />
<glyph unicode="&#xbb;" horiz-adv-x="1138" d="M94 176l318 381l-318 381h232l315 -381l-315 -381h-232zM535 176l317 381l-317 381h225l319 -381l-319 -381h-225z" />
<glyph unicode="&#xbc;" horiz-adv-x="1650" d="M162 1196v90l88 60q44 31 69 18t25 -68v-759h-80v727zM211 -25l944 1448h86l-944 -1448h-86zM891 299q0 34 24 68l365 503h96v-551h113v-92h-113v-227h-98v227h-287q-43 0 -71.5 18t-28.5 54zM1001 319h3h274v386z" />
<glyph unicode="&#xbd;" horiz-adv-x="1662" d="M162 1196v90l88 60q44 31 69 18t25 -68v-759h-80v727zM211 -25l944 1448h86l-944 -1448h-86zM1004 676l86 -33q19 71 57.5 103t105.5 32q150 0 150 -139q0 -31 -16 -60.5t-45.5 -54t-54 -40t-56.5 -33.5q-98 -53 -156.5 -133t-58.5 -183l2 -135h473v88h-379v76 q0 62 48 120t104 87q116 61 175.5 125.5t59.5 146.5q0 225 -246 225q-196 0 -249 -192z" />
<glyph unicode="&#xbe;" horiz-adv-x="1718" d="M152 772l102 29q25 -103 69 -140.5t123 -37.5q77 0 124.5 49t47.5 133q0 78 -51 123t-137 45h-65v96h59q65 0 101 40t36 99q0 52 -32 82.5t-85 30.5q-57 0 -90 -30t-55 -99l-100 33q64 196 245 196q94 0 162 -58.5t68 -156.5q0 -102 -90 -168q68 -30 107.5 -91.5 t39.5 -143.5q0 -128 -83 -204.5t-202 -76.5q-117 0 -189.5 57t-104.5 193zM403 -25l943 1448h84l-945 -1448h-82zM961 299q0 34 24 68l367 503h96v-551h113v-92h-113v-227h-100v227h-285q-45 0 -73.5 18t-28.5 54zM1069 319h4h275v386z" />
<glyph unicode="&#xbf;" horiz-adv-x="927" d="M51 244q0 53 12 98t39.5 88t49 70t65.5 75t64 72q96 115 96 236v141h192v-137q0 -119 -43 -206t-118 -171q-9 -10 -35 -38t-38 -42t-32.5 -41t-30.5 -47t-18 -47t-8 -53q0 -150 200 -150q91 0 151 32t105 116l172 -74q-121 -252 -432 -252q-184 0 -287.5 87t-103.5 243z M348 1292q0 54 30.5 87.5t88.5 33.5q57 0 91 -33.5t34 -87.5q0 -56 -34 -87t-91 -31q-58 0 -88.5 31.5t-30.5 86.5z" />
<glyph unicode="&#xc0;" horiz-adv-x="1310" d="M18 0l451 1294q25 66 67 107t117 41q137 0 187 -148l448 -1294h-209l-172 510h-510l-172 -510h-207zM346 1882h232l221 -301h-162zM461 692h381l-189 555z" />
<glyph unicode="&#xc1;" horiz-adv-x="1310" d="M18 0l451 1294q25 66 67 107t117 41q137 0 187 -148l448 -1294h-209l-172 510h-510l-172 -510h-207zM461 692h381l-189 555zM483 1581l222 301h231l-291 -301h-162z" />
<glyph unicode="&#xc2;" horiz-adv-x="1310" d="M18 0l451 1294q25 66 67 107t117 41q137 0 187 -148l448 -1294h-209l-172 510h-510l-172 -510h-207zM303 1579l236 256q51 54 117 52t116 -56l234 -252h-170l-183 166l-182 -166h-168zM461 692h381l-189 555z" />
<glyph unicode="&#xc3;" horiz-adv-x="1310" d="M18 0l451 1294q25 66 67 107t117 41q137 0 187 -148l448 -1294h-209l-172 510h-510l-172 -510h-207zM315 1651q41 58 84 88.5t103 40.5q53 9 102 -4t79 -33.5t65.5 -35t66.5 -7.5q76 16 125 86l76 -82q-79 -119 -191 -131q-58 -8 -106 5t-75 32t-61 33t-67 8 q-76 -15 -121 -80zM461 692h381l-189 555z" />
<glyph unicode="&#xc4;" horiz-adv-x="1310" d="M18 0l451 1294q25 66 67 107t117 41q137 0 187 -148l448 -1294h-209l-172 510h-510l-172 -510h-207zM338 1686q0 112 115 112q57 0 83.5 -27.5t26.5 -84.5q0 -117 -110 -117q-115 0 -115 117zM461 692h381l-189 555zM745 1686q0 112 115 112q111 0 111 -112 q0 -117 -111 -117q-115 0 -115 117z" />
<glyph unicode="&#xc5;" horiz-adv-x="1310" d="M18 0l451 1294q25 66 67 107t117 41q137 0 187 -148l448 -1294h-209l-172 510h-510l-172 -510h-207zM430 1774q0 94 65.5 159.5t159.5 65.5t160 -65.5t66 -159.5t-66 -160t-160 -66t-159.5 66t-65.5 160zM461 692h381l-189 555zM545 1774q0 -46 32 -78.5t78 -32.5 t78.5 32.5t32.5 78.5t-32.5 78t-78.5 32t-78 -32t-32 -78z" />
<glyph unicode="&#xc6;" horiz-adv-x="1898" d="M-27 0l854 1276q28 42 46 65t48 49.5t68 38t88 11.5h760v-180h-692v-447h612v-174h-612v-434q0 -8 0.5 -11t6.5 -7t19 -7h666v-180h-663q-94 0 -162 59.5t-68 149.5v426h-323l-426 -635h-222zM737 813h207v313q-25 -38 -102.5 -154.5t-104.5 -158.5z" />
<glyph unicode="&#xc7;" horiz-adv-x="1441" d="M137 707q0 211 85.5 379.5t248.5 267t375 98.5q156 0 287 -55.5t251 -188.5l-135 -149q-187 205 -409 205q-225 0 -357.5 -153.5t-132.5 -399.5t135 -400.5t363 -154.5q116 0 230.5 48t201.5 148l125 -157q-109 -109 -244 -163t-274 -59l-15 -75q79 2 133 -43t54 -121 q0 -51 -22 -91t-58.5 -63.5t-78 -35t-85.5 -11.5q-111 0 -227 57l30 107q109 -48 199 -43q41 0 68.5 22t27.5 50q0 30 -22 49.5t-53 19.5q-78 0 -129 -20l43 198q-284 29 -449.5 233t-165.5 501z" />
<glyph unicode="&#xc8;" horiz-adv-x="1144" d="M174 0v1108q0 50 6 80q20 101 95.5 168.5t183.5 79.5q36 6 90 6h467v-180h-486q-157 0 -157 -162v-262h571v-181h-571v-477h680v-180h-879zM319 1882h232l221 -301h-162z" />
<glyph unicode="&#xc9;" horiz-adv-x="1144" d="M174 0v1108q0 50 6 80q20 101 95.5 168.5t183.5 79.5q36 6 90 6h467v-180h-486q-157 0 -157 -162v-262h571v-181h-571v-477h680v-180h-879zM446 1581l222 301h231l-291 -301h-162z" />
<glyph unicode="&#xca;" horiz-adv-x="1144" d="M174 0v1108q0 50 6 80q20 101 95.5 168.5t183.5 79.5q36 6 90 6h467v-180h-486q-157 0 -157 -162v-262h571v-181h-571v-477h680v-180h-879zM262 1579l236 256q51 54 117 52t116 -56l234 -252h-170l-183 166l-182 -166h-168z" />
<glyph unicode="&#xcb;" horiz-adv-x="1144" d="M174 0v1108q0 50 6 80q20 101 95.5 168.5t183.5 79.5q36 6 90 6h467v-180h-486q-157 0 -157 -162v-262h571v-181h-571v-477h680v-180h-879zM299 1696q0 112 115 112q57 0 83.5 -27.5t26.5 -84.5q0 -117 -110 -117q-115 0 -115 117zM707 1696q0 112 114 112 q111 0 111 -112q0 -117 -111 -117q-114 0 -114 117z" />
<glyph unicode="&#xcc;" horiz-adv-x="587" d="M-23 1882h232l221 -301h-162zM190 0v1442h205v-1442h-205z" />
<glyph unicode="&#xcd;" horiz-adv-x="595" d="M143 1581l222 301h231l-291 -301h-162zM197 0v1442h204v-1442h-204z" />
<glyph unicode="&#xce;" horiz-adv-x="593" d="M-57 1579l235 256q51 54 117.5 52t116.5 -56l233 -252h-170l-182 166l-182 -166h-168zM190 0v1442h205v-1442h-205z" />
<glyph unicode="&#xcf;" horiz-adv-x="583" d="M-25 1696q0 112 115 112q111 0 111 -112q0 -117 -111 -117q-115 0 -115 117zM188 0v1442h207v-1442h-207zM383 1696q0 112 115 112q110 0 110 -112q0 -117 -110 -117q-115 0 -115 117z" />
<glyph unicode="&#xd0;" horiz-adv-x="1226" d="M133 582v67h96v410q0 64 39 100q39 39 107 39h198q246 0 390 -182q133 -171 133 -422q0 -258 -117 -414q-131 -178 -377 -178h-225q-46 0 -94 33q-52 35 -52 104l-2 443h-96zM303 1059l2 -410h363v-67h-363v-443q0 -58 64 -67l229 -2q211 -3 326 159q94 137 94 365 q0 223 -111 371q-123 163 -338 163h-202q-64 -12 -64 -69z" />
<glyph unicode="&#xd1;" horiz-adv-x="1497" d="M184 0v1278q0 76 45 126t125 50q130 0 205 -147l559 -1096v1233h195v-1280q0 -78 -46.5 -128t-123.5 -50q-129 0 -185 110q-92 177 -283 559.5t-296 581.5v-1237h-195zM395 1657q41 58 84 88.5t103 40.5q53 9 102 -4t79 -33.5t65.5 -35t66.5 -7.5q76 16 125 86l78 -88 q-79 -119 -191 -131q-58 -8 -106 5t-75 32t-61 33t-67 8q-76 -15 -121 -80z" />
<glyph unicode="&#xd2;" horiz-adv-x="1523" d="M92 719q0 120 25 228.5t79 202.5t132 163t189.5 108t246.5 39q161 0 290 -60t210.5 -163t124.5 -235.5t43 -282.5q0 -119 -26.5 -228.5t-81.5 -203.5t-133 -163.5t-187 -109t-238 -39.5q-164 0 -294.5 60.5t-212 164t-124.5 236t-43 283.5zM297 721q0 -120 28.5 -221 t84.5 -178.5t147.5 -121.5t208.5 -44q115 0 204.5 44t144.5 122t83.5 179t28.5 220q0 160 -51 284.5t-157.5 199.5t-254.5 75q-116 0 -207 -43.5t-147 -120t-84.5 -176.5t-28.5 -219zM504 1882h231l221 -301h-161z" />
<glyph unicode="&#xd3;" horiz-adv-x="1523" d="M92 719q0 120 25 228.5t79 202.5t132 163t189.5 108t246.5 39q161 0 290 -60t210.5 -163t124.5 -235.5t43 -282.5q0 -119 -26.5 -228.5t-81.5 -203.5t-133 -163.5t-187 -109t-238 -39.5q-164 0 -294.5 60.5t-212 164t-124.5 236t-43 283.5zM297 721q0 -120 28.5 -221 t84.5 -178.5t147.5 -121.5t208.5 -44q115 0 204.5 44t144.5 122t83.5 179t28.5 220q0 160 -51 284.5t-157.5 199.5t-254.5 75q-116 0 -207 -43.5t-147 -120t-84.5 -176.5t-28.5 -219zM612 1581l222 301h231l-291 -301h-162z" />
<glyph unicode="&#xd4;" horiz-adv-x="1523" d="M92 719q0 120 25 228.5t79 202.5t132 163t189.5 108t246.5 39q161 0 290 -60t210.5 -163t124.5 -235.5t43 -282.5q0 -119 -26.5 -228.5t-81.5 -203.5t-133 -163.5t-187 -109t-238 -39.5q-164 0 -294.5 60.5t-212 164t-124.5 236t-43 283.5zM297 721q0 -120 28.5 -221 t84.5 -178.5t147.5 -121.5t208.5 -44q115 0 204.5 44t144.5 122t83.5 179t28.5 220q0 160 -51 284.5t-157.5 199.5t-254.5 75q-116 0 -207 -43.5t-147 -120t-84.5 -176.5t-28.5 -219zM410 1579l235 256q51 54 117.5 52t116.5 -56l233 -252h-170l-182 166l-182 -166h-168z " />
<glyph unicode="&#xd5;" horiz-adv-x="1523" d="M92 719q0 120 25 228.5t79 202.5t132 163t189.5 108t246.5 39q161 0 290 -60t210.5 -163t124.5 -235.5t43 -282.5q0 -119 -26.5 -228.5t-81.5 -203.5t-133 -163.5t-187 -109t-238 -39.5q-164 0 -294.5 60.5t-212 164t-124.5 236t-43 283.5zM297 721q0 -120 28.5 -221 t84.5 -178.5t147.5 -121.5t208.5 -44q115 0 204.5 44t144.5 122t83.5 179t28.5 220q0 160 -51 284.5t-157.5 199.5t-254.5 75q-116 0 -207 -43.5t-147 -120t-84.5 -176.5t-28.5 -219zM428 1651q41 58 84 88.5t102 40.5q49 7 84 0t67.5 -22t56.5 -30.5t52 -24t54 -3.5 q76 16 125 86l75 -82q-79 -119 -190 -131q-58 -8 -106 5t-75 32t-61 33t-67 8q-76 -15 -121 -80z" />
<glyph unicode="&#xd6;" horiz-adv-x="1523" d="M92 719q0 120 25 228.5t79 202.5t132 163t189.5 108t246.5 39q161 0 290 -60t210.5 -163t124.5 -235.5t43 -282.5q0 -119 -26.5 -228.5t-81.5 -203.5t-133 -163.5t-187 -109t-238 -39.5q-164 0 -294.5 60.5t-212 164t-124.5 236t-43 283.5zM297 721q0 -120 28.5 -221 t84.5 -178.5t147.5 -121.5t208.5 -44q115 0 204.5 44t144.5 122t83.5 179t28.5 220q0 160 -51 284.5t-157.5 199.5t-254.5 75q-116 0 -207 -43.5t-147 -120t-84.5 -176.5t-28.5 -219zM442 1686q0 112 115 112q111 0 111 -112q0 -117 -111 -117q-115 0 -115 117zM850 1686 q0 112 115 112q57 0 83.5 -27.5t26.5 -84.5q0 -117 -110 -117q-115 0 -115 117z" />
<glyph unicode="&#xd7;" horiz-adv-x="1064" d="M76 852l53 53l399 -401l402 401l53 -53l-399 -401l403 -404l-53 -55l-404 405l-401 -401l-51 55l399 402z" />
<glyph unicode="&#xd8;" horiz-adv-x="1544" d="M92 719q0 121 25.5 229t79.5 202.5t133 163t192.5 107.5t251.5 39q168 0 295 -59l100 162h220l-166 -263q113 -102 171 -253.5t58 -327.5q0 -150 -43.5 -282.5t-125.5 -236.5t-213 -164.5t-294 -60.5q-186 0 -336 78l-110 -176h-219l182 289q-99 102 -150 245t-51 308z M295 721q0 -241 104 -385l570 905q-84 37 -195 37q-121 0 -214.5 -43t-150.5 -119.5t-85.5 -176t-28.5 -218.5zM541 213q100 -53 235 -53q120 0 211.5 43.5t147.5 121t84 177.5t28 219q0 259 -129 409z" />
<glyph unicode="&#xd9;" horiz-adv-x="1431" d="M174 487v955h207v-948q0 -69 8 -115q22 -99 113 -159t258 -60q64 0 145 12t139 31v1239h205v-1374q-245 -91 -508 -91q-211 0 -351.5 81.5t-190.5 232.5q-25 74 -25 196zM434 1882h232l221 -301h-162z" />
<glyph unicode="&#xda;" horiz-adv-x="1431" d="M174 487v955h207v-948q0 -69 8 -115q22 -99 113 -159t258 -60q64 0 145 12t139 31v1239h205v-1374q-245 -91 -508 -91q-211 0 -351.5 81.5t-190.5 232.5q-25 74 -25 196zM528 1581l222 301h231l-291 -301h-162z" />
<glyph unicode="&#xdb;" horiz-adv-x="1431" d="M174 487v955h207v-948q0 -69 8 -115q22 -99 113 -159t258 -60q64 0 145 12t139 31v1239h205v-1374q-245 -91 -508 -91q-211 0 -351.5 81.5t-190.5 232.5q-25 74 -25 196zM356 1579l236 256q51 54 117 52t116 -56l234 -252h-170l-182 166l-183 -166h-168z" />
<glyph unicode="&#xdc;" horiz-adv-x="1431" d="M174 487v955h207v-948q0 -69 8 -115q22 -99 113 -159t258 -60q64 0 145 12t139 31v1239h205v-1374q-245 -91 -508 -91q-211 0 -351.5 81.5t-190.5 232.5q-25 74 -25 196zM391 1686q0 112 115 112q57 0 83.5 -27.5t26.5 -84.5q0 -117 -110 -117q-115 0 -115 117zM799 1686 q0 112 114 112q111 0 111 -112q0 -117 -111 -117q-114 0 -114 117z" />
<glyph unicode="&#xde;" horiz-adv-x="999" d="M133 0v641v549h72v-344l9 12t12 15t12 12q96 102 266 102q166 0 262 -102q102 -108 102 -267q0 -156 -102 -264q-101 -104 -262 -104q-165 0 -266 104q-18 18 -33 39v-393h-72zM205 616q0 -128 76 -210q75 -84 215 -84q130 0 211 84q77 83 77 210q0 130 -77 213 q-78 84 -211 84q-132 0 -213 -84q-78 -81 -78 -213z" />
<glyph unicode="&#xdf;" horiz-adv-x="1128" d="M143 0v1001q0 103 24 185.5t74 144t131 94.5t189 33q171 0 269 -77t98 -224q0 -64 -27.5 -120t-66.5 -93.5t-78 -69.5t-66.5 -60.5t-27.5 -51.5q0 -24 31 -49.5t134 -79.5q141 -73 200.5 -174.5t59.5 -239.5q0 -74 -26.5 -141.5t-81 -127t-151 -95t-222.5 -35.5h-170v180 h185q131 0 198.5 61.5t67.5 155.5q0 61 -21.5 107.5t-60.5 80t-78.5 57.5t-92.5 55t-85 58q-44 37 -70 76t-26 94q0 39 12.5 73t38.5 65t48.5 52t62 54t59.5 51q53 53 53 113q0 67 -45 102t-115 35q-68 0 -113.5 -20.5t-70 -63.5t-34 -97t-9.5 -132v-977h-197z" />
<glyph unicode="&#xe0;" horiz-adv-x="1226" d="M84 477q0 143 60 259.5t180 187.5t280 71q200 0 301 -104v86h174v-977h-172q-1 4 -2.5 12t-2.5 12t-4 10.5t-6.5 7.5t-10 3.5t-15.5 -2.5q-165 -57 -270 -57q-235 0 -373.5 132t-138.5 359zM281 481q0 -151 85.5 -240t247.5 -89q128 0 273 67v348q0 118 -79.5 191 t-195.5 73q-162 0 -246.5 -97.5t-84.5 -252.5zM289 1438h231l221 -301h-161z" />
<glyph unicode="&#xe1;" horiz-adv-x="1226" d="M84 477q0 143 60 259.5t180 187.5t280 71q200 0 301 -104v86h174v-977h-172q-1 4 -2.5 12t-2.5 12t-4 10.5t-6.5 7.5t-10 3.5t-15.5 -2.5q-165 -57 -270 -57q-235 0 -373.5 132t-138.5 359zM281 481q0 -151 85.5 -240t247.5 -89q128 0 273 67v348q0 118 -79.5 191 t-195.5 73q-162 0 -246.5 -97.5t-84.5 -252.5zM449 1137l221 301h231l-291 -301h-161z" />
<glyph unicode="&#xe2;" horiz-adv-x="1226" d="M84 477q0 143 60 259.5t180 187.5t280 71q200 0 301 -104v86h174v-977h-172q-1 4 -2.5 12t-2.5 12t-4 10.5t-6.5 7.5t-10 3.5t-15.5 -2.5q-165 -57 -270 -57q-235 0 -373.5 132t-138.5 359zM260 1135l236 256q51 53 117 51.5t116 -56.5l234 -251h-170l-183 165l-182 -165 h-168zM281 481q0 -151 85.5 -240t247.5 -89q128 0 273 67v348q0 118 -79.5 191t-195.5 73q-162 0 -246.5 -97.5t-84.5 -252.5z" />
<glyph unicode="&#xe3;" horiz-adv-x="1226" d="M84 477q0 143 60 259.5t180 187.5t280 71q200 0 301 -104v86h174v-977h-172q-1 4 -2.5 12t-2.5 12t-4 10.5t-6.5 7.5t-10 3.5t-15.5 -2.5q-165 -57 -270 -57q-235 0 -373.5 132t-138.5 359zM274 1241q41 58 84 88.5t103 40.5q53 9 102 -4t79 -33.5t65.5 -35t66.5 -7.5 q76 16 125 86l76 -82q-79 -119 -191 -131q-58 -8 -106 5t-75 32t-61 33t-67 8q-79 -15 -121 -80zM281 481q0 -151 85.5 -240t247.5 -89q128 0 273 67v348q0 118 -79.5 191t-195.5 73q-162 0 -246.5 -97.5t-84.5 -252.5z" />
<glyph unicode="&#xe4;" horiz-adv-x="1226" d="M84 477q0 143 60 259.5t180 187.5t280 71q200 0 301 -104v86h174v-977h-172q-1 4 -2.5 12t-2.5 12t-4 10.5t-6.5 7.5t-10 3.5t-15.5 -2.5q-165 -57 -270 -57q-235 0 -373.5 132t-138.5 359zM281 481q0 -151 85.5 -240t247.5 -89q128 0 273 67v348q0 118 -79.5 191 t-195.5 73q-162 0 -246.5 -97.5t-84.5 -252.5zM301 1272q0 112 115 112q110 0 110 -112q0 -117 -110 -117q-115 0 -115 117zM709 1272q0 112 114 112q111 0 111 -112q0 -117 -111 -117q-114 0 -114 117z" />
<glyph unicode="&#xe5;" horiz-adv-x="1226" d="M84 477q0 143 60 259.5t180 187.5t280 71q200 0 301 -104v86h174v-977h-172q-1 4 -2.5 12t-2.5 12t-4 10.5t-6.5 7.5t-10 3.5t-15.5 -2.5q-165 -57 -270 -57q-235 0 -373.5 132t-138.5 359zM281 481q0 -151 85.5 -240t247.5 -89q128 0 273 67v348q0 118 -79.5 191 t-195.5 73q-162 0 -246.5 -97.5t-84.5 -252.5zM385 1374q0 94 65.5 159.5t159.5 65.5t160 -65.5t66 -159.5t-66 -159.5t-160 -65.5t-159.5 65.5t-65.5 159.5zM500 1374q0 -46 32 -78t78 -32t78.5 32t32.5 78t-32.5 78.5t-78.5 32.5t-78 -32.5t-32 -78.5z" />
<glyph unicode="&#xe6;" horiz-adv-x="1925" d="M92 469q0 102 35 194t99.5 163t163.5 113t218 42q260 0 383 -160q67 79 164 122.5t211 43.5q199 0 322 -122.5t141 -315.5l2 -121h-754q10 -129 96 -199.5t224 -70.5q86 0 160 25.5t159 95.5l107 -132q-98 -87 -198 -123t-234 -36q-191 0 -324 94v-84h-168q-2 8 -3 11.5 t-4.5 12.5t-7.5 10.5t-12 5t-18 -2.5q-141 -51 -254 -51q-231 0 -369.5 133t-138.5 352zM285 471q0 -143 83.5 -228t239.5 -85q132 0 269 63v326q0 65 -9 92q-19 82 -85 127t-169 45q-158 0 -243.5 -96t-85.5 -244zM1081 588h545q-18 112 -86 170.5t-174 58.5 q-110 0 -186 -58t-99 -171z" />
<glyph unicode="&#xe7;" horiz-adv-x="1087" d="M92 483q0 217 144 363.5t368 146.5q147 0 240 -42.5t196 -151.5l-143 -115q-74 76 -140 106.5t-153 30.5q-136 0 -221.5 -95.5t-85.5 -231.5q0 -166 85 -259.5t234 -93.5q158 0 314 138l114 -129q-164 -169 -397 -179l-14 -71q79 2 132.5 -43t53.5 -121q0 -51 -22 -91 t-58.5 -63.5t-78 -35t-85.5 -11.5q-111 0 -227 57l31 107q109 -48 199 -43q41 0 68.5 22t27.5 50q0 30 -23 48.5t-55 18.5q-81 0 -127 -18l45 200q-197 27 -309.5 166t-112.5 340z" />
<glyph unicode="&#xe8;" horiz-adv-x="1124" d="M84 492q0 216 137.5 361.5t356.5 145.5q206 0 332.5 -122.5t138.5 -319.5l1 -21q2 -22 3 -50.5t0 -49.5h-766q12 -137 93 -211.5t230 -74.5q92 0 167.5 21.5t156.5 74.5l80 -146q-105 -70 -194 -94t-220 -24q-242 0 -379 142.5t-137 367.5zM289 1438h231l221 -301h-161z M293 592h553q-47 244 -268 244q-113 0 -188.5 -68t-96.5 -176z" />
<glyph unicode="&#xe9;" horiz-adv-x="1124" d="M84 492q0 216 137.5 361.5t356.5 145.5q206 0 332.5 -122.5t138.5 -319.5l1 -21q2 -22 3 -50.5t0 -49.5h-766q12 -137 93 -211.5t230 -74.5q92 0 167.5 21.5t156.5 74.5l80 -146q-105 -70 -194 -94t-220 -24q-242 0 -379 142.5t-137 367.5zM293 592h553q-47 244 -268 244 q-113 0 -188.5 -68t-96.5 -176zM455 1137l221 301h231l-291 -301h-161z" />
<glyph unicode="&#xea;" horiz-adv-x="1124" d="M84 492q0 216 137.5 361.5t356.5 145.5q206 0 332.5 -122.5t138.5 -319.5l1 -21q2 -22 3 -50.5t0 -49.5h-766q12 -137 93 -211.5t230 -74.5q92 0 167.5 21.5t156.5 74.5l80 -146q-105 -70 -194 -94t-220 -24q-242 0 -379 142.5t-137 367.5zM233 1135l236 256 q51 53 117 51.5t116 -56.5l234 -251h-168l-184 168l-185 -168h-166zM293 592h553q-47 244 -268 244q-113 0 -188.5 -68t-96.5 -176z" />
<glyph unicode="&#xeb;" horiz-adv-x="1124" d="M84 492q0 216 137.5 361.5t356.5 145.5q206 0 332.5 -122.5t138.5 -319.5l1 -21q2 -22 3 -50.5t0 -49.5h-766q12 -137 93 -211.5t230 -74.5q92 0 167.5 21.5t156.5 74.5l80 -146q-105 -70 -194 -94t-220 -24q-242 0 -379 142.5t-137 367.5zM270 1272q0 112 113 112 t113 -112q0 -117 -113 -117t-113 117zM293 592h553q-47 244 -268 244q-113 0 -188.5 -68t-96.5 -176zM678 1272q0 112 113 112q112 0 112 -112q0 -117 -112 -117q-113 0 -113 117z" />
<glyph unicode="&#xec;" horiz-adv-x="516" d="M-51 1438h231l221 -301h-161zM168 0v975h194v-975h-194z" />
<glyph unicode="&#xed;" horiz-adv-x="516" d="M86 1137l221 301h232l-291 -301h-162zM168 0v975h194v-975h-194z" />
<glyph unicode="&#xee;" horiz-adv-x="540" d="M-80 1135l236 256q51 53 117 51.5t116 -56.5l234 -251h-170l-183 165l-182 -165h-168zM168 0v975h194v-975h-194z" />
<glyph unicode="&#xef;" horiz-adv-x="530" d="M-53 1272q0 112 114 112q111 0 111 -112q0 -117 -111 -117q-114 0 -114 117zM168 0v975h194v-975h-194zM354 1272q0 112 115 112q111 0 111 -112q0 -117 -111 -117q-115 0 -115 117z" />
<glyph unicode="&#xf0;" horiz-adv-x="1058" d="M133 395q0 175 113 291q111 117 284 117q180 0 291 -117q25 -25 35 -39v332q-42 -27 -82 -35q-99 -16 -172 29l-16 12l-17 8q-65 30 -106 23q-55 -12 -103 -76l-65 39q64 88 154 106q90 15 167 -30l19 -8l16 -11q48 -30 109 -20q49 6 96 67v86h72v-841q0 -63 -26 -115.5 t-83 -112.5q-111 -114 -289 -114q-176 0 -284 114q-113 116 -113 295zM207 397q0 -151 86 -247q85 -99 237 -99q147 0 238 101q88 102 88 245q0 147 -86 246q-86 96 -240 96q-153 0 -237 -96q-86 -96 -86 -246z" />
<glyph unicode="&#xf1;" horiz-adv-x="1138" d="M121 0v854q98 66 214.5 102.5t227.5 36.5q214 0 330.5 -95.5t116.5 -287.5v-610h-199v586q0 119 -62 177t-196 58q-62 0 -126.5 -17.5t-109.5 -43.5v-760h-196zM209 1241q41 58 84 88.5t102 40.5q49 7 84 0t67.5 -22t56.5 -30.5t52 -24t54 -3.5q76 16 125 86l75 -82 q-79 -119 -190 -131q-58 -8 -106 5t-75 32t-61 33t-67 8q-79 -15 -121 -80z" />
<glyph unicode="&#xf2;" d="M90 492q0 212 148 359.5t372 147.5q229 0 376 -145t147 -362q0 -218 -147 -363t-376 -145q-112 0 -209.5 40t-165.5 108.5t-106.5 162t-38.5 197.5zM287 494q0 -146 87.5 -243t235.5 -97q145 0 235.5 95.5t90.5 244.5q0 138 -92 237.5t-234 99.5q-147 0 -235 -96 t-88 -241zM299 1438h231l222 -301h-162z" />
<glyph unicode="&#xf3;" d="M90 492q0 212 148 359.5t372 147.5q229 0 376 -145t147 -362q0 -218 -147 -363t-376 -145q-112 0 -209.5 40t-165.5 108.5t-106.5 162t-38.5 197.5zM287 494q0 -146 87.5 -243t235.5 -97q145 0 235.5 95.5t90.5 244.5q0 138 -92 237.5t-234 99.5q-147 0 -235 -96 t-88 -241zM475 1137l221 301h232l-291 -301h-162z" />
<glyph unicode="&#xf4;" d="M90 492q0 212 148 359.5t372 147.5q229 0 376 -145t147 -362q0 -218 -147 -363t-376 -145q-112 0 -209.5 40t-165.5 108.5t-106.5 162t-38.5 197.5zM252 1135l235 256q51 53 117.5 51.5t116.5 -56.5l233 -251h-170l-182 165l-182 -165h-168zM287 494q0 -146 87.5 -243 t235.5 -97q145 0 235.5 95.5t90.5 244.5q0 138 -92 237.5t-234 99.5q-147 0 -235 -96t-88 -241z" />
<glyph unicode="&#xf5;" d="M90 492q0 212 148 359.5t372 147.5q229 0 376 -145t147 -362q0 -218 -147 -363t-376 -145q-112 0 -209.5 40t-165.5 108.5t-106.5 162t-38.5 197.5zM274 1241q41 58 84 88.5t103 40.5q53 9 102 -4t79 -33.5t65.5 -35t66.5 -7.5q76 16 125 86l76 -82q-79 -119 -191 -131 q-58 -8 -106 5t-75 32t-61 33t-67 8q-79 -15 -121 -80zM287 494q0 -146 87.5 -243t235.5 -97q145 0 235.5 95.5t90.5 244.5q0 138 -92 237.5t-234 99.5q-147 0 -235 -96t-88 -241z" />
<glyph unicode="&#xf6;" d="M90 492q0 212 148 359.5t372 147.5q229 0 376 -145t147 -362q0 -218 -147 -363t-376 -145q-112 0 -209.5 40t-165.5 108.5t-106.5 162t-38.5 197.5zM287 494q0 -146 87.5 -243t235.5 -97q145 0 235.5 95.5t90.5 244.5q0 138 -92 237.5t-234 99.5q-147 0 -235 -96 t-88 -241zM289 1272q0 112 112 112q113 0 113 -112q0 -117 -113 -117q-112 0 -112 117zM696 1272q0 112 113 112t113 -112q0 -117 -113 -117t-113 117z" />
<glyph unicode="&#xf7;" horiz-adv-x="1206" d="M98 625v172h1010v-172h-1010zM492 401q0 113 112 113q111 0 111 -113q0 -114 -111 -114q-112 0 -112 114zM492 1018q0 112 112 112q111 0 111 -112q0 -115 -111 -115q-112 0 -112 115z" />
<glyph unicode="&#xf8;" horiz-adv-x="1212" d="M86 492q0 103 39 196.5t106.5 162t164.5 108.5t208 40q108 0 193 -30l80 127h180l-125 -199q93 -69 143.5 -174.5t50.5 -230.5q0 -218 -146 -363t-376 -145q-112 0 -217 43l-94 -150h-180l145 232q-82 69 -127 168.5t-45 214.5zM283 494q0 -140 73 -228l346 551 q-54 14 -98 14q-146 0 -233.5 -96t-87.5 -241zM479 176q61 -22 125 -22q147 0 237.5 95.5t90.5 244.5q0 145 -98 243z" />
<glyph unicode="&#xf9;" horiz-adv-x="1142" d="M119 375v602h196v-600q0 -108 63 -169t220 -61q92 0 207 33v797h194v-916q-199 -86 -413 -86q-235 0 -351 102t-116 298zM291 1438h231l221 -301h-161z" />
<glyph unicode="&#xfa;" horiz-adv-x="1142" d="M119 375v602h196v-600q0 -108 63 -169t220 -61q92 0 207 33v797h194v-916q-199 -86 -413 -86q-235 0 -351 102t-116 298zM434 1137l221 301h232l-291 -301h-162z" />
<glyph unicode="&#xfb;" horiz-adv-x="1142" d="M119 375v602h196v-600q0 -108 63 -169t220 -61q92 0 207 33v797h194v-916q-199 -86 -413 -86q-235 0 -351 102t-116 298zM219 1135l236 256q51 53 117 51.5t116 -56.5l234 -251h-170l-183 165l-182 -165h-168z" />
<glyph unicode="&#xfc;" horiz-adv-x="1142" d="M119 375v602h196v-600q0 -108 63 -169t220 -61q92 0 207 33v797h194v-916q-199 -86 -413 -86q-235 0 -351 102t-116 298zM248 1272q0 112 112 112q113 0 113 -112q0 -117 -113 -117q-112 0 -112 117zM655 1272q0 112 113 112t113 -112q0 -117 -113 -117t-113 117z" />
<glyph unicode="&#xfd;" horiz-adv-x="913" d="M133 -362l25 71q71 -50 147 -67q57 -13 94 -13q149 0 232 95q80 92 80 239v139q-83 -116 -250 -116q-157 0 -240 102q-80 95 -80 254v446h70v-469q0 -118 65 -192q68 -80 185 -80q113 0 184 80q66 75 66 192v469h71v-825q0 -182 -100 -291q-106 -112 -285 -112 q-139 0 -264 78zM311 920l178 247h103l-221 -247h-60z" />
<glyph unicode="&#xfe;" horiz-adv-x="1058" d="M133 -440v880v768h72v-563q10 16 37 43q112 115 286 115q178 0 287 -115q113 -119 113 -293t-113 -293q-110 -116 -287 -116q-178 0 -288 116q-15 15 -35 39v-581h-72zM205 393q0 -148 86 -248q80 -96 237 -96q154 0 240 96q86 100 86 248q0 146 -86 246q-88 98 -240 98 q-148 0 -235 -100q-88 -98 -88 -244z" />
<glyph unicode="&#xff;" horiz-adv-x="1234" d="M143 395v582h193v-576q0 -113 63 -182t199 -69q141 0 270 53v774h193v-989q0 -232 -134.5 -361t-377.5 -129q-205 0 -373 82l51 166q155 -74 320 -74q152 0 236.5 77.5t84.5 227.5v56q-121 -51 -278 -51q-210 0 -328.5 105.5t-118.5 307.5zM291 1272q0 112 115 112 q110 0 110 -112q0 -117 -110 -117q-115 0 -115 117zM698 1272q0 112 115 112q111 0 111 -112q0 -117 -111 -117q-115 0 -115 117z" />
<glyph unicode="&#x152;" horiz-adv-x="1837" d="M106 719q0 150 43.5 280t127 231.5t217.5 159.5t303 58q16 0 34.5 -1t41 -2.5t34.5 -2.5l4 -4l2 -4l9 10l92 -2h745v-182h-665v-404h594v-186h-594v-484h704v-188h-870q-68 -10 -127 -10q-167 0 -301.5 59t-219 160.5t-129.5 232t-45 279.5zM315 721q0 -121 29 -221 t87.5 -177t155 -120t222.5 -43q41 0 82 6v1106q-54 4 -86 4q-126 0 -222 -42t-153.5 -118t-86 -175t-28.5 -220z" />
<glyph unicode="&#x153;" horiz-adv-x="1814" d="M90 487q0 105 40 198.5t109 161t167 107t210 39.5q184 0 320 -94q132 96 311 96q207 0 333.5 -122.5t145.5 -319.5l11 -123h-791q19 -130 105.5 -201t228.5 -71q79 0 157.5 29t186.5 94l90 -152q-125 -76 -225 -108.5t-219 -32.5q-197 0 -330 92q-137 -98 -324 -98 q-227 0 -376.5 145t-149.5 360zM287 489q0 -147 90 -240t239 -93q112 0 195 61q-70 116 -70 279q0 146 68 266q-83 61 -193 61q-148 0 -238.5 -94t-90.5 -240zM954 602h562q-55 221 -269 221q-110 0 -187.5 -58.5t-105.5 -162.5z" />
<glyph unicode="&#x178;" horiz-adv-x="1157" d="M6 1442h227l353 -613l354 613h225l-420 -717q-59 -109 -59 -160v-565h-201v565q0 53 -61 160zM268 1686q0 112 113 112t113 -112q0 -117 -113 -117t-113 117zM676 1686q0 112 112 112q113 0 113 -112q0 -117 -113 -117q-112 0 -112 117z" />
<glyph unicode="&#x2c6;" horiz-adv-x="798" d="M49 1135l236 256q50 53 116.5 51.5t116.5 -56.5l234 -251h-170l-183 165l-184 -165h-166z" />
<glyph unicode="&#x2dc;" horiz-adv-x="905" d="M102 1241q41 58 84 88.5t103 40.5q53 9 102 -4t79 -33.5t65.5 -35t66.5 -7.5q76 16 125 86l76 -82q-79 -119 -191 -131q-58 -8 -106 5t-75 32t-61 33t-67 8q-79 -15 -121 -80z" />
<glyph unicode="&#x2000;" horiz-adv-x="999" />
<glyph unicode="&#x2001;" horiz-adv-x="1999" />
<glyph unicode="&#x2002;" horiz-adv-x="999" />
<glyph unicode="&#x2003;" horiz-adv-x="1999" />
<glyph unicode="&#x2004;" horiz-adv-x="666" />
<glyph unicode="&#x2005;" horiz-adv-x="499" />
<glyph unicode="&#x2006;" horiz-adv-x="333" />
<glyph unicode="&#x2007;" horiz-adv-x="333" />
<glyph unicode="&#x2008;" horiz-adv-x="249" />
<glyph unicode="&#x2009;" horiz-adv-x="399" />
<glyph unicode="&#x200a;" horiz-adv-x="111" />
<glyph unicode="&#x2010;" horiz-adv-x="974" d="M145 498v172h682v-172h-682z" />
<glyph unicode="&#x2011;" horiz-adv-x="974" d="M145 498v172h682v-172h-682z" />
<glyph unicode="&#x2012;" horiz-adv-x="974" d="M145 498v172h682v-172h-682z" />
<glyph unicode="&#x2013;" horiz-adv-x="1120" d="M35 469v172h1048v-172h-1048z" />
<glyph unicode="&#x2014;" horiz-adv-x="1736" d="M39 469v172h1659v-172h-1659z" />
<glyph unicode="&#x2018;" horiz-adv-x="415" d="M86 1133q0 79 51 175.5t119 166.5l68 -31q-79 -131 -93 -219q46 -10 70.5 -40.5t24.5 -68.5q0 -61 -33 -91t-86 -30q-59 0 -90 35.5t-31 102.5z" />
<glyph unicode="&#x2019;" horiz-adv-x="405" d="M86 1354q0 61 33 91t86 30q59 0 90 -35.5t31 -102.5q0 -79 -51 -175.5t-119 -166.5l-68 31q81 133 92 219q-45 10 -69.5 40t-24.5 69z" />
<glyph unicode="&#x201a;" horiz-adv-x="405" d="M88 98q0 61 33 91t86 30q60 0 90.5 -35.5t30.5 -101.5q0 -79 -51 -175.5t-119 -166.5l-68 31q81 133 92 219q-45 10 -69.5 39.5t-24.5 68.5z" />
<glyph unicode="&#x201c;" horiz-adv-x="770" d="M82 1133q0 78 50.5 175t119.5 169l67 -33q-78 -128 -92 -219q46 -10 70.5 -40.5t24.5 -68.5q0 -61 -33 -91t-86 -30q-59 0 -90 35.5t-31 102.5zM444 1133q0 78 50.5 175t119.5 169l68 -33q-78 -128 -92 -219q45 -10 69.5 -40t24.5 -69q0 -61 -33 -91t-86 -30 q-59 0 -90 35.5t-31 102.5z" />
<glyph unicode="&#x201d;" horiz-adv-x="765" d="M88 1354q0 61 33 92t86 31q59 0 90 -36.5t31 -103.5q0 -77 -51 -175t-119 -167l-68 31q81 133 92 219q-45 10 -69.5 40t-24.5 69zM451 1354q0 62 32.5 92.5t85.5 30.5q59 0 90 -36.5t31 -103.5q0 -77 -51 -175t-119 -167l-67 31q81 133 92 219q-45 10 -69.5 40t-24.5 69z " />
<glyph unicode="&#x201e;" horiz-adv-x="763" d="M88 98q0 61 33 91t86 30q60 0 90.5 -35.5t30.5 -101.5q0 -79 -51 -175.5t-119 -166.5l-68 31q81 133 92 219q-45 10 -69.5 39.5t-24.5 68.5zM451 98q0 61 32.5 91t85.5 30q60 0 90.5 -35.5t30.5 -101.5q0 -79 -51 -175.5t-119 -166.5l-67 31q81 133 92 219 q-45 10 -69.5 39.5t-24.5 68.5z" />
<glyph unicode="&#x2022;" horiz-adv-x="714" d="M133 621q0 120 52.5 172.5t172.5 52.5q116 0 171 -54.5t55 -170.5q0 -118 -55 -171t-173 -53t-170.5 52.5t-52.5 171.5z" />
<glyph unicode="&#x2026;" horiz-adv-x="1271" d="M106 102q0 55 31.5 85t87.5 30q57 0 87 -29.5t30 -85.5q0 -55 -30.5 -86.5t-86.5 -31.5q-57 0 -88 31t-31 87zM516 102q0 55 31.5 85t87.5 30q57 0 87 -29.5t30 -85.5q0 -55 -30.5 -86.5t-86.5 -31.5q-57 0 -88 31t-31 87zM926 102q0 55 31 85t87 30q57 0 87 -29.5 t30 -85.5q0 -55 -30.5 -86.5t-86.5 -31.5q-57 0 -87.5 31t-30.5 87z" />
<glyph unicode="&#x202f;" horiz-adv-x="399" />
<glyph unicode="&#x2039;" horiz-adv-x="557" d="M127 399l188 260h129l-186 -260l186 -260h-129z" />
<glyph unicode="&#x203a;" horiz-adv-x="557" d="M113 139l186 260l-186 260h129l188 -260l-188 -260h-129z" />
<glyph unicode="&#x205f;" horiz-adv-x="499" />
<glyph unicode="&#x20ac;" horiz-adv-x="1390" d="M27 397l53 158h145v29q0 37 2 53h-118l53 156h96q60 182 218.5 290.5t363.5 108.5q137 0 250.5 -42t226.5 -151l-117 -127q-161 148 -358 148q-132 0 -230 -58t-155 -169h651l-53 -156h-641v-51v-31h614l-53 -158h-529q50 -117 154.5 -183.5t241.5 -66.5q91 0 189.5 39 t178.5 119l113 -125q-200 -200 -481 -200q-271 0 -443 172q-113 113 -149 245h-223z" />
<glyph unicode="&#x2122;" horiz-adv-x="1701" d="M104 1333v109h580v-109h-229v-614h-123v614h-228zM784 717v641q0 49 39 75.5t88 12t74 -67.5l158 -338l155 338q25 53 74 67.5t88 -12t39 -75.5v-641h-117v569l-192 -412h-94l-195 412v-569h-117z" />
<glyph unicode="&#xe000;" horiz-adv-x="972" d="M0 0v973h973v-973h-973z" />
<glyph unicode="&#xfb01;" horiz-adv-x="1243" d="M156 0v1051q0 164 95 268t267 104q71 0 128.5 -11t139.5 -50l-53 -164q-108 51 -201 51q-178 0 -178 -194v-92h334v-179h-334v-784h-198zM870 1239q0 44 33.5 76.5t79.5 32.5t79.5 -32.5t33.5 -76.5q0 -45 -33.5 -77t-79.5 -32t-79.5 32t-33.5 77zM885 0v997h194v-997 h-194z" />
<glyph unicode="&#xfb02;" d="M156 0v1051q0 164 95 268t267 104q71 0 128.5 -11t139.5 -50l-53 -164q-108 51 -201 51q-178 0 -178 -194v-92h334v-179h-334v-784h-198zM874 0v1442h197v-1442h-197z" />
</font>
</defs>
</svg>
